<?xml version="1.0" encoding="UTF-8" standalone="no"?>
<svg height="853" xmlns="http://www.w3.org/2000/svg" version="1.1" width="1653">
 <defs>
  <marker id="TriangleOutM" overflow="visible" refY="0" orient="auto" refX="0">
   <path d="m5.77 0-8.65 5v-10l8.65 5z" fill-rule="evenodd" transform="scale(.4)" stroke="#000" stroke-width="1pt"/>
  </marker>
 </defs>
 <g transform="translate(-73.5 -125.87)">
  <g transform="translate(600 -150)">
   <rect height="150" rx="55" fill="#fff" ry="75" stroke="#000" x="0" stroke-width="3" stroke-linejoin="round" width="300" y="300"/>
   <text font-family="Arial" line-height="100%" fill="#000000" font-size="32px" xml:space="preserve" style="text-anchor:middle;text-align:center;" x="150" y="390"><tspan>ISRG Root X1</tspan></text>
  </g>
  <g transform="translate(1e3 -150)">
   <rect height="150" fill="#fff" rx="55" ry="75" stroke="#000" x="0" stroke-width="3" stroke-linejoin="round" width="300" y="300"/>
   <text font-family="Arial" line-height="100%" fill="#000000" font-size="32px" xml:space="preserve" style="text-anchor:middle;text-align:center;"><tspan x="150" y="370">(IdenTrust) DST</tspan><tspan x="150" y="405">Root CA X3</tspan></text>
  </g>
  <g transform="translate(1300 500)">
   <rect height="150" rx="55" fill="#fff" ry="75" stroke="#000" x="0" stroke-width="3" stroke-linejoin="round" width="300" y="300"/>
   <text font-family="Arial" line-height="100%" fill="#000000" font-size="32px" xml:space="preserve" style="text-anchor:middle;text-align:center;"><tspan x="150" y="370">Server</tspan><tspan x="150" y="405">certificate</tspan></text>
  </g>
  <g transform="translate(900 500)">
   <rect height="150" fill="#fff" rx="55" ry="75" stroke="#000" x="0" stroke-width="3" stroke-linejoin="round" width="300" y="300"/>
   <text font-family="Arial" line-height="100%" fill="#000000" font-size="32px" xml:space="preserve" style="text-anchor:middle;text-align:center;"><tspan x="150" y="370">Server</tspan><tspan x="150" y="405">certificate</tspan></text>
  </g>
  <g transform="translate(500 500)">
   <rect height="150" rx="55" fill="#fff" ry="75" stroke="#000" x="0" stroke-width="3" stroke-linejoin="round" width="300" y="300"/>
   <text font-family="Arial" line-height="100%" fill="#000000" font-size="32px" xml:space="preserve" style="text-anchor:middle;text-align:center;"><tspan x="150" y="370">Server</tspan><tspan x="150" y="405">certificate</tspan></text>
  </g>
  <g opacity=".5" transform="translate(200 200)">
   <rect height="150" rx="55" fill="#fff" ry="75" stroke="#000" x="0" stroke-width="3" stroke-linejoin="round" width="300" y="300"/>
   <text font-family="Arial" line-height="100%" fill="#000000" font-size="32px" xml:space="preserve" style="text-anchor:middle;text-align:center;"><tspan x="150" y="370">Let&apos;s Encrypt</tspan><tspan x="150" y="405">Authority X1</tspan></text>
   <text font-family="Arial" line-height="100%" fill="#000000" x="150" font-size="28px" xml:space="preserve" style="text-anchor:middle;text-align:center;" y="480"><tspan>Retired</tspan></text>
  </g>
  <g opacity=".5" transform="translate(600 200)">
   <rect height="150" fill="#fff" rx="55" ry="75" stroke="#000" x="0" stroke-width="3" stroke-linejoin="round" width="300" y="300"/>
   <text font-family="Arial" line-height="100%" fill="#000000" font-size="32px" xml:space="preserve" style="text-anchor:middle;text-align:center;"><tspan x="150" y="370">Let&apos;s Encrypt</tspan><tspan x="150" y="405">Authority X2</tspan></text>
   <text font-family="Arial" line-height="100%" fill="#000000" x="150" font-size="28px" xml:space="preserve" style="text-anchor:middle;text-align:center;" y="480"><tspan>Retired</tspan></text>
  </g>
  <g transform="translate(1e3 200)">
   <rect height="150" rx="55" fill="#fff" ry="75" stroke="#000" x="0" stroke-width="3" stroke-linejoin="round" width="300" y="300"/>
   <text font-family="Arial" line-height="100%" fill="#000000" font-size="32px" xml:space="preserve" style="text-anchor:middle;text-align:center;"><tspan x="150" y="370">Let&apos;s Encrypt</tspan><tspan x="150" y="405">Authority X3</tspan></text>
   <text font-family="Arial" line-height="100%" fill="#000000" x="150" font-size="28px" xml:space="preserve" style="text-anchor:middle;text-align:center;" y="480"><tspan>Active</tspan></text>
  </g>
  <g transform="translate(1400 200)">
   <rect height="150" fill="#fff" rx="55" ry="75" stroke="#000" x="0" stroke-width="3" stroke-linejoin="round" width="300" y="300"/>
   <text font-family="Arial" line-height="100%" fill="#000000" font-size="32px" xml:space="preserve" style="text-anchor:middle;text-align:center;"><tspan x="150" y="370">Let&apos;s Encrypt</tspan><tspan x="150" y="405">Authority X4</tspan></text>
   <text font-family="Arial" line-height="100%" fill="#000000" font-size="28px" xml:space="preserve" style="text-anchor:middle;text-align:center;" x="150" y="480"><tspan>Standing by</tspan></text>
  </g>
  <g transform="translate(100 -50)">
   <rect height="150" rx="55" fill="#fff" ry="75" stroke="#000" x="0" stroke-width="3" stroke-linejoin="round" width="300" y="302.36"/>
   <text font-family="Arial" line-height="100%" fill="#000000" font-size="32px" xml:space="preserve" style="text-anchor:middle;text-align:center;letter-spacing:0px;word-spacing:0px" x="150" y="372.36218"><tspan x="150" y="372.36218">ISRG Root</tspan><tspan x="150" y="404.36218">OCSP X1</tspan></text>
  </g>
  <path fill="none" transform="translate(0 52.362)" stroke="#000" d="m750 250 0.0001 130" stroke-linecap="round" stroke-linejoin="round" stroke-width="3"/>
  <path transform="translate(0 52.362)" fill="none" opacity=".5" marker-end="url(#TriangleOutM)" stroke="#000" d="m750 380c0 10-10 20-20 20h-410c-10 0-20 9.8214-20 20v20" stroke-linecap="round" stroke-width="3"/>
  <path fill="none" opacity=".5" marker-end="url(#TriangleOutM)" stroke="#000" d="m720 452.36c-10 0-20 10-20 20l-0.0001 20" stroke-linecap="round" stroke-width="3"/>
  <path transform="translate(0 52.362)" fill="none" marker-end="url(#TriangleOutM)" stroke="#000" d="m750 380c0 10 10 20 20 20h710c10 0 20 10 20 20v20" stroke-linecap="round" stroke-width="3"/>
  <path fill="none" marker-end="url(#TriangleOutM)" stroke="#000" d="m1080 452.36c10 0 20 10 20 20.048v19.952" stroke-linecap="round" stroke-width="3"/>
  <path transform="translate(0 52.362)" fill="none" marker-end="url(#TriangleOutM)" stroke="#000" d="m750 260c0 10-10 20-20 20h-320" stroke-width="3"/>
  <path fill="none" transform="translate(0 52.362)" stroke-dasharray="12, 12" stroke="#000" d="m1150 250 0.0001 80" stroke-linecap="round" stroke-linejoin="round" stroke-width="3"/>
  <path transform="translate(0 52.362)" fill="none" opacity=".5" marker-end="url(#TriangleOutM)" stroke-dasharray="9, 9" stroke="#000" d="m1150 330c0 10-10 20-20 20h-370c-0.0519-10-10-10-10-10s-10.025 0-10 10h-320.53c-9.47 0-19.47 10-19.47 19.66v20.34c10 0 10 10 10 10s0 10-10 10v30" stroke-linecap="round" stroke-linejoin="round" stroke-width="3"/>
  <path transform="translate(0 52.362)" fill="none" opacity=".5" marker-end="url(#TriangleOutM)" stroke-dasharray="9, 9" stroke="#000" d="m820 350c-10 0-20 10-20 20v20c10 0 10 10 10 10s0 10-10 10v30" stroke-linecap="round" stroke-linejoin="round" stroke-width="3"/>
  <path transform="translate(0 52.362)" fill="none" marker-end="url(#TriangleOutM)" stroke-dasharray="9, 9" stroke="#000" d="m1150 330c0 10 10 20 20 20h410c10 0 20 10 20 20v70" stroke-linecap="round" stroke-linejoin="round" stroke-width="3"/>
  <path transform="translate(0 52.362)" fill="none" marker-end="url(#TriangleOutM)" stroke-dasharray="9, 9" stroke="#000" d="m1180 350c10 0 20 10 20 20v20c10 0 10 10 10 10s0 10-10 10v30" stroke-linecap="round" stroke-linejoin="round" stroke-width="3"/>
  <path fill="none" transform="translate(0 52.362)" stroke-dasharray="9, 9" stroke="#000" d="m1150 630 0.0001 50" stroke-linecap="round" stroke-linejoin="round" stroke-width="3"/>
  <path transform="translate(0 52.362)" fill="none" marker-end="url(#TriangleOutM)" stroke-dasharray="9, 9" stroke="#000" d="m1150 680c0 10-10 20-20 20h-460c-10 0-20 10-20 20v20" stroke-linecap="round" stroke-linejoin="round" stroke-width="3"/>
  <path transform="translate(0 52.362)" fill="none" marker-end="url(#TriangleOutM)" stroke-dasharray="9, 9" stroke="#000" d="m1070 700c-10 0-20 10-20 20v20" stroke-linecap="round" stroke-linejoin="round" stroke-width="3"/>
  <path transform="translate(0 52.362)" fill="none" marker-end="url(#TriangleOutM)" stroke-dasharray="9, 9" stroke="#000" d="m1150 680c0 10 10 20 20 20h270c10 0 20 10 20 20v20" stroke-linecap="round" stroke-linejoin="round" stroke-width="3"/>
  <g transform="translate(-50 -2.6378)">
   <text font-family="Arial" line-height="125%" fill="#000000" font-size="24px" xml:space="preserve" style="letter-spacing:0px;word-spacing:0px" x="1400.0001" y="172.36217"><tspan x="1400.0001" y="172.36217">Legend:</tspan></text>
   <path fill="none" transform="translate(73.5 125.87)" stroke="#000" d="m1326.5 76.487h50" stroke-linecap="round" stroke-linejoin="round" stroke-width="3"/>
   <text font-family="Arial" line-height="100%" fill="#000000" x="1460" font-size="22px" xml:space="preserve" style="letter-spacing:0px;word-spacing:0px" y="205"><tspan>Chained to `ISRG Root X1&apos;</tspan></text>
   <g transform="translate(0,30)">
    <path fill="none" transform="translate(73.5 125.87)" stroke-dasharray="9, 9" stroke="#000" d="m1326.5 76.487h50" stroke-linecap="round" stroke-linejoin="round" stroke-width="3"/>
    <text font-family="Arial" line-height="100%" fill="#000000" font-size="22px" xml:space="preserve" style="letter-spacing:0px;word-spacing:0px" x="1460" y="205"><tspan>Chained to `DST Root CA X3&apos;</tspan></text>
   </g>
  </g>
 </g>
</svg>
