<svg id="Layer_1" data-name="Layer 1" xmlns="http://www.w3.org/2000/svg" viewBox="0 0 366.67 108.05"><defs><style>.cls-1{fill:#fff;}</style></defs><path class="cls-1" d="M58.5,44.52H50.15V40.24a6.21,6.21,0,0,0-12.42,0v4.28H29.38V40.24a14.56,14.56,0,0,1,29.12,0Z"/><path class="cls-1" d="M61.87,44.52H26a2.8,2.8,0,0,0-2.79,2.79V73.83A2.8,2.8,0,0,0,26,76.61H61.87a2.79,2.79,0,0,0,2.78-2.78V47.31A2.8,2.8,0,0,0,61.87,44.52ZM45.76,61.94v3.59a1.82,1.82,0,1,1-3.63,0V61.94a3.69,3.69,0,1,1,3.63,0Z"/><path class="cls-1" d="M22.38,40.57H13.73a2.54,2.54,0,0,1,0-5.08h8.65a2.54,2.54,0,1,1,0,5.08Z"/><path class="cls-1" d="M28.48,27a2.56,2.56,0,0,1-1.62-.58L20,20.75a2.54,2.54,0,1,1,3.23-3.92l6.84,5.63A2.54,2.54,0,0,1,28.48,27Z"/><path class="cls-1" d="M43.94,21a2.54,2.54,0,0,1-2.54-2.54V9.72a2.54,2.54,0,1,1,5.08,0v8.72A2.54,2.54,0,0,1,43.94,21Z"/><path class="cls-1" d="M59.41,27a2.54,2.54,0,0,1-1.61-4.5l6.84-5.63a2.54,2.54,0,1,1,3.23,3.92L61,26.38A2.51,2.51,0,0,1,59.41,27Z"/><path class="cls-1" d="M74.16,40.57H65.42a2.54,2.54,0,0,1,0-5.08h8.74a2.54,2.54,0,1,1,0,5.08Z"/><path class="cls-1" d="M85.52,76.61V44.33h7.84V69.82h12.49v6.79Z"/><path class="cls-1" d="M131.67,65.53v.92a7.88,7.88,0,0,1,0,.86H115.17a3.9,3.9,0,0,0,.57,1.73A4.93,4.93,0,0,0,117,70.39a5.8,5.8,0,0,0,1.69.89,6,6,0,0,0,1.93.32,6.29,6.29,0,0,0,3-.66,6,6,0,0,0,2-1.71l5.2,3.28a10.59,10.59,0,0,1-4.22,3.58,14.06,14.06,0,0,1-6.09,1.25,14.32,14.32,0,0,1-4.83-.8,11.67,11.67,0,0,1-4-2.32A10.73,10.73,0,0,1,109,70.46a12.66,12.66,0,0,1-1-5.11,12.79,12.79,0,0,1,1-5,11.39,11.39,0,0,1,2.6-3.83A11.69,11.69,0,0,1,115.44,54a13.41,13.41,0,0,1,4.83-.86,12.28,12.28,0,0,1,4.61.84,10,10,0,0,1,3.6,2.44,11.36,11.36,0,0,1,2.35,3.88A15,15,0,0,1,131.67,65.53Zm-6.88-2.87a4.46,4.46,0,0,0-1.12-3,4.21,4.21,0,0,0-3.35-1.28,5.65,5.65,0,0,0-2,.34,5.15,5.15,0,0,0-1.59.94,4.64,4.64,0,0,0-1.1,1.39,4.07,4.07,0,0,0-.45,1.66Z"/><path class="cls-1" d="M143.62,59.47v8.7a3.91,3.91,0,0,0,.61,2.4,2.65,2.65,0,0,0,2.21.8,8.09,8.09,0,0,0,1.17-.09,3.94,3.94,0,0,0,1-.27l.09,5.47a12.77,12.77,0,0,1-2,.48,14.58,14.58,0,0,1-2.37.2,11.2,11.2,0,0,1-3.83-.57,5.88,5.88,0,0,1-2.48-1.65,6.42,6.42,0,0,1-1.35-2.56,12.55,12.55,0,0,1-.41-3.31v-9.6h-3.64V53.91h3.6v-6h7.34v6H149v5.56Z"/><path class="cls-1" d="M173.16,60.61A8.42,8.42,0,0,0,171,59.15a6,6,0,0,0-2.6-.59,4.62,4.62,0,0,0-1.94.41,1.43,1.43,0,0,0-.89,1.41,1.41,1.41,0,0,0,1,1.37,21.56,21.56,0,0,0,3.17.91,16.45,16.45,0,0,1,2.58.78,9,9,0,0,1,2.35,1.32,6.4,6.4,0,0,1,1.68,2,5.81,5.81,0,0,1,.64,2.82,6.77,6.77,0,0,1-3.12,6,9.66,9.66,0,0,1-3.12,1.32,14.75,14.75,0,0,1-3.47.41,17,17,0,0,1-5.45-.89,11.27,11.27,0,0,1-4.44-2.62l4.19-4.42A8.29,8.29,0,0,0,164,71.23a6.83,6.83,0,0,0,3.1.73,4,4,0,0,0,1.8-.43,1.55,1.55,0,0,0,.89-1.53,1.64,1.64,0,0,0-1.09-1.55,20.53,20.53,0,0,0-3.42-1,16.52,16.52,0,0,1-2.37-.73,7.32,7.32,0,0,1-2.12-1.23,6.15,6.15,0,0,1-1.53-1.91,5.93,5.93,0,0,1-.59-2.74,6.71,6.71,0,0,1,.86-3.49A7.37,7.37,0,0,1,161.81,55a9.88,9.88,0,0,1,3-1.35,13,13,0,0,1,3.31-.43,15.74,15.74,0,0,1,5,.8,10.9,10.9,0,0,1,4.13,2.39Z"/><path class="cls-1" d="M190.38,76.61V44.33h21.7V50.9H197.9V57h13.41v6.24H197.9V70h15v6.65Z"/><path class="cls-1" d="M232.61,76.61V64.21a9.71,9.71,0,0,0-.16-1.82,5.2,5.2,0,0,0-.52-1.53,2.8,2.8,0,0,0-1-1,3.24,3.24,0,0,0-1.66-.39,3.77,3.77,0,0,0-1.76.39,3.59,3.59,0,0,0-1.25,1.07,4.62,4.62,0,0,0-.75,1.58,6.65,6.65,0,0,0-.26,1.84V76.61H217.7V53.91H225v3.14H225a7.94,7.94,0,0,1,1.07-1.43,6.4,6.4,0,0,1,1.55-1.21,9.92,9.92,0,0,1,1.94-.82,7.72,7.72,0,0,1,2.24-.32,8.35,8.35,0,0,1,3.87.82,7.51,7.51,0,0,1,2.58,2.12,8.42,8.42,0,0,1,1.41,3,13.43,13.43,0,0,1,.43,3.37v14Z"/><path class="cls-1" d="M259.37,61.25a4.41,4.41,0,0,0-1.73-1.32,5.22,5.22,0,0,0-2.23-.51,4.75,4.75,0,0,0-2.15.48,5.39,5.39,0,0,0-1.64,1.28A6.14,6.14,0,0,0,250.55,63a6.34,6.34,0,0,0-.39,2.23,6.77,6.77,0,0,0,.37,2.23,5.41,5.41,0,0,0,1.07,1.85,5,5,0,0,0,1.69,1.25,5.08,5.08,0,0,0,2.21.46,6.2,6.2,0,0,0,2.26-.43,4.37,4.37,0,0,0,1.8-1.26l4.15,5.06a9.76,9.76,0,0,1-3.65,2.15,14.54,14.54,0,0,1-4.74.77,15,15,0,0,1-5-.82,11.75,11.75,0,0,1-4-2.39,11.23,11.23,0,0,1-2.7-3.81,12.35,12.35,0,0,1-1-5.06,12.21,12.21,0,0,1,1-5,11.23,11.23,0,0,1,2.7-3.81,12,12,0,0,1,4-2.42,14.63,14.63,0,0,1,5-.84,12.53,12.53,0,0,1,2.44.23A16.26,16.26,0,0,1,260,54a11,11,0,0,1,2,1,9.13,9.13,0,0,1,1.62,1.25Z"/><path class="cls-1" d="M281.26,60.06a5.79,5.79,0,0,0-1-.18c-.32,0-.63-.05-.93-.05a5.35,5.35,0,0,0-2.53.55,5,5,0,0,0-1.64,1.32,5,5,0,0,0-.89,1.68A5.44,5.44,0,0,0,274,65V76.61h-7.47V53.94h7.2v3.28h.09a7.53,7.53,0,0,1,2.46-2.85,6.4,6.4,0,0,1,3.7-1.1c.3,0,.6,0,.89,0a4.3,4.3,0,0,1,.7.14Z"/><path class="cls-1" d="M298.81,80a18.69,18.69,0,0,1-1.53,3.17,9.46,9.46,0,0,1-2,2.37,7.8,7.8,0,0,1-2.74,1.48,12.1,12.1,0,0,1-3.71.51,18.21,18.21,0,0,1-2.17-.14,12.42,12.42,0,0,1-1.94-.37l.82-6.29a9.3,9.3,0,0,0,1.21.3,7.87,7.87,0,0,0,1.21.11,3.4,3.4,0,0,0,2.51-.79,6.61,6.61,0,0,0,1.32-2.26l.73-1.87L283,53.91h8.29l5.06,14.59h.14l4.52-14.59H309Z"/><path class="cls-1" d="M336.2,65.17a14.51,14.51,0,0,1-.73,4.56,11.9,11.9,0,0,1-2.12,3.85,10.51,10.51,0,0,1-3.4,2.67,10.06,10.06,0,0,1-4.56,1,9.59,9.59,0,0,1-4-.84,7.1,7.1,0,0,1-2.91-2.3h-.09V87.56h-7.48V53.91h7.11v2.78h.14a9.18,9.18,0,0,1,2.89-2.39,8.79,8.79,0,0,1,4.36-1,10.24,10.24,0,0,1,4.47,1,10.11,10.11,0,0,1,3.39,2.6,11.7,11.7,0,0,1,2.14,3.8A13.56,13.56,0,0,1,336.2,65.17Zm-7.25,0a7.09,7.09,0,0,0-.34-2.14,5.62,5.62,0,0,0-1-1.85,5.14,5.14,0,0,0-1.66-1.3,5.22,5.22,0,0,0-2.33-.5,5.09,5.09,0,0,0-2.28.5,5.6,5.6,0,0,0-1.71,1.32,6.21,6.21,0,0,0,0,8,5.6,5.6,0,0,0,1.71,1.32,5.09,5.09,0,0,0,2.28.5,5.22,5.22,0,0,0,2.33-.5,5.06,5.06,0,0,0,1.66-1.32,5.87,5.87,0,0,0,1-1.9A7.27,7.27,0,0,0,329,65.17Z"/><path class="cls-1" d="M348.14,59.47v8.7a3.91,3.91,0,0,0,.62,2.4,2.64,2.64,0,0,0,2.21.8,8.07,8.07,0,0,0,1.16-.09,3.73,3.73,0,0,0,1-.28l.09,5.48a13.07,13.07,0,0,1-2,.48,14.58,14.58,0,0,1-2.37.2,11.16,11.16,0,0,1-3.83-.57,5.92,5.92,0,0,1-2.49-1.65,6.41,6.41,0,0,1-1.34-2.56,12.15,12.15,0,0,1-.41-3.31v-9.6H337.2V53.91h3.6v-6h7.34v6h5.34v5.56Z"/><path class="cls-1" d="M155.81,43.71a3.81,3.81,0,0,0-4,3.69A3.46,3.46,0,0,0,155.49,51,2.89,2.89,0,0,0,156,51a4.17,4.17,0,0,1-3.36,3l-.3,0v3.47l.38,0a8.22,8.22,0,0,0,4.83-2.22,9.12,9.12,0,0,0,2.56-6.75C160.13,45.72,158.31,43.71,155.81,43.71Z"/></svg>