<svg id="Layer_1" data-name="Layer 1" xmlns="http://www.w3.org/2000/svg" viewBox="0 0 482.02 512.36"><path d="M344.59,277h-59V246.67a43.88,43.88,0,0,0-87.76,0V277h-59V246.67a102.87,102.87,0,1,1,205.74,0V277Z"/><path d="M368.39,277H115.05a19.72,19.72,0,0,0-19.67,19.66V484a19.72,19.72,0,0,0,19.67,19.66H368.39A19.72,19.72,0,0,0,388.05,484V296.62A19.72,19.72,0,0,0,368.39,277ZM254.56,400v25.39a12.84,12.84,0,0,1-25.68,0V400a26.08,26.08,0,1,1,25.68,0Z"/><path d="M89.37,249H28.24a18,18,0,0,1,0-35.9H89.37a18,18,0,0,1,0,35.9Z"/><path d="M132.43,152.85A17.86,17.86,0,0,1,121,148.77L72.68,109A18,18,0,0,1,95.49,81.28L143.84,121a17.95,17.95,0,0,1-11.41,31.81Z"/><path d="M241.72,110.59a18,18,0,0,1-17.95-18V31a18,18,0,0,1,35.9,0V92.64A18,18,0,0,1,241.72,110.59Z"/><path d="M351,152.85A17.95,17.95,0,0,1,339.6,121L388,81.28A17.95,17.95,0,0,1,410.75,109L362.4,148.77A17.93,17.93,0,0,1,351,152.85Z"/><path d="M455.2,249H393.49a18,18,0,1,1,0-35.9H455.2a18,18,0,0,1,0,35.9Z"/></svg>