<svg id="Layer_1" data-name="Layer 1" xmlns="http://www.w3.org/2000/svg" viewBox="0 0 195.4 160.92"><defs><style>.cls-1{fill:#231f20;}</style></defs><path class="cls-1" d="M157.4,54.87h-9.54V50a7.1,7.1,0,0,0-14.2,0v4.9h-9.55V50a16.65,16.65,0,0,1,33.29,0Z"/><path class="cls-1" d="M161.25,54.87h-41a3.19,3.19,0,0,0-3.18,3.18V88.37a3.2,3.2,0,0,0,3.18,3.19h41a3.2,3.2,0,0,0,3.18-3.19V58.05A3.19,3.19,0,0,0,161.25,54.87ZM142.83,74.78v4.11a2.08,2.08,0,0,1-4.15,0V74.78a4.22,4.22,0,1,1,4.15,0Z"/><path class="cls-1" d="M116.11,50.35h-9.89a2.91,2.91,0,1,1,0-5.81h9.89a2.91,2.91,0,0,1,0,5.81Z"/><path class="cls-1" d="M123.07,34.79a2.87,2.87,0,0,1-1.84-.66l-7.82-6.43a2.91,2.91,0,0,1,3.69-4.49l7.82,6.44a2.9,2.9,0,0,1-1.85,5.14Z"/><path class="cls-1" d="M140.76,28a2.9,2.9,0,0,1-2.91-2.9v-10a2.91,2.91,0,0,1,5.81,0v10A2.9,2.9,0,0,1,140.76,28Z"/><path class="cls-1" d="M158.44,34.79a2.9,2.9,0,0,1-1.85-5.14l7.83-6.44a2.91,2.91,0,0,1,3.69,4.49l-7.83,6.43A2.85,2.85,0,0,1,158.44,34.79Z"/><path class="cls-1" d="M175.3,50.35h-10a2.91,2.91,0,0,1,0-5.81h10a2.91,2.91,0,0,1,0,5.81Z"/><path class="cls-1" d="M13.86,91.21V58.93H21.7V84.42H34.19v6.79Z"/><path class="cls-1" d="M60,80.13V81a8.07,8.07,0,0,1,0,.87H43.51a3.94,3.94,0,0,0,.57,1.73A4.93,4.93,0,0,0,45.31,85a6,6,0,0,0,3.62,1.2,6.29,6.29,0,0,0,3-.66,6,6,0,0,0,2-1.71l5.2,3.29a10.59,10.59,0,0,1-4.22,3.58,14.06,14.06,0,0,1-6.09,1.25,14.57,14.57,0,0,1-4.83-.8,11.83,11.83,0,0,1-4-2.32,10.76,10.76,0,0,1-2.69-3.77,13.74,13.74,0,0,1,0-10.14,11.39,11.39,0,0,1,2.6-3.83,11.53,11.53,0,0,1,3.87-2.44,13.2,13.2,0,0,1,4.83-.87,12.28,12.28,0,0,1,4.61.85,9.87,9.87,0,0,1,3.6,2.44,11.22,11.22,0,0,1,2.35,3.87A15,15,0,0,1,60,80.13Zm-6.88-2.87A4.46,4.46,0,0,0,52,74.2a4.21,4.21,0,0,0-3.35-1.27,5.65,5.65,0,0,0-2,.34,5.33,5.33,0,0,0-1.59.93A4.76,4.76,0,0,0,44,75.59a4.16,4.16,0,0,0-.45,1.67Z"/><path class="cls-1" d="M72,74.07v8.69a4,4,0,0,0,.61,2.41,2.66,2.66,0,0,0,2.22.8A8.07,8.07,0,0,0,76,85.88a4.36,4.36,0,0,0,1-.28l.09,5.47a11.7,11.7,0,0,1-2,.48,13.56,13.56,0,0,1-2.37.21,11.2,11.2,0,0,1-3.83-.57,6,6,0,0,1-2.48-1.65A6.62,6.62,0,0,1,65.07,87a12.6,12.6,0,0,1-.41-3.31v-9.6H61V68.5h3.6v-6H72v6h5.33v5.57Z"/><path class="cls-1" d="M101.5,75.21a8.17,8.17,0,0,0-2.14-1.46,5.87,5.87,0,0,0-2.6-.6,4.51,4.51,0,0,0-1.94.42A1.43,1.43,0,0,0,93.93,75a1.42,1.42,0,0,0,1,1.37,22.9,22.9,0,0,0,3.17.91,17.53,17.53,0,0,1,2.58.77A9.34,9.34,0,0,1,103,79.36a6.13,6.13,0,0,1,1.68,2,5.83,5.83,0,0,1,.64,2.83,6.8,6.8,0,0,1-3.12,6,9.66,9.66,0,0,1-3.12,1.32,15.23,15.23,0,0,1-3.47.41,17.24,17.24,0,0,1-5.45-.89,11.39,11.39,0,0,1-4.44-2.62L89.92,84a8.47,8.47,0,0,0,2.46,1.82,6.83,6.83,0,0,0,3.1.73,4.11,4.11,0,0,0,1.81-.43,1.56,1.56,0,0,0,.88-1.53,1.63,1.63,0,0,0-1.09-1.55,18.77,18.77,0,0,0-3.42-1,17.89,17.89,0,0,1-2.37-.73A7.32,7.32,0,0,1,89.17,80a6.31,6.31,0,0,1-1.53-1.92,5.91,5.91,0,0,1-.59-2.73,6.62,6.62,0,0,1,.87-3.49,7.27,7.27,0,0,1,2.23-2.35,9.86,9.86,0,0,1,3-1.34,13,13,0,0,1,3.31-.44,16,16,0,0,1,5,.8,10.72,10.72,0,0,1,4.13,2.4Z"/><path class="cls-1" d="M13.86,128.61V96.33h21.7v6.56H21.38V109H34.79v6.25H21.38V122h15v6.66Z"/><path class="cls-1" d="M56.09,128.61v-12.4a9.81,9.81,0,0,0-.16-1.83,5,5,0,0,0-.52-1.52,2.8,2.8,0,0,0-1-1,3.21,3.21,0,0,0-1.66-.39,3.77,3.77,0,0,0-1.76.39,3.49,3.49,0,0,0-1.25,1.07,4.66,4.66,0,0,0-.75,1.57,6.72,6.72,0,0,0-.25,1.85v12.31H41.18V105.9h7.25v3.15h.09a7.62,7.62,0,0,1,1.08-1.44,6.45,6.45,0,0,1,1.55-1.21,10.18,10.18,0,0,1,1.93-.82,7.77,7.77,0,0,1,2.24-.31,8.32,8.32,0,0,1,3.87.82,7.31,7.31,0,0,1,2.58,2.12,8.38,8.38,0,0,1,1.41,3,13.52,13.52,0,0,1,.44,3.38v14Z"/><path class="cls-1" d="M82.86,113.24a4.72,4.72,0,0,0-1.74-1.32,5.36,5.36,0,0,0-2.23-.5,4.68,4.68,0,0,0-2.14.48,5.17,5.17,0,0,0-1.65,1.28A6.09,6.09,0,0,0,74,115a6.39,6.39,0,0,0-.38,2.24,6.81,6.81,0,0,0,.36,2.23,5.41,5.41,0,0,0,1.07,1.85,5.09,5.09,0,0,0,3.9,1.71,6.22,6.22,0,0,0,2.26-.44,4.36,4.36,0,0,0,1.8-1.25l4.15,5.06a9.75,9.75,0,0,1-3.65,2.14,14.28,14.28,0,0,1-4.74.78,14.89,14.89,0,0,1-5-.82,11.72,11.72,0,0,1-4.06-2.4,11.23,11.23,0,0,1-2.7-3.8,12.38,12.38,0,0,1-1-5.06,12.26,12.26,0,0,1,1-5,11.37,11.37,0,0,1,2.7-3.81A12.06,12.06,0,0,1,73.78,106a14.53,14.53,0,0,1,5-.85,13.27,13.27,0,0,1,2.44.23,15.94,15.94,0,0,1,2.33.62,10.73,10.73,0,0,1,2,1,8.69,8.69,0,0,1,1.62,1.25Z"/><path class="cls-1" d="M104.74,112.06a5.79,5.79,0,0,0-1-.18c-.31,0-.63,0-.93,0a5.26,5.26,0,0,0-2.53.55,5.18,5.18,0,0,0-1.64,1.31,5,5,0,0,0-.89,1.69A5.62,5.62,0,0,0,97.5,117v11.64H90V105.93h7.2v3.28h.09a7.42,7.42,0,0,1,2.46-2.84,6.33,6.33,0,0,1,3.7-1.1,8.7,8.7,0,0,1,.89,0,3.3,3.3,0,0,1,.7.14Z"/><path class="cls-1" d="M122.29,132a19.89,19.89,0,0,1-1.52,3.17,10.09,10.09,0,0,1-2,2.37,8,8,0,0,1-2.74,1.48,12.33,12.33,0,0,1-3.71.5,16.33,16.33,0,0,1-2.17-.14,13.81,13.81,0,0,1-1.94-.36l.83-6.29a7.54,7.54,0,0,0,1.2.29,6.87,6.87,0,0,0,1.21.12,3.39,3.39,0,0,0,2.51-.8,6.27,6.27,0,0,0,1.32-2.26l.73-1.87-9.48-22.34h8.3l5.06,14.59H120l4.52-14.59h7.93Z"/><path class="cls-1" d="M159.68,117.17a14.13,14.13,0,0,1-.73,4.55,11.77,11.77,0,0,1-2.12,3.86,10.35,10.35,0,0,1-3.4,2.66,10,10,0,0,1-4.56,1,9.4,9.4,0,0,1-4-.85,7.07,7.07,0,0,1-2.92-2.3h-.09v13.45h-7.48V105.9h7.11v2.78h.14a9.31,9.31,0,0,1,2.89-2.39,8.92,8.92,0,0,1,4.36-1,10,10,0,0,1,7.86,3.55,11.88,11.88,0,0,1,2.15,3.81A13.77,13.77,0,0,1,159.68,117.17Zm-7.25,0a6.86,6.86,0,0,0-.34-2.15,5.57,5.57,0,0,0-1-1.84,4.88,4.88,0,0,0-1.66-1.3,5,5,0,0,0-2.32-.51,4.91,4.91,0,0,0-2.28.51,5.3,5.3,0,0,0-1.71,1.32,6,6,0,0,0-1.1,1.87,6.07,6.07,0,0,0,0,4.28,5.85,5.85,0,0,0,1.1,1.87,5.47,5.47,0,0,0,1.71,1.33,5,5,0,0,0,2.28.5,5.18,5.18,0,0,0,2.32-.5,5,5,0,0,0,1.66-1.33,5.72,5.72,0,0,0,1-1.89A7,7,0,0,0,152.43,117.17Z"/><path class="cls-1" d="M171.62,111.47v8.69a3.94,3.94,0,0,0,.62,2.41,2.65,2.65,0,0,0,2.21.8,8,8,0,0,0,1.16-.09,4.45,4.45,0,0,0,1-.28l.09,5.47a13.07,13.07,0,0,1-2,.48,13.56,13.56,0,0,1-2.37.21,10.91,10.91,0,0,1-3.83-.58,6,6,0,0,1-2.49-1.64,6.47,6.47,0,0,1-1.34-2.56,12.6,12.6,0,0,1-.41-3.31v-9.6h-3.65V105.9h3.6v-6h7.34v6H177v5.57Z"/><path class="cls-1" d="M84.15,58.31a3.81,3.81,0,0,0-4,3.68,3.46,3.46,0,0,0,3.68,3.64,2.89,2.89,0,0,0,.53,0,4.14,4.14,0,0,1-3.36,3l-.3.05v3.47l.38,0a8.21,8.21,0,0,0,4.83-2.21,9.12,9.12,0,0,0,2.56-6.75C88.47,60.32,86.65,58.31,84.15,58.31Z"/></svg>