<svg id="Layer_1" data-name="Layer 1" xmlns="http://www.w3.org/2000/svg" viewBox="0 0 2000 412.09"><defs><style>.cls-1{fill:#00b073;}.cls-2{fill:#091b2a;}</style></defs><title>sectigo_logo_color</title><path class="cls-1" d="M310.52,19.42C316.3,10.82,311,0,301.07,0H140.71Q90.08,0,60.18,26.93q-29.7,26.7-34.26,76.82h0l-7.66,87.47h0q-4.2,50.13,20.81,76.9Q64.27,295,114.9,295h36.63v-.23q10.83-1.51,11.86-13.24l3.76-42.93a12.72,12.72,0,0,0-12.87-14.1h-20.4q-19.87,0-27.76-8.65T100,186.72l6.86-78.41q1.78-20.5,11.2-29.15t29.27-8.66H255.6c12.76,0,25.16-6.78,32.56-17.8Z" transform="translate(0 0)"/><path class="cls-1" d="M2.4,392.67c-5.78,8.6-.52,19.42,9.45,19.42H174.52q50.64,0,80.54-26.93,29.7-26.71,34.26-76.82h0L297,220.86h0q4.21-50.13-20.8-76.89Q251,117,200.33,117.05H163.7v.23c-7.21,1-11.18,5.42-11.86,13.22l-3.75,42.95a12.71,12.71,0,0,0,12.86,14.1h20.41q19.86,0,27.76,8.65t6.1,29.16l-6.86,78.41q-1.78,20.52-11.2,29.16t-29.28,8.66H57.32a39.76,39.76,0,0,0-32.56,17.8Z" transform="translate(0 0)"/><path class="cls-2" d="M554.17,412.08H344.61q-13.46,0-12.29-13.45L366,13.45Q367.19,0,380.66,0H590.22Q603,0,601.86,13.45L598.05,57q-1.17,13.47-14,13.46H450.12q-7.69,0-8.32,7l-7.28,83.32c-.42,4.7,2,7,7.08,7H551.18q13.46,0,12.29,13.46L559.65,225Q558.47,238.4,545,238.41H435.42c-5.12,0-7.89,2.36-8.31,7l-7.79,89.09c-.42,4.7,1.95,7,7.08,7H560.34q12.81,0,11.64,13.46l-3.81,43.58q-1.18,13.46-14,13.45" transform="translate(0 0)"/><path class="cls-2" d="M780.21,412.08H710.36q-50.64,0-75.83-26.91t-20.78-77.54l17.78-203.17Q636,53.85,665.87,26.92T746.41,0h69.85q50,0,75.49,27.24t21.12,77.22l-2.63,30.13c-.82,9.4-6,14.1-15.34,14.1H841.07q-13.47,0-12.23-14.1l2.3-26.29q1.8-20.49-6.1-29.15t-28.4-8.65H753.05q-19.86,0-29.27,8.65t-11.2,29.15l-17.1,195.48q-1.79,20.5,6.09,29.16t27.77,8.65h43.58q20.51,0,29.91-8.65T814,303.78l2.3-26.28q1.23-14.08,14.69-14.1h53.84q14.07,0,12.86,14.1l-2.63,30.13q-4.38,50-34.63,77.21t-80.26,27.24" transform="translate(0 0)"/><path class="cls-2" d="M1078,412.08h-53.84q-14.1,0-12.92-13.45l28.1-321.08q.6-7-6.44-7H959.83q-13.46,0-12.28-13.46l3.81-43.59Q952.53,0,966,0h242.24q13.47,0,12.29,13.45L1216.72,57q-1.18,13.47-14.64,13.46h-73q-7.69,0-8.32,7l-28.09,321.08q-1.18,13.46-14.63,13.45" transform="translate(0 0)"/><path class="cls-2" d="M1343.49,13.46l-33.7,385.17q-1.17,13.46-14.64,13.46h-54.47q-13.46,0-12.28-13.46l33.69-385.17Q1263.29,0,1276.73,0h54.47q13.47,0,12.29,13.45" transform="translate(0 0)"/><path class="cls-2" d="M1813.88,341.59h45.51q20.49,0,29.91-8.65t11.2-29.16l17.1-195.48q1.8-20.49-6.09-29.15T1883.1,70.5h-45.5q-20.52,0-29.59,8.65t-10.88,29.15L1780,303.78q-1.79,20.5,5.78,29.16t28.08,8.65m52.8,70.49H1794.9q-50.62,0-75.83-26.91t-20.78-77.54l17.78-203.17q4.42-50.61,34.34-77.54T1831,0h71.78q50.61,0,75.83,26.92t20.78,77.54l-17.77,203.17q-4.44,50.63-34.35,77.54t-80.54,26.91" transform="translate(0 0)"/><path class="cls-2" d="M1594.34,137.79h54.48q13.46,0,14.69-14.1l1.67-19.23q4.38-50-20.79-77.23T1569.22,0h-67.93q-50.62,0-80.54,26.9t-34.35,77.55l-17.77,203.16q-4.43,50.63,20.78,77.55t75.83,26.92h67.93q50,0,79.93-27.24t34.31-77.23l9.37-107q1.29-14.74-13.46-14.75H1516.45c-10,0-17.12,10.82-12.85,19.42l16.53,33.28c5.48,11,16.69,17.8,29.46,17.8h13.87q7,0,6.43,7l-3.53,40.37q-1.8,20.53-10.88,29.17t-29.59,8.65h-41.67q-19.86,0-27.76-8.65t-6.1-29.17l17.11-195.46q1.79-20.5,11.2-29.16t29.27-8.66h41.66q20.49,0,28.09,8.66t5.77,29.16l-1.35,15.38q-1.23,14.1,12.23,14.1" transform="translate(0 0)"/></svg>