<svg xmlns="http://www.w3.org/2000/svg" xmlns:xlink="http://www.w3.org/1999/xlink" width="500" zoomAndPan="magnify" viewBox="0 0 375 374.999991" height="500" preserveAspectRatio="xMidYMid meet" version="1.0"><defs><g/><clipPath id="d80bc81e98"><path d="M 135 149.03125 L 157 149.03125 L 157 177 L 135 177 Z M 135 149.03125 " clip-rule="nonzero"/></clipPath><clipPath id="c7d23b9e8d"><path d="M 212 297 L 225 297 L 225 337.28125 L 212 337.28125 Z M 212 297 " clip-rule="nonzero"/></clipPath><clipPath id="ef5320f8cc"><path d="M 127 290 L 162 290 L 162 337.28125 L 127 337.28125 Z M 127 290 " clip-rule="nonzero"/></clipPath><clipPath id="de00b1f5f3"><path d="M 197 149.03125 L 204 149.03125 L 204 169 L 197 169 Z M 197 149.03125 " clip-rule="nonzero"/></clipPath><clipPath id="36357d28dc"><path d="M 290.210938 105 L 326.960938 105 L 326.960938 170 L 290.210938 170 Z M 290.210938 105 " clip-rule="nonzero"/></clipPath></defs><path fill="#000000" d="M 307.660156 215.992188 C 289.816406 215.820312 262 213.5625 258.496094 208.039062 C 255.09375 202.664062 272.925781 175.285156 284.96875 159.285156 C 285.335938 158.796875 285.273438 158.109375 284.816406 157.699219 C 284.359375 157.292969 283.664062 157.292969 283.214844 157.707031 C 272.34375 167.695312 242.09375 192.425781 232.703125 187.011719 C 221.394531 180.492188 225.484375 160.445312 225.523438 160.246094 C 225.648438 159.671875 225.328125 159.089844 224.769531 158.890625 C 224.21875 158.6875 223.601562 158.921875 223.316406 159.433594 C 223.191406 159.671875 210.496094 182.769531 197.363281 182.769531 C 197.265625 182.769531 197.167969 182.769531 197.070312 182.761719 C 183.847656 182.421875 170.984375 154.683594 170.855469 154.40625 C 170.605469 153.855469 169.976562 153.582031 169.40625 153.773438 C 168.832031 153.960938 168.492188 154.546875 168.617188 155.136719 C 168.679688 155.421875 174.523438 183.871094 162.734375 191.671875 C 153.402344 197.859375 120.195312 183.398438 105.550781 176.015625 C 104.320312 175.371094 103.519531 174.96875 103.304688 174.867188 C 102.726562 174.585938 102.019531 174.816406 101.722656 175.394531 C 101.425781 175.976562 101.65625 176.679688 102.234375 176.980469 C 102.464844 177.101562 103.292969 177.53125 104.601562 178.1875 C 116.875 184.628906 141.074219 200.097656 136.738281 211.210938 C 132.5 222.066406 111.042969 221.359375 100.554688 220.320312 C 97.648438 219.886719 95.480469 219.65625 94.679688 219.578125 C 94.046875 219.507812 93.46875 219.964844 93.386719 220.597656 C 93.304688 221.230469 93.730469 221.816406 94.359375 221.921875 C 94.726562 221.988281 97.070312 222.378906 100.519531 222.722656 C 111.539062 224.421875 128.140625 228.324219 128.6875 234.695312 C 128.835938 236.402344 126.667969 241.613281 103.4375 252.996094 C 90.390625 259.390625 77.058594 264.585938 76.925781 264.636719 C 76.320312 264.875 76.015625 265.554688 76.246094 266.164062 C 76.480469 266.773438 77.160156 267.078125 77.773438 266.851562 C 92.402344 261.417969 132.03125 249.121094 139.621094 257.316406 C 148.566406 266.980469 130.859375 286.90625 130.679688 287.109375 C 130.265625 287.570312 130.277344 288.28125 130.714844 288.722656 C 131.148438 289.167969 131.855469 289.203125 132.335938 288.800781 C 132.570312 288.601562 156.4375 268.644531 170.832031 276.894531 C 185.367188 285.222656 186.097656 319.792969 186.101562 320.144531 C 186.113281 320.769531 186.605469 321.277344 187.234375 321.308594 C 187.253906 321.308594 187.269531 321.308594 187.289062 321.308594 C 187.894531 321.308594 188.402344 320.851562 188.46875 320.25 C 188.511719 319.882812 192.597656 283.648438 209.292969 279.597656 C 226.070312 275.535156 247.730469 300.796875 247.949219 301.050781 C 248.324219 301.496094 248.964844 301.601562 249.457031 301.304688 C 249.953125 301.011719 250.167969 300.402344 249.960938 299.863281 C 249.84375 299.558594 238.523438 269.632812 248.390625 261.027344 C 256.625 253.851562 287.050781 264.855469 298.082031 269.710938 C 298.660156 269.964844 299.339844 269.714844 299.621094 269.152344 C 299.902344 268.585938 299.6875 267.898438 299.128906 267.589844 C 287.882812 261.40625 259.328125 243.445312 262.210938 234.667969 C 265.15625 225.710938 296.121094 219.863281 307.804688 218.367188 C 308.421875 218.289062 308.871094 217.746094 308.835938 217.125 C 308.800781 216.484375 308.289062 216 307.660156 215.992188 Z M 307.660156 215.992188 " fill-opacity="1" fill-rule="nonzero"/><g clip-path="url(#d80bc81e98)"><path fill="#000000" d="M 154.054688 176.199219 C 154.285156 176.484375 154.628906 176.632812 154.972656 176.632812 C 155.210938 176.632812 155.449219 176.5625 155.65625 176.414062 C 156.167969 176.058594 156.308594 175.367188 155.988281 174.832031 L 140.789062 149.664062 C 140.59375 149.34375 140.261719 149.132812 139.886719 149.097656 C 139.507812 149.054688 139.144531 149.203125 138.894531 149.476562 L 136.03125 152.625 C 135.632812 153.054688 135.617188 153.710938 135.988281 154.167969 Z M 154.054688 176.199219 " fill-opacity="1" fill-rule="nonzero"/></g><g clip-path="url(#c7d23b9e8d)"><path fill="#000000" d="M 215.203125 298.464844 C 215.054688 297.867188 214.472656 297.476562 213.859375 297.578125 C 213.25 297.679688 212.816406 298.230469 212.871094 298.84375 L 215.929688 336.222656 C 215.960938 336.570312 216.144531 336.890625 216.429688 337.09375 C 216.632812 337.234375 216.875 337.3125 217.113281 337.3125 C 217.210938 337.3125 217.320312 337.300781 217.421875 337.269531 L 223.15625 335.742188 C 223.78125 335.578125 224.160156 334.945312 224.003906 334.316406 Z M 215.203125 298.464844 " fill-opacity="1" fill-rule="nonzero"/></g><path fill="#000000" d="M 262.417969 273.527344 C 261.949219 273.136719 261.261719 273.160156 260.824219 273.585938 C 260.382812 274.011719 260.347656 274.699219 260.730469 275.179688 L 277.648438 296.0625 C 277.875 296.339844 278.210938 296.5 278.574219 296.5 C 278.574219 296.5 278.578125 296.5 278.578125 296.5 C 278.941406 296.5 279.28125 296.328125 279.503906 296.050781 L 282.660156 292.042969 C 283.058594 291.542969 282.980469 290.820312 282.496094 290.410156 Z M 262.417969 273.527344 " fill-opacity="1" fill-rule="nonzero"/><path fill="#000000" d="M 122.078125 295.238281 C 120.707031 296.019531 113.859375 300.09375 113.433594 303.695312 C 113.316406 304.683594 113.648438 305.578125 114.402344 306.28125 C 114.96875 306.816406 115.632812 307.09375 116.328125 307.09375 C 116.542969 307.09375 116.761719 307.070312 116.976562 307.015625 C 120.261719 306.207031 123.019531 298.878906 123.792969 296.65625 C 123.953125 296.1875 123.808594 295.671875 123.425781 295.359375 C 123.039062 295.042969 122.503906 294.996094 122.078125 295.238281 Z M 122.078125 295.238281 " fill-opacity="1" fill-rule="nonzero"/><g clip-path="url(#ef5320f8cc)"><path fill="#000000" d="M 161.355469 291.097656 C 160.839844 290.761719 160.152344 290.871094 159.773438 291.363281 L 128.230469 331.800781 C 128.011719 332.085938 127.925781 332.457031 128.011719 332.808594 C 128.09375 333.15625 128.335938 333.453125 128.664062 333.601562 L 136.40625 337.199219 C 136.566406 337.273438 136.738281 337.3125 136.902344 337.3125 C 137.324219 337.3125 137.734375 337.085938 137.945312 336.6875 L 161.75 292.648438 C 162.046875 292.109375 161.875 291.433594 161.355469 291.097656 Z M 161.355469 291.097656 " fill-opacity="1" fill-rule="nonzero"/></g><g clip-path="url(#de00b1f5f3)"><path fill="#000000" d="M 198.851562 149.089844 C 198.199219 149.089844 197.664062 149.621094 197.664062 150.273438 L 197.664062 167.152344 C 197.664062 167.761719 198.128906 168.269531 198.734375 168.328125 C 198.773438 168.335938 198.808594 168.335938 198.851562 168.335938 C 199.410156 168.335938 199.902344 167.945312 200.015625 167.390625 L 203.457031 150.511719 C 203.527344 150.160156 203.4375 149.800781 203.210938 149.527344 C 202.988281 149.257812 202.648438 149.089844 202.292969 149.089844 Z M 198.851562 149.089844 " fill-opacity="1" fill-rule="nonzero"/></g><g clip-path="url(#36357d28dc)"><path fill="#9955f6" d="M 296.613281 169.738281 C 296.371094 169.738281 296.136719 169.683594 295.921875 169.570312 C 295.644531 169.429688 295.445312 169.210938 295.332031 168.917969 C 295.21875 168.625 295.214844 168.332031 295.324219 168.039062 L 304.167969 141.621094 L 291.703125 141.621094 C 291.476562 141.65625 291.257812 141.625 291.050781 141.519531 C 290.84375 141.417969 290.683594 141.265625 290.574219 141.058594 C 290.4375 140.867188 290.363281 140.652344 290.347656 140.417969 C 290.332031 140.183594 290.382812 139.960938 290.492188 139.753906 L 306.398438 106.304688 C 306.664062 105.832031 307.070312 105.59375 307.613281 105.585938 L 324.28125 105.585938 C 324.773438 105.59375 325.15625 105.800781 325.4375 106.199219 C 325.574219 106.40625 325.640625 106.632812 325.640625 106.878906 C 325.640625 107.125 325.574219 107.351562 325.4375 107.558594 L 313.300781 128.628906 L 325.773438 128.628906 C 326.28125 128.671875 326.679688 128.90625 326.96875 129.328125 C 327.09375 129.558594 327.144531 129.804688 327.121094 130.066406 C 327.09375 130.328125 326.992188 130.558594 326.820312 130.757812 L 297.675781 169.28125 C 297.378906 169.566406 297.027344 169.71875 296.613281 169.738281 Z M 296.613281 169.738281 " fill-opacity="1" fill-rule="nonzero"/></g><path stroke-linecap="butt" transform="matrix(0.826596, 0, 0, 0.826596, 47.754429, 55.377232)" fill="none" stroke-linejoin="miter" d="M 49.33103 102.743636 C 48.064541 98.811848 47.067416 95.867732 46.339657 93.911289 C 45.607173 91.954846 45.068442 90.532408 44.714014 89.639249 C 44.383214 88.741364 44.090221 88.013605 43.839758 87.451246 C 43.589296 86.893613 43.249045 86.161128 42.809554 85.267969 C 42.393692 84.374811 41.77935 82.928744 40.971254 80.92977 C 40.158432 78.935521 38.981731 76.024485 37.445876 72.196662 C 37.445876 72.111599 37.403344 72.069068 37.318282 72.069068 C 35.697364 72.569993 34.010286 73.014209 32.2665 73.411169 C 30.517988 73.7845 28.788379 74.138928 27.082399 74.474453 C 27.002062 78.406242 26.784679 82.356933 26.430251 86.331254 C 26.094726 90.281945 25.721395 94.256265 25.305533 98.249488 C 25.225196 98.164426 25.069247 98.12662 24.837688 98.12662 C 24.629756 98.12662 24.440728 98.084089 24.275328 97.999026 C 23.590101 97.833626 22.578799 97.72966 21.250875 97.687129 C 19.937129 97.644598 18.566674 97.625695 17.130058 97.625695 C 14.90425 97.625695 13.259704 97.668226 12.201145 97.748563 C 11.137861 97.833626 10.098205 97.999026 9.082178 98.249488 C 8.061425 98.499951 6.440508 98.840202 4.214699 99.279693 L 3.836643 92.630622 C 4.087105 86.662053 4.276134 80.098045 4.399002 72.943324 C 4.526596 65.788602 4.58803 58.851264 4.58803 52.131307 C 4.58803 51.091652 4.564402 49.385671 4.526596 47.013366 C 4.484065 44.622158 4.441533 41.937956 4.399002 38.96076 C 4.356471 35.969387 4.318665 33.001643 4.276134 30.071704 C 4.233602 27.137039 4.191071 24.608786 4.148539 22.486943 C 4.110734 20.346197 4.087105 18.928485 4.087105 18.243258 L 8.302436 17.496596 L 32.578397 14.405983 C 34.884542 14.240583 37.204865 14.292566 39.534638 14.561931 C 41.883315 14.812394 44.217815 15.062856 46.52396 15.308593 C 50.351783 15.724455 53.66923 16.806642 56.4763 18.555154 C 59.306999 20.303666 61.636773 22.43496 63.470348 24.953762 C 65.299197 27.467839 66.683829 30.071704 67.619519 32.75118 C 68.555209 35.435382 69.065586 37.89275 69.145923 40.118558 L 63.281319 55.065972 C 61.490276 57.017689 59.444045 58.723669 57.133174 60.179187 C 59.255016 67.418972 60.970448 73.236318 62.284195 77.621774 C 63.612119 82.011957 64.665952 85.405015 65.436242 87.796223 C 66.201807 90.168528 66.797246 91.997377 67.213108 93.287495 C 67.647873 94.558711 67.99285 95.744863 68.243312 96.845953 C 66.89176 97.365781 64.977848 97.937592 62.501578 98.561385 C 60.025307 99.208807 57.591567 99.851503 55.200359 100.494199 C 52.828054 101.141621 50.956674 101.8363 49.581493 102.587688 C 49.501156 102.587688 49.458625 102.606591 49.458625 102.649122 C 49.458625 102.710556 49.416093 102.743636 49.33103 102.743636 Z M 26.085274 58.619704 C 28.812008 57.268151 31.642707 56.020565 34.572645 54.876943 C 37.50731 53.709694 40.427797 52.537718 43.343559 51.351565 C 44.359586 49.976385 45.295276 48.572849 46.150629 47.136234 C 47.001257 45.680716 47.762095 44.182667 48.42842 42.646812 C 47.573067 41.460659 46.703537 40.250878 45.805652 39.02692 C 44.912494 37.779333 43.995706 36.5601 43.060016 35.373948 C 42.478754 35.459011 41.561967 35.539348 40.31438 35.62441 C 39.085696 35.709473 37.880641 35.747279 36.694488 35.747279 C 34.553743 35.747279 32.304306 35.728376 29.955629 35.685845 C 27.625855 35.643313 25.607978 35.581879 23.901997 35.496816 C 24.067397 36.437232 24.360391 39.012743 24.776253 43.237525 C 25.211018 47.462308 25.650509 52.589701 26.085274 58.619704 Z M 102.240053 97.876157 L 96.999244 97.375232 L 90.104436 97.096416 L 86.763361 95.442418 L 83.082035 91.728012 L 81.394957 89.04381 L 79.24476 80.495005 L 79.24476 80.372136 C 78.639869 76.875113 78.181476 73.930997 77.869579 71.539789 C 77.581311 69.148581 77.349751 67.012561 77.184351 65.14118 C 77.018952 63.2698 76.914986 61.39842 76.872455 59.52704 C 76.829923 57.655659 76.81102 55.481834 76.81102 53.005563 C 76.81102 51.899748 76.829923 50.562372 76.872455 48.97926 C 76.914986 47.396148 77.018952 45.222323 77.184351 42.457784 C 77.349751 39.688519 77.529328 36.092255 77.713631 31.659542 L 77.713631 31.536673 C 77.798693 31.371273 77.841225 31.224777 77.841225 31.097182 C 77.841225 30.974314 77.883756 30.870348 77.964093 30.785286 L 77.964093 30.629337 C 79.400708 30.733303 80.846775 30.851446 82.302293 30.974314 C 83.757811 31.097182 85.161346 31.201148 86.512898 31.286211 C 88.65837 31.371273 90.747132 31.475239 92.788638 31.598107 C 94.825418 31.725702 96.914181 31.829667 99.059652 31.910004 L 99.059652 32.037598 C 98.955687 32.141564 98.903704 32.297512 98.903704 32.505443 C 98.903704 32.713374 98.903704 32.774809 98.903704 32.689746 L 98.525647 46.10603 C 98.44531 48.998163 98.360247 51.923376 98.27991 54.876943 C 98.194848 57.811608 97.986916 60.765175 97.656117 63.737645 C 97.382026 66.128853 97.122112 68.439724 96.871649 70.665533 C 96.625913 72.872438 96.365999 75.679509 96.091908 79.091469 L 100.71365 85.485352 C 103.185195 85.485352 105.609483 85.353032 107.981788 85.083667 L 112.726399 84.332279 L 114.753727 78.56219 L 114.876596 77.56034 L 115.656337 70.259122 L 115.533469 51.223971 L 113.879471 41.366145 C 113.879471 40.09493 113.83694 38.82844 113.756603 37.557225 C 113.67154 36.267107 113.534495 35.028971 113.350192 33.847544 L 117.064598 33.063077 C 119.536143 32.647215 121.672163 32.358946 123.458481 32.193547 C 125.249524 32.004518 127.295755 31.910004 129.606626 31.910004 L 130.353288 37.027946 C 130.792779 39.920079 131.071596 41.928504 131.19919 43.048497 C 131.322058 44.154313 131.383493 44.787558 131.383493 44.952957 C 131.383493 45.118357 131.383493 45.184517 131.383493 45.141986 C 131.383493 45.099454 131.407121 45.4019 131.449652 46.044596 C 131.487458 46.692018 131.633955 48.114456 131.884418 50.321361 C 132.153783 53.813659 132.371165 57.353214 132.541291 60.930575 C 132.706691 64.507936 132.787028 68.085296 132.787028 71.662657 C 132.787028 71.662657 132.593274 72.432947 132.196314 73.973528 C 131.822983 75.514109 131.39767 77.257895 130.915647 79.214338 C 130.457254 81.170781 130.022489 82.83423 129.606626 84.209411 L 128.576422 87.389812 C 127.035841 89.261192 125.967832 90.58439 125.362941 91.354681 C 124.781679 92.124971 124.290205 92.68733 123.897972 93.037033 C 123.519915 93.372558 122.929202 93.736437 122.11638 94.128671 C 121.308284 94.506728 119.923651 95.243938 117.967208 96.345028 C 114.555248 96.595491 111.63476 96.836502 109.201021 97.063336 C 106.767281 97.271267 104.446959 97.540632 102.240053 97.876157 Z M 140.825456 97.999026 C 140.825456 93.235512 140.764022 87.640275 140.641154 81.213312 C 140.51356 74.762721 140.452126 68.004959 140.452126 60.930575 C 140.452126 55.146309 140.537188 49.362043 140.702588 43.582502 C 140.867988 37.779333 141.170433 32.141564 141.605198 26.669194 C 142.876414 26.669194 144.549314 26.74008 146.633351 26.886577 C 148.731565 27.009445 150.86286 27.137039 153.027234 27.259908 C 155.210511 27.387502 157.105519 27.51037 158.707534 27.637964 C 160.328452 27.760833 161.316125 27.822267 161.670553 27.822267 L 161.921015 28.228678 L 178.801243 66.298979 L 180.705703 70.136253 C 180.790766 61.190489 180.871103 54.116104 180.956166 48.917826 C 181.036503 43.714822 181.079034 39.849193 181.079034 37.306762 C 181.079034 34.750154 181.079034 32.98274 181.079034 32.004518 C 181.079034 31.007394 181.079034 30.256006 181.079034 29.759807 L 181.079034 28.852471 C 181.598862 28.852471 182.860626 28.913905 184.854875 29.0415 C 186.853849 29.164368 189.004046 29.301414 191.314917 29.44791 C 193.625788 29.570779 195.369574 29.674744 196.555727 29.759807 C 196.555727 30.525372 196.536824 32.151015 196.494293 34.627286 C 196.451761 37.079928 196.432858 40.057124 196.432858 43.549422 C 196.432858 47.046446 196.432858 50.718321 196.432858 54.565047 C 196.432858 58.39287 196.432858 62.055293 196.432858 65.547591 C 196.432858 69.044615 196.40923 72.050165 196.371424 74.564241 C 196.328893 77.064141 196.305264 78.737041 196.305264 79.587669 C 196.305264 80.277622 196.305264 81.430695 196.305264 83.051612 C 196.305264 84.677256 196.305264 86.425768 196.305264 88.297148 C 196.305264 90.168528 196.286362 91.893411 196.24383 93.476524 C 196.201299 95.036007 196.182396 96.198531 196.182396 96.968822 C 192.770435 96.888484 189.382103 96.845953 186.007947 96.845953 C 182.638518 96.845953 179.250185 96.845953 175.838225 96.845953 C 175.0065 94.454745 174.392158 92.706233 173.995199 91.605143 C 173.621868 90.499328 173.257988 89.606169 172.90356 88.920941 C 172.572761 88.230988 172.081287 87.380361 171.438591 86.359608 C 170.791169 85.343581 169.836576 83.76992 168.56536 81.648077 C 167.298871 79.507332 165.427491 76.440347 162.95122 72.442399 C 160.640349 68.595673 158.466523 64.758398 156.429743 60.930575 L 156.552612 79.715263 L 155.650001 97.375232 C 155.068739 97.375232 153.882587 97.398861 152.091544 97.436667 C 150.305226 97.479198 148.4622 97.521729 146.567191 97.564261 C 144.695811 97.606792 143.334807 97.710758 142.479454 97.876157 C 142.233717 97.876157 141.950175 97.876157 141.638278 97.876157 C 141.345284 97.876157 141.075919 97.918689 140.825456 97.999026 Z M 231.185713 97.999026 L 228.501511 97.502826 C 227.315358 97.313798 225.689715 96.99245 223.634032 96.534056 C 221.592526 96.05676 219.442329 95.565286 217.173989 95.069087 C 214.924553 94.544533 212.80271 94.038883 210.808461 93.537958 C 208.809487 93.01813 207.207472 92.630622 206.002417 92.384885 C 205.751954 92.299822 205.49204 92.21476 205.222675 92.134423 C 204.972212 92.030457 204.72175 91.935943 204.471287 91.85088 C 204.471287 91.520081 204.452384 91.104218 204.409853 90.603293 C 204.367322 90.083465 204.348419 89.015456 204.348419 87.389812 C 204.348419 85.768894 204.305887 83.169755 204.22555 79.587669 C 210.194119 79.422269 214.730799 79.299401 217.826137 79.214338 C 220.94983 79.134001 223.123655 79.067841 224.347614 79.030035 C 225.576298 78.987504 226.379668 78.963875 226.752999 78.963875 C 227.149958 78.963875 227.565821 78.92607 228.000586 78.841007 L 228.373917 73.723066 L 228.251048 73.193786 L 214.456708 60.179187 L 209.589229 54.938378 L 207.032621 51.724896 L 206.905027 51.602028 L 207.155489 47.514291 C 207.675317 45.97371 208.105356 44.423678 208.436156 42.864194 C 208.766955 41.281082 209.069401 39.679068 209.338766 38.05815 C 209.508892 37.202797 209.735726 35.865421 210.028719 34.031847 C 210.340616 32.202998 210.661964 30.393052 210.992764 28.602009 C 211.328289 26.815691 211.53622 25.577556 211.616557 24.887603 L 213.180766 14.656445 L 247.815478 7.634044 C 248.481803 9.505424 249.115048 11.617815 249.719938 13.966492 C 250.320103 16.319895 250.873011 18.597686 251.373936 20.804591 C 250.518583 21.135391 249.852258 21.414207 249.374961 21.645767 C 248.916568 21.853698 248.240792 22.217578 247.347633 22.737406 C 246.454474 23.238331 244.932796 24.174021 242.792051 25.544476 C 240.670208 26.896028 237.485081 28.895003 233.241395 31.536673 C 232.97203 32.722826 232.537265 34.187795 231.932374 35.936307 C 231.351112 37.684819 230.779302 39.367171 230.216943 40.992814 C 229.673486 42.613732 229.186738 43.974736 228.751973 45.080551 C 229.271801 45.349917 230.401245 46.120207 232.149757 47.386697 C 233.898269 48.657912 235.97758 50.184316 238.392417 51.975359 C 240.826156 53.761676 243.32133 55.55272 245.882663 57.343763 C 248.439271 59.13008 250.735965 60.713192 252.777471 62.083648 L 254.837879 63.241446 C 253.732064 67.669434 252.753842 72.102148 251.903215 76.530136 C 251.047862 80.96285 250.154703 85.433369 249.219013 89.951146 C 247.848558 90.721436 246.005532 91.590966 243.694661 92.569188 C 241.407418 93.547409 239.110724 94.506728 236.799853 95.442418 C 234.512611 96.378108 232.641231 97.228735 231.185713 97.999026 Z M 231.185713 97.999026 " stroke="#f1f1f1" stroke-width="9.586125" stroke-opacity="1" stroke-miterlimit="4"/><g fill="#000000" fill-opacity="1"><g transform="translate(47.754429, 136.383618)"><g><path d="M 40.78125 3.90625 C 39.71875 0.664062 38.882812 -1.757812 38.28125 -3.375 C 37.6875 -5 37.25 -6.179688 36.96875 -6.921875 C 36.6875 -7.660156 36.441406 -8.257812 36.234375 -8.71875 C 36.023438 -9.175781 35.742188 -9.773438 35.390625 -10.515625 C 35.035156 -11.253906 34.523438 -12.445312 33.859375 -14.09375 C 33.191406 -15.75 32.222656 -18.164062 30.953125 -21.34375 C 30.953125 -21.40625 30.914062 -21.4375 30.84375 -21.4375 C 29.507812 -21.019531 28.117188 -20.648438 26.671875 -20.328125 C 25.234375 -20.015625 23.804688 -19.71875 22.390625 -19.4375 C 22.328125 -16.195312 22.148438 -12.9375 21.859375 -9.65625 C 21.578125 -6.382812 21.265625 -3.09375 20.921875 0.21875 C 20.847656 0.144531 20.722656 0.109375 20.546875 0.109375 C 20.367188 0.109375 20.210938 0.0703125 20.078125 0 C 19.515625 -0.144531 18.6875 -0.234375 17.59375 -0.265625 C 16.5 -0.296875 15.351562 -0.3125 14.15625 -0.3125 C 12.320312 -0.3125 10.960938 -0.273438 10.078125 -0.203125 C 9.203125 -0.140625 8.34375 -0.00390625 7.5 0.203125 C 6.65625 0.421875 5.316406 0.707031 3.484375 1.0625 L 3.171875 -4.4375 C 3.378906 -9.363281 3.535156 -14.785156 3.640625 -20.703125 C 3.742188 -26.617188 3.796875 -32.359375 3.796875 -37.921875 C 3.796875 -38.765625 3.78125 -40.171875 3.75 -42.140625 C 3.71875 -44.117188 3.679688 -46.335938 3.640625 -48.796875 C 3.609375 -51.265625 3.570312 -53.710938 3.53125 -56.140625 C 3.5 -58.578125 3.460938 -60.675781 3.421875 -62.4375 C 3.390625 -64.195312 3.375 -65.359375 3.375 -65.921875 L 6.859375 -66.546875 L 26.9375 -69.09375 C 28.84375 -69.226562 30.757812 -69.191406 32.6875 -68.984375 C 34.625 -68.773438 36.546875 -68.5625 38.453125 -68.34375 C 41.617188 -68 44.363281 -67.101562 46.6875 -65.65625 C 49.007812 -64.207031 50.925781 -62.441406 52.4375 -60.359375 C 53.957031 -58.285156 55.101562 -56.140625 55.875 -53.921875 C 56.65625 -51.710938 57.082031 -49.691406 57.15625 -47.859375 L 52.296875 -35.5 C 50.816406 -33.875 49.125 -32.460938 47.21875 -31.265625 C 48.976562 -25.285156 50.40625 -20.476562 51.5 -16.84375 C 52.59375 -13.21875 53.453125 -10.421875 54.078125 -8.453125 C 54.710938 -6.484375 55.207031 -4.96875 55.5625 -3.90625 C 55.914062 -2.851562 56.195312 -1.867188 56.40625 -0.953125 C 55.28125 -0.523438 53.695312 -0.0507812 51.65625 0.46875 C 49.613281 1 47.601562 1.53125 45.625 2.0625 C 43.65625 2.59375 42.109375 3.171875 40.984375 3.796875 C 40.921875 3.796875 40.890625 3.8125 40.890625 3.84375 C 40.890625 3.882812 40.851562 3.90625 40.78125 3.90625 Z M 21.546875 -32.53125 C 23.804688 -33.664062 26.148438 -34.707031 28.578125 -35.65625 C 31.003906 -36.601562 33.414062 -37.570312 35.8125 -38.5625 C 36.65625 -39.6875 37.425781 -40.847656 38.125 -42.046875 C 38.832031 -43.242188 39.46875 -44.476562 40.03125 -45.75 C 39.332031 -46.726562 38.613281 -47.726562 37.875 -48.75 C 37.132812 -49.769531 36.375 -50.773438 35.59375 -51.765625 C 35.101562 -51.691406 34.347656 -51.617188 33.328125 -51.546875 C 32.304688 -51.484375 31.300781 -51.453125 30.3125 -51.453125 C 28.550781 -51.453125 26.703125 -51.46875 24.765625 -51.5 C 22.835938 -51.53125 21.164062 -51.582031 19.75 -51.65625 C 19.894531 -50.882812 20.140625 -48.753906 20.484375 -45.265625 C 20.835938 -41.773438 21.191406 -37.53125 21.546875 -32.53125 Z M 21.546875 -32.53125 "/></g></g></g><g fill="#000000" fill-opacity="1"><g transform="translate(108.072801, 136.383618)"><g><path d="M 24.1875 -0.109375 L 19.859375 -0.53125 L 14.15625 -0.734375 L 11.40625 -2.109375 L 8.34375 -5.171875 L 6.96875 -7.390625 L 5.171875 -14.46875 L 5.171875 -14.578125 C 4.679688 -17.460938 4.3125 -19.890625 4.0625 -21.859375 C 3.820312 -23.835938 3.628906 -25.597656 3.484375 -27.140625 C 3.347656 -28.691406 3.257812 -30.242188 3.21875 -31.796875 C 3.1875 -33.347656 3.171875 -35.144531 3.171875 -37.1875 C 3.171875 -38.101562 3.1875 -39.210938 3.21875 -40.515625 C 3.257812 -41.816406 3.347656 -43.609375 3.484375 -45.890625 C 3.628906 -48.179688 3.769531 -51.160156 3.90625 -54.828125 L 3.90625 -54.9375 C 3.976562 -55.070312 4.015625 -55.191406 4.015625 -55.296875 C 4.015625 -55.410156 4.050781 -55.5 4.125 -55.5625 L 4.125 -55.671875 C 5.320312 -55.597656 6.515625 -55.507812 7.703125 -55.40625 C 8.898438 -55.300781 10.066406 -55.210938 11.203125 -55.140625 C 12.960938 -55.066406 14.6875 -54.976562 16.375 -54.875 C 18.0625 -54.769531 19.785156 -54.679688 21.546875 -54.609375 L 21.546875 -54.515625 C 21.472656 -54.441406 21.4375 -54.316406 21.4375 -54.140625 C 21.4375 -53.960938 21.4375 -53.910156 21.4375 -53.984375 L 21.125 -42.890625 C 21.050781 -40.492188 20.976562 -38.082031 20.90625 -35.65625 C 20.84375 -33.226562 20.671875 -30.78125 20.390625 -28.3125 C 20.179688 -26.34375 19.96875 -24.441406 19.75 -22.609375 C 19.539062 -20.773438 19.332031 -18.453125 19.125 -15.640625 L 22.921875 -10.359375 C 24.960938 -10.359375 26.972656 -10.460938 28.953125 -10.671875 L 32.859375 -11.296875 L 34.546875 -16.0625 L 34.65625 -16.90625 L 35.28125 -22.921875 L 35.171875 -38.671875 L 33.8125 -46.796875 C 33.8125 -47.859375 33.773438 -48.914062 33.703125 -49.96875 C 33.628906 -51.019531 33.519531 -52.039062 33.375 -53.03125 L 36.453125 -53.671875 C 38.492188 -54.015625 40.253906 -54.253906 41.734375 -54.390625 C 43.210938 -54.535156 44.898438 -54.609375 46.796875 -54.609375 L 47.4375 -50.390625 C 47.78125 -47.992188 48.003906 -46.335938 48.109375 -45.421875 C 48.222656 -44.503906 48.28125 -43.972656 48.28125 -43.828125 C 48.28125 -43.691406 48.28125 -43.640625 48.28125 -43.671875 C 48.28125 -43.710938 48.296875 -43.46875 48.328125 -42.9375 C 48.367188 -42.414062 48.492188 -41.238281 48.703125 -39.40625 C 48.910156 -36.519531 49.082031 -33.597656 49.21875 -30.640625 C 49.363281 -27.679688 49.4375 -24.722656 49.4375 -21.765625 C 49.4375 -21.765625 49.273438 -21.128906 48.953125 -19.859375 C 48.640625 -18.585938 48.289062 -17.140625 47.90625 -15.515625 C 47.519531 -13.898438 47.148438 -12.53125 46.796875 -11.40625 L 45.953125 -8.765625 C 44.679688 -7.210938 43.800781 -6.117188 43.3125 -5.484375 C 42.820312 -4.859375 42.414062 -4.40625 42.09375 -4.125 C 41.78125 -3.84375 41.285156 -3.539062 40.609375 -3.21875 C 39.941406 -2.90625 38.800781 -2.289062 37.1875 -1.375 C 34.363281 -1.164062 31.945312 -0.972656 29.9375 -0.796875 C 27.9375 -0.617188 26.019531 -0.390625 24.1875 -0.109375 Z M 24.1875 -0.109375 "/></g></g></g><g fill="#000000" fill-opacity="1"><g transform="translate(160.679715, 136.383618)"><g><path d="M 3.484375 0 C 3.484375 -3.945312 3.429688 -8.578125 3.328125 -13.890625 C 3.222656 -19.210938 3.171875 -24.796875 3.171875 -30.640625 C 3.171875 -35.421875 3.238281 -40.207031 3.375 -45 C 3.519531 -49.789062 3.769531 -54.441406 4.125 -58.953125 C 5.175781 -58.953125 6.5625 -58.894531 8.28125 -58.78125 C 10.007812 -58.675781 11.769531 -58.570312 13.5625 -58.46875 C 15.363281 -58.363281 16.929688 -58.257812 18.265625 -58.15625 C 19.609375 -58.050781 20.421875 -58 20.703125 -58 L 20.921875 -57.6875 L 34.859375 -26.203125 L 36.453125 -23.03125 C 36.515625 -30.425781 36.582031 -36.269531 36.65625 -40.5625 C 36.726562 -44.863281 36.765625 -48.066406 36.765625 -50.171875 C 36.765625 -52.285156 36.765625 -53.75 36.765625 -54.5625 C 36.765625 -55.375 36.765625 -55.988281 36.765625 -56.40625 L 36.765625 -57.15625 C 37.179688 -57.15625 38.21875 -57.097656 39.875 -56.984375 C 41.53125 -56.878906 43.304688 -56.773438 45.203125 -56.671875 C 47.109375 -56.566406 48.554688 -56.476562 49.546875 -56.40625 C 49.546875 -55.78125 49.523438 -54.441406 49.484375 -52.390625 C 49.453125 -50.347656 49.4375 -47.882812 49.4375 -45 C 49.4375 -42.113281 49.4375 -39.082031 49.4375 -35.90625 C 49.4375 -32.738281 49.4375 -29.710938 49.4375 -26.828125 C 49.4375 -23.941406 49.414062 -21.457031 49.375 -19.375 C 49.34375 -17.300781 49.328125 -15.914062 49.328125 -15.21875 C 49.328125 -14.644531 49.328125 -13.691406 49.328125 -12.359375 C 49.328125 -11.023438 49.328125 -9.582031 49.328125 -8.03125 C 49.328125 -6.476562 49.3125 -5.050781 49.28125 -3.75 C 49.25 -2.445312 49.234375 -1.476562 49.234375 -0.84375 C 46.410156 -0.914062 43.609375 -0.953125 40.828125 -0.953125 C 38.046875 -0.953125 35.25 -0.953125 32.4375 -0.953125 C 31.726562 -2.921875 31.210938 -4.363281 30.890625 -5.28125 C 30.578125 -6.195312 30.28125 -6.9375 30 -7.5 C 29.71875 -8.0625 29.3125 -8.765625 28.78125 -9.609375 C 28.257812 -10.453125 27.46875 -11.753906 26.40625 -13.515625 C 25.351562 -15.273438 23.804688 -17.8125 21.765625 -21.125 C 19.859375 -24.289062 18.0625 -27.460938 16.375 -30.640625 L 16.484375 -15.109375 L 15.734375 -0.53125 C 15.242188 -0.53125 14.257812 -0.507812 12.78125 -0.46875 C 11.300781 -0.4375 9.785156 -0.398438 8.234375 -0.359375 C 6.691406 -0.328125 5.566406 -0.242188 4.859375 -0.109375 C 4.648438 -0.109375 4.421875 -0.109375 4.171875 -0.109375 C 3.921875 -0.109375 3.691406 -0.0703125 3.484375 0 Z M 3.484375 0 "/></g></g></g><g fill="#000000" fill-opacity="1"><g transform="translate(213.392261, 136.383618)"><g><path d="M 25.453125 0 L 23.234375 -0.421875 C 22.253906 -0.566406 20.914062 -0.832031 19.21875 -1.21875 C 17.53125 -1.601562 15.753906 -2.003906 13.890625 -2.421875 C 12.023438 -2.847656 10.265625 -3.269531 8.609375 -3.6875 C 6.953125 -4.113281 5.628906 -4.429688 4.640625 -4.640625 C 4.429688 -4.710938 4.222656 -4.785156 4.015625 -4.859375 C 3.804688 -4.929688 3.59375 -5.003906 3.375 -5.078125 C 3.375 -5.359375 3.359375 -5.707031 3.328125 -6.125 C 3.296875 -6.550781 3.28125 -7.429688 3.28125 -8.765625 C 3.28125 -10.109375 3.242188 -12.257812 3.171875 -15.21875 C 8.097656 -15.351562 11.847656 -15.457031 14.421875 -15.53125 C 16.992188 -15.601562 18.789062 -15.65625 19.8125 -15.6875 C 20.832031 -15.71875 21.5 -15.734375 21.8125 -15.734375 C 22.132812 -15.734375 22.46875 -15.769531 22.8125 -15.84375 L 23.140625 -20.078125 L 23.03125 -20.5 L 11.625 -31.265625 L 7.609375 -35.59375 L 5.5 -38.234375 L 5.390625 -38.34375 L 5.59375 -41.734375 C 6.019531 -42.992188 6.375 -44.273438 6.65625 -45.578125 C 6.9375 -46.878906 7.179688 -48.203125 7.390625 -49.546875 C 7.535156 -50.253906 7.726562 -51.363281 7.96875 -52.875 C 8.21875 -54.382812 8.484375 -55.878906 8.765625 -57.359375 C 9.046875 -58.835938 9.222656 -59.859375 9.296875 -60.421875 L 10.5625 -68.875 L 39.1875 -74.6875 C 39.75 -73.132812 40.273438 -71.390625 40.765625 -69.453125 C 41.265625 -67.515625 41.726562 -65.632812 42.15625 -63.8125 C 41.445312 -63.53125 40.898438 -63.300781 40.515625 -63.125 C 40.128906 -62.945312 39.566406 -62.644531 38.828125 -62.21875 C 38.085938 -61.800781 36.835938 -61.023438 35.078125 -59.890625 C 33.316406 -58.765625 30.675781 -57.113281 27.15625 -54.9375 C 26.9375 -53.945312 26.582031 -52.726562 26.09375 -51.28125 C 25.601562 -49.84375 25.128906 -48.453125 24.671875 -47.109375 C 24.210938 -45.773438 23.804688 -44.648438 23.453125 -43.734375 C 23.878906 -43.523438 24.8125 -42.890625 26.25 -41.828125 C 27.695312 -40.773438 29.421875 -39.507812 31.421875 -38.03125 C 33.429688 -36.550781 35.492188 -35.070312 37.609375 -33.59375 C 39.722656 -32.113281 41.625 -30.8125 43.3125 -29.6875 L 45 -28.734375 C 44.082031 -25.066406 43.269531 -21.398438 42.5625 -17.734375 C 41.863281 -14.078125 41.128906 -10.382812 40.359375 -6.65625 C 39.234375 -6.019531 37.71875 -5.296875 35.8125 -4.484375 C 33.90625 -3.679688 32 -2.890625 30.09375 -2.109375 C 28.195312 -1.335938 26.648438 -0.632812 25.453125 0 Z M 25.453125 0 "/></g></g></g><g fill="#f1f1f1" fill-opacity="1"><g transform="translate(148.708516, 254.775348)"><g><path d="M 14.625 0 L 6.203125 -4.34375 L 4.171875 -9.125 L 2.65625 -38.546875 L 4.171875 -43.421875 L 9.125 -48.109375 C 13.144531 -48.523438 16.675781 -48.925781 19.71875 -49.3125 C 22.757812 -49.695312 26.082031 -49.976562 29.6875 -50.15625 L 36.421875 -46.703125 C 36.648438 -46.285156 36.898438 -45.867188 37.171875 -45.453125 C 37.441406 -45.046875 37.691406 -44.601562 37.921875 -44.125 L 41.203125 -38.8125 C 41.554688 -36.09375 41.847656 -33.769531 42.078125 -31.84375 C 42.316406 -29.925781 42.507812 -28.15625 42.65625 -26.53125 C 42.8125 -24.914062 42.929688 -23.160156 43.015625 -21.265625 C 43.109375 -19.378906 43.210938 -17.132812 43.328125 -14.53125 L 43.5 -9.75 L 41.109375 -3.71875 L 38.453125 -2.21875 C 37.628906 -2.09375 36.179688 -1.941406 34.109375 -1.765625 C 32.046875 -1.585938 29.742188 -1.410156 27.203125 -1.234375 C 24.660156 -1.054688 22.238281 -0.847656 19.9375 -0.609375 C 17.632812 -0.378906 15.863281 -0.175781 14.625 0 Z M 16.5625 -11.515625 L 22.234375 -12.140625 L 26.5 -12.765625 L 30.296875 -13.46875 L 30.125 -15.328125 C 29.125 -26.078125 28.679688 -32.691406 28.796875 -35.171875 L 28.796875 -35.4375 C 28.796875 -35.5 28.644531 -35.707031 28.34375 -36.0625 C 28.050781 -36.414062 27.757812 -36.785156 27.46875 -37.171875 C 27.175781 -37.554688 27.03125 -37.75 27.03125 -37.75 L 15.15625 -34.46875 L 15.0625 -34.375 L 14.890625 -29.328125 C 14.890625 -28.796875 14.945312 -27.71875 15.0625 -26.09375 C 15.175781 -24.46875 15.304688 -22.648438 15.453125 -20.640625 C 15.609375 -18.640625 15.757812 -16.828125 15.90625 -15.203125 C 16.050781 -13.578125 16.210938 -12.523438 16.390625 -12.046875 C 16.453125 -11.992188 16.484375 -11.921875 16.484375 -11.828125 C 16.484375 -11.742188 16.507812 -11.640625 16.5625 -11.515625 Z M 16.5625 -11.515625 "/></g></g></g><g fill="#f1f1f1" fill-opacity="1"><g transform="translate(194.867786, 254.775348)"><g><path d="M 2.921875 0 C 2.921875 -3.3125 2.875 -7.195312 2.78125 -11.65625 C 2.695312 -16.113281 2.65625 -20.796875 2.65625 -25.703125 C 2.65625 -29.710938 2.710938 -33.722656 2.828125 -37.734375 C 2.953125 -41.753906 3.160156 -45.65625 3.453125 -49.4375 C 4.335938 -49.4375 5.503906 -49.390625 6.953125 -49.296875 C 8.398438 -49.210938 9.875 -49.125 11.375 -49.03125 C 12.882812 -48.945312 14.203125 -48.859375 15.328125 -48.765625 C 16.453125 -48.679688 17.132812 -48.640625 17.375 -48.640625 L 17.546875 -48.375 L 29.234375 -21.96875 L 30.5625 -19.3125 C 30.625 -25.519531 30.6875 -30.425781 30.75 -34.03125 C 30.8125 -37.632812 30.84375 -40.320312 30.84375 -42.09375 C 30.84375 -43.863281 30.84375 -45.085938 30.84375 -45.765625 C 30.84375 -46.441406 30.84375 -46.957031 30.84375 -47.3125 L 30.84375 -47.9375 C 31.195312 -47.9375 32.066406 -47.890625 33.453125 -47.796875 C 34.835938 -47.710938 36.328125 -47.625 37.921875 -47.53125 C 39.515625 -47.445312 40.726562 -47.375 41.5625 -47.3125 C 41.5625 -46.78125 41.546875 -45.65625 41.515625 -43.9375 C 41.484375 -42.226562 41.46875 -40.160156 41.46875 -37.734375 C 41.46875 -35.316406 41.46875 -32.78125 41.46875 -30.125 C 41.46875 -27.46875 41.46875 -24.925781 41.46875 -22.5 C 41.46875 -20.082031 41.453125 -18 41.421875 -16.25 C 41.390625 -14.507812 41.375 -13.347656 41.375 -12.765625 C 41.375 -12.285156 41.375 -11.484375 41.375 -10.359375 C 41.375 -9.242188 41.375 -8.035156 41.375 -6.734375 C 41.375 -5.429688 41.359375 -4.234375 41.328125 -3.140625 C 41.304688 -2.046875 41.296875 -1.234375 41.296875 -0.703125 C 38.929688 -0.765625 36.582031 -0.796875 34.25 -0.796875 C 31.914062 -0.796875 29.566406 -0.796875 27.203125 -0.796875 C 26.609375 -2.453125 26.175781 -3.660156 25.90625 -4.421875 C 25.644531 -5.191406 25.394531 -5.8125 25.15625 -6.28125 C 24.925781 -6.757812 24.585938 -7.351562 24.140625 -8.0625 C 23.703125 -8.769531 23.039062 -9.863281 22.15625 -11.34375 C 21.269531 -12.820312 19.96875 -14.945312 18.25 -17.71875 C 16.65625 -20.375 15.148438 -23.035156 13.734375 -25.703125 L 13.828125 -12.671875 L 13.203125 -0.4375 C 12.785156 -0.4375 11.957031 -0.421875 10.71875 -0.390625 C 9.476562 -0.367188 8.207031 -0.34375 6.90625 -0.3125 C 5.613281 -0.28125 4.671875 -0.207031 4.078125 -0.09375 C 3.898438 -0.09375 3.707031 -0.09375 3.5 -0.09375 C 3.289062 -0.09375 3.097656 -0.0625 2.921875 0 Z M 2.921875 0 "/></g></g></g></svg>