<?xml version="1.0" encoding="UTF-8" standalone="no"?>
<!DOCTYPE svg PUBLIC "-//W3C//DTD SVG 1.1//EN" "http://www.w3.org/Graphics/SVG/1.1/DTD/svg11.dtd">
<svg width="100%" height="100%" viewBox="0 0 3152 1578" version="1.1" xmlns="http://www.w3.org/2000/svg" xmlns:xlink="http://www.w3.org/1999/xlink" xml:space="preserve" xmlns:serif="http://www.serif.com/" style="fill-rule:evenodd;clip-rule:evenodd;stroke-linejoin:round;stroke-miterlimit:2;">
    <g id="Wide-Logo" serif:id="Wide Logo" transform="matrix(0.449158,0,0,0.4,0,0)">
        <rect x="0" y="0" width="7015.75" height="3944.88" style="fill:none;"/>
        <g transform="matrix(6.12978,0,0,6.8831,-6346.37,-1988.3)">
            <path d="M1919.27,440.724C1918.25,438.955 1918.25,436.776 1919.27,435.007C1920.29,433.238 1922.18,432.148 1924.22,432.148L1948.93,432.148C1953.01,432.148 1956.79,434.327 1958.83,437.865L2034.84,569.52C2036.88,573.058 2036.88,577.417 2034.84,580.955L1958.83,712.609C1956.79,716.147 1953.01,718.326 1948.93,718.326L1924.22,718.326C1922.18,718.326 1920.29,717.237 1919.27,715.468C1918.25,713.699 1918.25,711.519 1919.27,709.75L1995.28,578.096C1996.3,576.327 1996.3,574.147 1995.28,572.378L1919.27,440.724Z" style="fill:rgb(237,22,81);"/>
        </g>
        <g transform="matrix(6.12978,0,0,6.8831,-8883.03,-1988.3)">
            <path d="M1598.16,718.326C1596.64,718.326 1595.19,717.724 1594.12,716.652C1593.05,715.58 1592.44,714.125 1592.44,712.609L1592.44,443.583C1592.44,437.267 1597.56,432.148 1603.88,432.148L1768.89,432.148C1772.97,432.148 1776.75,434.327 1778.79,437.865L1792.79,462.119C1794.84,465.657 1794.84,470.016 1792.79,473.554L1735.74,572.378C1734.72,574.147 1734.72,576.327 1735.74,578.096L1811.75,709.75C1812.77,711.519 1812.77,713.699 1811.75,715.468C1810.73,717.237 1808.84,718.326 1806.8,718.326L1782.09,718.326C1778.01,718.326 1774.23,716.147 1772.19,712.609L1696.18,580.955C1694.13,577.417 1694.13,573.058 1696.18,569.52L1749.93,476.413C1750.95,474.644 1750.95,472.465 1749.93,470.696C1748.91,468.927 1747.02,467.837 1744.98,467.837L1633.85,467.837C1632.33,467.837 1630.88,468.439 1629.81,469.512C1628.73,470.584 1628.13,472.038 1628.13,473.554L1628.13,712.609C1628.13,714.125 1627.53,715.58 1626.46,716.652C1625.38,717.724 1623.93,718.326 1622.41,718.326L1598.16,718.326Z" style="fill:rgb(237,22,81);"/>
        </g>
        <g transform="matrix(6.09125,0,0,6.83984,-150535,-128889)">
            <g>
                <path d="M25082.2,19181.6L25082.2,19082.4L25125.3,19082.4C25131.5,19082.4 25137,19083.4 25141.6,19085.6C25146.2,19087.8 25149.8,19090.9 25152.4,19094.8C25154.9,19098.8 25156.2,19103.5 25156.2,19108.9L25156.2,19110.6C25156.2,19116.5 25154.8,19121.3 25151.9,19125C25149.1,19128.7 25145.6,19131.4 25141.4,19133.1L25141.4,19135.6C25145.2,19135.8 25148.2,19137.1 25150.2,19139.5C25152.3,19142 25153.4,19145.1 25153.4,19149.1L25153.4,19181.6L25134.6,19181.6L25134.6,19151.8C25134.6,19149.5 25134.1,19147.7 25132.9,19146.3C25131.7,19144.9 25129.7,19144.2 25127,19144.2L25100.9,19144.2L25100.9,19181.6L25082.2,19181.6ZM25100.9,19127.1L25123.3,19127.1C25127.7,19127.1 25131.2,19125.9 25133.7,19123.5C25136.2,19121.1 25137.5,19117.9 25137.5,19114L25137.5,19112.5C25137.5,19108.6 25136.3,19105.4 25133.8,19103C25131.3,19100.6 25127.8,19099.4 25123.3,19099.4L25100.9,19099.4L25100.9,19127.1Z" style="fill:rgb(237,22,81);fill-rule:nonzero;"/>
                <path d="M25164.7,19181.6L25164.7,19082.4L25228.5,19082.4L25228.5,19099.4L25183.4,19099.4L25183.4,19123L25224.5,19123L25224.5,19140L25183.4,19140L25183.4,19164.6L25229.3,19164.6L25229.3,19181.6L25164.7,19181.6Z" style="fill:rgb(237,22,81);fill-rule:nonzero;"/>
                <path d="M25237.5,19181.6L25237.5,19165.1L25250.6,19165.1L25250.6,19098.8L25237.5,19098.8L25237.5,19082.4L25278.4,19082.4C25291.7,19082.4 25301.8,19085.7 25308.8,19092.5C25315.7,19099.2 25319.2,19109.3 25319.2,19122.6L25319.2,19141.3C25319.2,19154.6 25315.7,19164.7 25308.8,19171.4C25301.8,19178.2 25291.7,19181.6 25278.4,19181.6L25237.5,19181.6ZM25269.3,19164.6L25278.6,19164.6C25286.2,19164.6 25291.7,19162.6 25295.2,19158.6C25298.7,19154.6 25300.5,19149.1 25300.5,19141.9L25300.5,19122C25300.5,19114.8 25298.7,19109.2 25295.2,19105.2C25291.7,19101.3 25286.2,19099.4 25278.6,19099.4L25269.3,19099.4L25269.3,19164.6Z" style="fill:rgb(237,22,81);fill-rule:nonzero;"/>
                <g transform="matrix(1,0,0,1,13.7315,0)">
                    <path d="M25366.4,19183.6C25358.7,19183.6 25352,19182.2 25346.1,19179.4C25340.2,19176.7 25335.7,19172.8 25332.4,19167.7C25329,19162.6 25327.4,19156.4 25327.4,19149.3L25327.4,19145.3L25345.8,19145.3L25345.8,19149.3C25345.8,19155.2 25347.7,19159.7 25351.3,19162.6C25355,19165.6 25360,19167.1 25366.4,19167.1C25372.8,19167.1 25377.6,19165.8 25380.8,19163.3C25383.9,19160.7 25385.5,19157.5 25385.5,19153.5C25385.5,19150.8 25384.7,19148.5 25383.2,19146.8C25381.6,19145.1 25379.3,19143.7 25376.4,19142.7C25373.4,19141.6 25369.8,19140.6 25365.5,19139.6L25362.3,19138.9C25355.5,19137.4 25349.6,19135.5 25344.8,19133.2C25339.9,19130.9 25336.2,19127.8 25333.6,19124C25331,19120.2 25329.7,19115.3 25329.7,19109.3C25329.7,19103.2 25331.1,19098.1 25334,19093.8C25336.9,19089.5 25340.9,19086.2 25346.2,19083.8C25351.4,19081.5 25357.6,19080.4 25364.7,19080.4C25371.8,19080.4 25378.1,19081.6 25383.6,19084C25389.1,19086.4 25393.5,19090 25396.6,19094.8C25399.8,19099.5 25401.4,19105.5 25401.4,19112.7L25401.4,19116.9L25383,19116.9L25383,19112.7C25383,19108.9 25382.2,19105.9 25380.8,19103.5C25379.3,19101.2 25377.2,19099.5 25374.5,19098.4C25371.7,19097.4 25368.5,19096.8 25364.7,19096.8C25359,19096.8 25354.8,19097.9 25352.1,19100C25349.4,19102.1 25348.1,19105 25348.1,19108.7C25348.1,19111.2 25348.7,19113.3 25350,19115C25351.3,19116.7 25353.2,19118.1 25355.7,19119.2C25358.3,19120.3 25361.6,19121.3 25365.5,19122.2L25368.8,19122.9C25375.9,19124.4 25382,19126.3 25387.3,19128.7C25392.5,19131.1 25396.6,19134.2 25399.5,19138.1C25402.5,19141.9 25403.9,19146.9 25403.9,19152.9C25403.9,19159 25402.4,19164.3 25399.3,19168.9C25396.3,19173.5 25391.9,19177.1 25386.3,19179.7C25380.7,19182.3 25374,19183.6 25366.4,19183.6Z" style="fill:rgb(237,22,81);fill-rule:nonzero;"/>
                </g>
                <g transform="matrix(1,0,0,1,13.7315,0)">
                    <rect x="25413.6" y="19082.4" width="18.708" height="99.21" style="fill:rgb(237,22,81);fill-rule:nonzero;"/>
                </g>
                <g transform="matrix(1,0,0,1,13.7315,0)">
                    <path d="M25446.7,19181.6L25446.7,19082.4L25509.1,19082.4L25509.1,19099.4L25465.4,19099.4L25465.4,19123.3L25505.7,19123.3L25505.7,19140.3L25465.4,19140.3L25465.4,19181.6L25446.7,19181.6Z" style="fill:rgb(237,22,81);fill-rule:nonzero;"/>
                </g>
                <g transform="matrix(1,0,0,1,13.7315,0)">
                    <path d="M25544,19181.6L25544,19099.4L25515,19099.4L25515,19082.4L25591.6,19082.4L25591.6,19099.4L25562.7,19099.4L25562.7,19181.6L25544,19181.6Z" style="fill:rgb(237,22,81);fill-rule:nonzero;"/>
                </g>
            </g>
        </g>
    </g>
</svg>
