<?xml version="1.0" encoding="utf-8"?>
<!-- Generator: Adobe Illustrator 26.1.0, SVG Export Plug-In . SVG Version: 6.00 Build 0)  -->
<svg version="1.1" id="Artwork" xmlns="http://www.w3.org/2000/svg" xmlns:xlink="http://www.w3.org/1999/xlink" x="0px" y="0px"
	 viewBox="0 0 1005.6 468.5" style="enable-background:new 0 0 1005.6 468.5;" xml:space="preserve">
<style type="text/css">
	.st0{fill:#0D1525;}
	.st1{fill:#F5640C;}
</style>
<g>
	<path class="st0" d="M405.5,198.5L401,203h-4.5l-1.4-5.7c-0.3-1.4-1.6-2.3-3.1-2.3h-28.8c-1.8,0-3.2,1.4-3.2,3v9.9
		c0,1.7,1.4,3,3.2,3h17v46.4h-19.8c-1.8,0-3.2,1.4-3.2,3v9.9c0,1.7,1.4,3,3.2,3h62.3c1.8,0,3.2-1.4,3.2-3v-9.9c0-1.7-1.4-3-3.2-3
		h-22.9v-32.8c0-9.2,5.4-14,16-14h17.2c1.8,0,3.2-1.4,3.2-3v-10.9c0-1.7-1.4-3-3.2-3h-10.2C415.3,193.5,409.4,194.9,405.5,198.5"/>
	<path class="st0" d="M483.2,193.5c-25.2,0-38.7,13.4-38.7,40.6c0,27.3,13.4,40.7,38.2,40.7c19.2,0,31.6-8,34.9-21.7
		c0.5-1.9-1.1-3.7-3.1-3.7h-12c-1.3,0-2.5,0.8-3,2c-2.1,5.9-8.1,8.7-16.2,8.7c-12.6,0-18.6-6.9-19.4-23h54.7
		C521.6,207,509.1,193.5,483.2,193.5 M464.5,224.9c1.9-11.8,7.8-17.3,18.6-17.3c11.5,0,16.9,6.1,17.2,17.3H464.5z"/>
	<path class="st0" d="M580.5,193.5c-6.8,0-11.7,1.5-15.5,5.1l-4.7,4.5h-4.3l-1.6-5.8c-0.4-1.3-1.6-2.3-3.1-2.3h-9
		c-1.8,0-3.2,1.4-3.2,3v102.4c0,1.7,1.4,3,3.2,3h13.2c1.8,0,3.2-1.4,3.2-3v-22.2l-1.7-11.9l4.4-1l4.7,4.5c3.7,3.4,8.2,5.1,14.9,5.1
		c19.4,0,31.1-13.4,31.1-40.7C612,206.9,600.4,193.5,580.5,193.5 M574,258.5c-9.9,0-15.4-5.1-15.4-14.8v-19.2
		c0-9.7,5.4-14.8,15.4-14.8c12.1,0,17.6,7.6,17.6,24.3C591.5,250.9,586.1,258.5,574,258.5"/>
	<path class="st0" d="M852.8,207.9V198c0-1.7-1.4-3-3.2-3h-34.7v-19.2c0-1.7-1.4-3-3.2-3h-13.2c-1.8,0-3.2,1.4-3.2,3v19.2h-20.5
		c-1.8,0-3.2,1.4-3.2,3v9.9c0,1.7,1.4,3,3.2,3h20.5v29.4c0,22.5,10.6,32.9,33.4,32.9h18.6c1.8,0,3.2-1.4,3.2-3v-9.9
		c0-1.7-1.4-3-3.2-3h-15.6c-12.4,0-16.8-4.9-16.8-17.1v-29.2h34.7C851.4,210.9,852.8,209.5,852.8,207.9z"/>
	<path class="st0" d="M689.1,257.3h-20.4v-89.5c0-1.7-1.4-3-3.2-3h-40c-1.8,0-3.2,1.4-3.2,3v9.9c0,1.7,1.4,3,3.2,3h23.6v76.6h-26.5
		c-1.8,0-3.2,1.4-3.2,3v9.9c0,1.7,1.4,3,3.2,3h66.5c1.8,0,3.2-1.4,3.2-3v-9.9C692.3,258.6,690.9,257.3,689.1,257.3z"/>
	<g>
		<path class="st0" d="M748.5,164.8h-18c-1.8,0-3.2,1.4-3.2,3v12.7c0,1.7,1.4,3,3.2,3h18c1.8,0,3.2-1.4,3.2-3v-12.7
			C751.6,166.1,750.2,164.8,748.5,164.8z"/>
		<path class="st0" d="M750.9,257.3V198c0-1.7-1.4-3-3.2-3h-40.3c-1.8,0-3.2,1.4-3.2,3v9.9c0,1.7,1.4,3,3.2,3h23.9v46.4h-23.9
			c-1.8,0-3.2,1.4-3.2,3v9.9c0,1.7,1.4,3,3.2,3h68c1.8,0,3.2-1.4,3.2-3v-9.9c0-1.7-1.4-3-3.2-3H750.9z"/>
	</g>
</g>
<g>
	<path class="st1" d="M222.2,206.4h-58.9c-5.8,0-10.4-4.7-10.4-10.4v-34.6c0-5.8,4.7-10.4,10.4-10.4h48.5c5.8,0,10.4,4.7,10.4,10.4
		V206.4z"/>
	<path class="st1" d="M281.1,261.8h-58.9v-55.5h58.9c5.7,0,10.4,4.7,10.4,10.4v34.7C291.5,257.2,286.8,261.8,281.1,261.8z"/>
	<path class="st1" d="M211.8,317.3h-48.5c-5.7,0-10.4-4.7-10.4-10.4v-34.7c0-5.7,4.7-10.4,10.4-10.4h58.9v45.1
		C222.2,312.6,217.5,317.3,211.8,317.3z"/>
</g>
</svg>
