<svg id="レイヤー_1" data-name="レイヤー 1" xmlns="http://www.w3.org/2000/svg" viewBox="0 0 630 630"><defs><style>.cls-1{fill:#fff;}.cls-2{fill:#036eb7;}.cls-3,.cls-4,.cls-5{fill:none;stroke-miterlimit:10;}.cls-3,.cls-4{stroke:#036eb7;}.cls-3{stroke-width:4px;}.cls-4{stroke-width:22px;}.cls-5{stroke:#fff;stroke-width:7px;}</style></defs><circle class="cls-1" cx="315" cy="315" r="296"/><path class="cls-2" d="M175.9,133.52a7.67,7.67,0,0,0,5.84-2.13c3.28-3.14,3.7-3.57,4.42-3.57,1.56,0,7.83,6.13,7.83,7.7,0,1.28-2.85,6.12-3.13,7.12-.86,5-.86,15.82-.86,18.24,0,7.41.86,40.18.86,46.73,0,2,0,6.13-2.57,8.69-1.85,1.86-4.84,3.28-6,3.28-2.56,0-2.7-3.28-2.7-4.13,0-3.42,0-4.42-4-4.42H167.5c-3.13,0-4,2-4,4,0,.43,0,6.13-.15,7-.42,3.71-5.12,8.41-7.26,8.41-3.84,0-3.84-3.28-3.84-4.56s.57-10.4.57-12.4c.42-15.1.71-25.22.71-65.11,0-3-.43-16.24-.43-18.81,0-.71,0-1.56.86-1.56s3.41,1.42,6.4,3.13c3.56,2.14,4.85,2.42,7.84,2.42Zm-.28,73.81c1.28,0,3.42,0,4.27-1.86.43-1,.43-12.39.43-15.38,0-5.13,0-14.25-.43-15.25a3.47,3.47,0,0,0-3.27-1.85h-9.69c-3.7,0-3.7,1.14-3.7,12.82,0,4,0,18.67.57,19.66.43,1.43,2,1.86,3.42,1.86Zm-8.12-70a3.49,3.49,0,0,0-3,1.14c-1.14,1.42-1.14,21.8-1.14,25.08,0,3.13,0,5.7,4,5.7h8.69c.85,0,3,0,3.84-1.86.57-1.42.57-16.24.57-19.09,0-10.26,0-11-4.13-11Zm81.31,28.21c6.69,0,7.4,0,9.54-3.56,1-1.57,3.56-5.7,5.83-5.7.72,0,4.56,3.13,5.7,4,6.69,5.56,7.12,5.84,7.12,7,0,2-3,2-7.69,2H215.63c-6.69,0-12.53.14-15.24.42-.56,0-2.7.29-3.13.29s-.71-.29-1.14-.86l-2.84-3.27c-.57-.72-.57-.72-.57-1s.14-.29.42-.29c1.14,0,5.56.43,6.41.43,5,.29,12.1.57,16.8.57h5.56c4.27,0,4.27-2.85,4.27-4.56,0-3,0-10.83-.14-13.39-.15-3.56-2.43-3.56-3.85-3.56-4.56,0-11.82,0-16,.28-.42,0-2.56.43-3,.43s-.85-.43-1.28-1l-2.7-3.28c-.57-.57-.72-.71-.72-.85,0-.29.29-.43.57-.43,1,0,5.41.43,6.27.57,5.12.14,11.39.43,16.37.43,1.57,0,4.28,0,4.28-3.56a118.05,118.05,0,0,0-.86-15.82c-.14-.71-.57-3.42-.57-4a1,1,0,0,1,1.14-1.14c.14,0,15.09,4.28,15.09,6.13,0,.71-3.13,3.13-3.56,3.7-1,1.14-1,4.14-1,5.7,0,8.55,0,9,6.12,9,5.84,0,8,.14,9.82-2.57,4-5.55,4-5.55,5.13-5.55,1.85,0,12.53,9.12,12.53,10.4,0,1.57-.71,1.57-7,1.57H240.55c-4,0-4,2.28-4,5.7,0,11.68,0,13,.43,14,.71,1.85,2.7,1.85,3.7,1.85Zm5.41,28.35c-4.27,0-4.84,1.29-4.84,5.13,0,5.56.71,29.78.71,34.77,0,11.11-11.68,11.54-13.67,11.54-1.42,0-2-.14-2-1.71,0-3.71,0-5.7-6-7.84-1.43-.42-7.69-2-8.83-2.42-.57-.28-2.28-1.14-2.28-1.71s.85-1,2.13-1c.57,0,13.53,1.57,16.1,1.57s3.13-.28,3.7-2.28c.28-1.14.42-2.85.42-17.52,0-18.24-.14-18.53-4.84-18.53H223.18c-3.14,0-13,0-17.94.29a22.2,22.2,0,0,1-3,.43c-.57,0-.86-.43-1.29-1l-2.7-3.28c-.57-.57-.71-.71-.71-.85,0-.29.28-.43.57-.43,1,0,5.41.43,6.26.57,6.55.28,13,.43,19.51.43H235c4.12,0,4.12-2.43,4.12-4.85,0-1.85-.71-11.4-.71-11.68,0-1.14.29-1.71,1.14-1.71s14.24,3.85,14.24,6.7c0,.85-3.56,3.56-3.84,4.27s-.72,1.57-.72,4.27c0,2.43,1.29,3,2.71,3,1.71,0,2.14-.57,5.7-5.42,1.28-1.85,2.84-3.7,4.41-3.7.71,0,1.28.43,5.7,4,6.69,5.41,7.11,5.84,7.11,7,0,2-2.84,2-7.54,2Zm-31.9,30.35c-3.13,0-4-1.56-7-6.69-3.85-6.27-10.4-11-12.68-12.54-.57-.43-5.12-3.71-5.12-3.85,0-.71.71-.85,1.14-.85,2.84,0,28.62,5,28.62,18.8C227.31,220.86,225.6,224.28,222.32,224.28Z"/><path class="cls-2" d="M201,291.27c4,0,4-2.43,4-4.71,0-1.28,0-13.82-.28-14.67-.86-2-2.71-2-4.13-2H172.77c-12.53,0-16.66.29-17.94.29a24,24,0,0,1-3.13.43c-.43,0-.71-.43-1.14-1l-2.85-3.28c-.28-.43-.57-.71-.57-.85,0-.29.14-.43.57-.43.86,0,5.27.43,6.27.57,7,.28,12.81.43,19.5.43h72.76c6.84,0,7.55,0,10.4-4.13,3.42-5,3.56-5.14,4.7-5.14,2.13,0,12,9.7,12,11.12,0,2-2.71,2-7.55,2H219.62c-4.7,0-4.7,1-4.7,10.26,0,10,0,11.12,4.41,11.12h29.48c3.13,0,4.55-1.14,5.12-1.86,1.14-1.42,2.42-2.7,3-2.7,1.85,0,13,8.26,13,10,0,1.28-.43,1.42-4,3.7-2.42,1.57-2.42,2.28-2.42,9.27,0,5.41.29,29.06.29,33.91,0,23.22,0,25.93-1,28.21-2.28,5.55-11.11,7.55-12.67,7.55-2,0-2.71-.86-3.56-3.42a13.1,13.1,0,0,0-8.54-8.41c-.72-.14-3.28-.85-3.28-1.42s.57-.43.86-.43c.85,0,14.23,0,14.66-.14,2.42-.43,2.56-3.14,2.71-6.13.28-10.69.71-46.73.71-60.27,0-3.56-2.14-4.13-4.42-4.13h-29.9c-4.41,0-4.41.43-4.41,13.68,0,9.4,0,49.58.57,56.71.14,1.13.28,3.7.28,4.7,0,7.41-7,7.69-7.83,7.69-4.27,0-4.27-2.42-4.27-3.7,0-1.57.57-8.12.57-9.41.71-15,.85-27.5.85-34.05,0-3.28,0-32.34-.14-32.91-.43-1.57-1.42-2.71-4.13-2.71H172.06c-4.13,0-4.27,2.42-4.27,5.56.14,11.25.14,61,.14,71.09,0,5.27-5.55,7.13-9,7.13-3,0-3-3.42-3-4.42,0-2.14,1-15.67,1-18.66V300.81c0-1.85-1.14-11.4-1.14-12.82,0-1,.14-1.43,1.14-1.43,1.71,0,7.12,2.14,9.68,3.28a11.26,11.26,0,0,0,5.41,1.43Zm-6.4,27.92c0,3.85-2.71,5.84-5,5.84-2.7,0-3.56-2.13-4.84-5.13-1.71-4.27-5.41-8.83-8.54-12.39a9.07,9.07,0,0,1-1.71-2.14c0-.14.14-.28.29-.43C175.33,304.8,194.56,309.36,194.56,319.19Zm0,31.06c0,4-3.42,6.84-5.84,6.84s-3.13-1.57-5.13-7.12c-1.56-4.28-5.69-10.55-7.4-13a10.27,10.27,0,0,1-1.28-2c0-.14.14-.43.28-.43C177.61,334,194.56,340.56,194.56,350.25Zm51.68-.42c0,3.84-3,5.84-4.69,5.84-1.86,0-2.85-1.43-4.7-4.56-3.14-5.27-8.26-10.26-12.68-14.25-1.42-1.28-1.71-1.43-1.28-1.71C224.89,333.87,246.24,337.71,246.24,349.83Zm-1.14-29.64c0,4-2.7,6.27-4.69,6.27-2.42,0-3.28-1.85-4.42-4.56-2.13-5.13-7.54-10.69-9.68-13A36.64,36.64,0,0,1,223,305.8a.45.45,0,0,1,.42-.43C226.59,304.09,245.1,308.79,245.1,320.19Z"/><path class="cls-2" d="M252.65,426.92c1.85,0,3-.28,4.42-2.42,1-1.57,1.7-2.28,2.42-2.28.57,0,13.95,8.83,13.95,12.54,0,2-1.42,2.84-4.27,3-6,.14-6.84.14-9.54,1-1.57.42-9.54,4.56-9.54,4.27.28-.43,4.41-8.69,4.41-10.4,0-2-1.42-2-2.7-2H169.92c-2.42,0-3.56,0-3.84,3.28-1.42,15.1-10,20.38-14.1,20.38a5.1,5.1,0,0,1-5-5.28c0-3.56,1.85-5.12,4.41-7.55,3.85-3.56,6.7-7.69,8.55-15.1.28-1.14,1.42-7.55,1.85-7.55s.71.57,2.85,5.27c1,2.28,1.42,2.85,5,2.85h30.9c4.41,0,4.41-2.14,4.41-8.69,0-3.14-.14-12.11-.57-14.82-.14-.71-.85-4.27-.85-5,0-.42.14-1,1.42-1,1.71,0,14.67,2,14.67,5.7a2.77,2.77,0,0,1-1.28,2,28.05,28.05,0,0,0-2.28,2.14c-.71,1.14-.71,9.26-.71,14.1,0,3.28,0,5.56,4.41,5.56Zm-22.21,66.82c4,0,5.84,0,7-.43,1.42-.71,6-7.4,7.4-7.4,1.71,0,10.82,7.26,10.82,9.54s-2.56,2.14-7.69,2.14H219.33c-4.27,0-4.55,2.14-4.55,5.84,0,11.4,0,12.54,4.27,12.54h27.19c6.13,0,7.27-.14,8.12-1,1.28-1.42,6.12-8.69,7.83-8.69s12,9.26,12,11.54c0,2-2.42,2-7.4,2H172.91c-12.53,0-16.66.28-17.94.28a27.79,27.79,0,0,1-3.13.43c-.43,0-.71-.43-1.14-1l-2.85-3.28c-.57-.57-.57-.71-.57-.85a.38.38,0,0,1,.43-.43c1,0,5.41.57,6.41.57,7,.43,12.81.43,19.51.43h26.76c4.28,0,4.28-2.28,4.28-5.7,0-12,0-12.68-4.13-12.68H190c-12.53,0-16.66.28-18.08.28a20.71,20.71,0,0,1-3,.43c-.43,0-.71-.43-1.28-1L164.94,494c-.57-.57-.57-.72-.57-.86a.37.37,0,0,1,.43-.42c1,0,5.41.56,6.26.56,7,.43,12.82.43,19.51.43h10c4.13,0,4.13-2.56,4.13-5.27,0-15.67-.29-16.81-5.56-16.81h-5c-4,0-4.27,2.28-4.41,3.84-.29,1.86-.72,5.85-6.41,5.85-2.71,0-4.42-.72-4.42-3.85,0-1.57.72-8.26.72-9.55.14-4.7.28-9.4.28-11.68,0-3-.14-7.84-.43-10.69-.14-.71-1-4-1-4.7a1.18,1.18,0,0,1,1.28-1.28c2,0,5,1.28,7.26,2.28a17.36,17.36,0,0,0,7.4,1.57h33.32A5.76,5.76,0,0,0,233,441c1.43-1.86,1.71-2.14,2.71-2.14,1.71,0,10,6.41,10,8.4,0,1.14-.43,1.57-3,3.85-1.13,1.14-1.13,3.28-1.13,7.41,0,1.85.28,10.54.28,12.4,0,6.83-6.12,6.83-6.69,6.83-3.13,0-3.56-1.42-4-3.56-.57-2.56-2.42-2.56-4-2.56H211.5c-.43,0-1.28,0-1.28.71,0,.86.28,1,4.13,2.57,4.27,1.71,4.56,2.56,4.56,3.27,0,.86-3.14,3.28-3.42,4s-.71,1.71-.71,6.27c0,3.42.57,5.27,4.55,5.27Zm-40.87-76.22c0,4.7-3.41,5.55-4.7,5.55-2.27,0-2.7-.85-7-8.83-.43-.85-3.85-7.13-8.83-10.69a9.7,9.7,0,0,1-1.71-1.42c0-.29,1-.43,1.14-.43a30.25,30.25,0,0,1,10.82,2.85C182.6,406.12,189.57,410,189.57,417.52ZM194,447.15c-3.7,0-4.56,1.14-4.56,5.13,0,12.54,0,12.82.57,14,.71,1.71,2.71,1.71,4,1.71h33.32c4.13,0,4.84-.14,4.84-14.24,0-4.85-.14-6.56-4.56-6.56Zm59.23-36.76c0,1.85-1.85,2-3.84,2-2.28.14-2.28.14-10.54,4.84-4.84,2.71-10.11,4.85-11.39,4.85-.14,0-.43,0-.43-.15s5.55-7.41,6.41-9c4.56-7.55,5.13-8.27,6-11,.71-2,.85-2.43,1.71-2.43,1.71,0,4.84,2.71,6.26,3.85C250.09,405.83,253.22,408.54,253.22,410.39Z"/><path class="cls-2" d="M464.78,102.76A75.49,75.49,0,0,0,449,72.88c-9-4.74-18.53-8.44-27.59-13.38-7.9-4.3-16.58-10.09-25.67-13a76.16,76.16,0,1,0,69,56.3Z"/><path class="cls-2" d="M394.28,46.29a53.69,53.69,0,0,0-9.57.05c-3.51.34-5.31-2.09-5.47-4.8a6.27,6.27,0,0,1-.32-.92c-20.7-4.71-41.21-10.76-62.38-12.44-18.21-1.44-36.49-.62-54.65-2A70.42,70.42,0,1,0,394.28,46.29Z"/><path class="cls-2" d="M547.33,155a159.9,159.9,0,0,0-15-16.44c-13-12.44-25.68-26.22-40.17-36.95l-.63-.47L489.22,100a7.11,7.11,0,0,1-.82-.49,43.19,43.19,0,0,0-5.33-.15c-3.8.14-5.63-2.82-5.51-5.77-1.41.27-2.82.57-4.23,1a58.86,58.86,0,1,0,74,60.54Z"/><path class="cls-2" d="M592.25,225.28c-.12-.16-.21-.35-.32-.52l-.06-.1c-10.46-14-18.69-29.39-27.51-44.43-9.07-15.46-19-29.24-32-41.63q-2.89-2.76-5.76-5.6a58.86,58.86,0,1,0,65.63,92.28Z"/><ellipse class="cls-2" cx="375.73" cy="56.12" rx="25.59" ry="63.78" transform="translate(166.95 373.51) rotate(-65.16)"/><ellipse class="cls-2" cx="471.5" cy="90.12" rx="16.02" ry="43.63" transform="translate(263.4 522.71) rotate(-75.13)"/><line class="cls-3" x1="539.5" y1="234.45" x2="364.5" y2="537.55"/><line class="cls-3" x1="443.87" y1="297.91" x2="268.87" y2="601.02"/><line class="cls-3" x1="418.5" y1="189.75" x2="293.5" y2="406.25"/><line class="cls-3" x1="597.5" y1="281.75" x2="472.5" y2="498.25"/><line class="cls-3" x1="101" y1="316.7" x2="51" y2="403.3"/><line class="cls-3" x1="113.5" y1="159.05" x2="38.5" y2="288.95"/><line class="cls-3" x1="362.5" y1="93.05" x2="287.5" y2="222.95"/><line class="cls-3" x1="238.37" y1="48.48" x2="208.37" y2="100.44"/><line class="cls-3" x1="114.37" y1="428.48" x2="84.37" y2="480.44"/><path id="SVGID" class="cls-4" d="M593.37,242.06c40.92,152.69-50.54,310.35-203.85,351.43S78.16,543.76,37.25,391.07,87.76,80.7,241.1,39.61,552.45,89.34,593.37,242.06"/><circle class="cls-5" cx="315.1" cy="315.1" r="300"/></svg>