<svg id="Layer_1" data-name="Layer 1" xmlns="http://www.w3.org/2000/svg" xmlns:xlink="http://www.w3.org/1999/xlink" viewBox="0 0 52.49 22.69"><defs><style>.cls-1{fill:url(#linear-gradient);}.cls-2{fill:url(#linear-gradient-2);}.cls-3{fill:#333;}</style><linearGradient id="linear-gradient" x1="18.979" y1="6.894" x2="33.453" y2="17.564" gradientUnits="userSpaceOnUse"><stop offset="0.005" stop-color="#f26a27"/><stop offset="1" stop-color="#fccb00"/></linearGradient><linearGradient id="linear-gradient-2" x1="24.188" y1="1.888" x2="40.379" y2="21.135" gradientUnits="userSpaceOnUse"><stop offset="0" stop-color="#f26a27"/><stop offset="1" stop-color="#fccb00"/></linearGradient></defs><path class="cls-1" d="M26.5,19.5a8.08,8.08,0,0,1,0-15.569A1.624,1.624,0,0,0,25.628.8a11.325,11.325,0,0,0,0,21.828,1.641,1.641,0,0,0,.435.059h0A1.624,1.624,0,0,0,26.5,19.5Z"/><path class="cls-2" d="M31.777.8a1.6,1.6,0,0,0-.435-.059h0a1.624,1.624,0,0,0-.432,3.189,8.08,8.08,0,0,1,0,15.569,1.624,1.624,0,0,0,.867,3.13A11.325,11.325,0,0,0,31.777.8Z"/><path class="cls-3" d="M1.692,22.67A2.012,2.012,0,0,1,.068,21.227a2.674,2.674,0,0,1,1.08-2.6l.866-.779c.363-.322.725-.671,1.1-.973l5.37-4.584.8-.672a19.971,19.971,0,0,0,1.564-1.342,4.373,4.373,0,0,0,1.3-3.188A2.823,2.823,0,0,0,11.163,5,4.4,4.4,0,0,0,7.88,4.011,6.544,6.544,0,0,0,3.558,6.367,1.621,1.621,0,0,1,1.061,4.3h0A9.844,9.844,0,0,1,7.585.783a7.548,7.548,0,0,1,5.658,1.731,6.039,6.039,0,0,1,2.148,4.43,7.609,7.609,0,0,1-2.208,5.618,23.1,23.1,0,0,1-1.812,1.584l-.752.6-5.5,4.7h8.652a1.62,1.62,0,0,1,1.62,1.621,1.6,1.6,0,0,1-1.62,1.6Z"/><circle class="cls-3" cx="44.467" cy="2.367" r="1.631"/><path class="cls-3" d="M44.481,22.664a1.618,1.618,0,0,1-1.618-1.618V9.126a1.621,1.621,0,1,1,3.242,0V21.039a1.618,1.618,0,0,1-1.611,1.625Z"/><path class="cls-3" d="M52.49,1.781a1.793,1.793,0,1,1-3.585.011A1.77,1.77,0,0,1,50.7,0,1.748,1.748,0,0,1,52.49,1.781Zm-.3,0A1.459,1.459,0,0,0,50.7.279,1.481,1.481,0,0,0,49.2,1.792a1.5,1.5,0,1,0,3-.011Zm-.975.326.447.684H51.23l-.395-.608h-.452v.608h-.437v-2h.833c.527,0,.842.274.842.7A.624.624,0,0,1,51.22,2.107Zm-.466-.265c.283,0,.447-.132.447-.355s-.164-.349-.447-.349h-.376v.7Z"/></svg>