<svg width="110" height="32" viewBox="0 0 110 32" fill="none" xmlns="http://www.w3.org/2000/svg">
<path d="M35.0768 20.0987C35.0768 16.6589 37.9306 15.3594 41.523 15.3594H45.0138C45.2685 15.3594 45.3961 15.2318 45.3961 14.9771V14.4422C45.3961 12.5822 43.9949 11.6904 41.9308 11.6904C40.3256 11.6904 39.2301 12.2258 38.6437 13.3723C38.44 13.7801 38.2614 13.9327 37.8285 13.9327H36.3253C35.8414 13.9327 35.6118 13.678 35.6118 13.2957C35.6118 13.1171 35.6628 12.8624 35.8665 12.4295C36.8348 10.4168 38.7203 9.11731 42.2366 9.11731C46.1603 9.11731 48.4791 10.8502 48.4791 14.6463V20.9398C48.4791 21.5768 48.7083 21.7299 49.2433 21.7299H49.2688C49.7782 21.7299 50.0329 21.9846 50.0329 22.4941V23.7681C50.0329 24.2775 49.7782 24.5323 49.2688 24.5323H48.377C46.9244 24.5323 46.1858 24.15 45.727 23.1562C45.6504 22.9776 45.5994 22.927 45.4978 22.927C45.3961 22.927 45.3192 22.978 45.1155 23.1562C43.969 24.1755 42.5419 24.7104 40.6309 24.7104C37.7261 24.7104 35.0768 23.3599 35.0768 20.0987ZM45.3961 18.3659V18.1111C45.3961 17.8564 45.2685 17.7289 45.0138 17.7289H41.1918C39.4083 17.7289 38.1598 18.3914 38.1598 19.9711C38.1598 21.5509 39.4338 22.2134 40.9626 22.2134C43.3324 22.2134 45.3961 20.7353 45.3961 18.3659Z" fill="black"/>
<path d="M51.3072 17.8761V10.0538C51.3072 9.54433 51.5619 9.28961 52.0714 9.28961H53.6256C54.1351 9.28961 54.3898 9.54433 54.3898 10.0538V17.5958C54.3898 20.0418 55.2815 21.8508 57.8296 21.8508C60.5307 21.8508 61.8043 19.7105 61.8043 17.239V10.0533C61.8043 9.54391 62.059 9.28919 62.5684 9.28919H64.1227C64.6321 9.28919 64.8868 9.54391 64.8868 10.0533V23.7618C64.8868 24.2712 64.6321 24.526 64.1227 24.526H62.7215C62.2627 24.526 62.008 24.2968 61.9314 23.8379L61.8039 23.1499C61.7783 22.9968 61.7018 22.9207 61.5746 22.9207C61.473 22.9207 61.3965 22.9717 61.2693 23.0993C60.2245 24.042 58.9505 24.7046 57.065 24.7046C53.0647 24.7046 51.3072 21.8253 51.3072 17.8761Z" fill="black"/>
<path d="M67.7423 20.377V4.93616C67.7423 4.42672 67.9971 4.172 68.5065 4.172H70.0608C70.5702 4.172 70.8249 4.42672 70.8249 4.93616V8.91088C70.8249 9.1656 70.9525 9.29317 71.2072 9.29317H75.7173C76.2267 9.29317 76.4815 9.54789 76.4815 10.0573V11.3313C76.4815 11.8408 76.2267 12.0959 75.7173 12.0959H71.2072C70.9525 12.0959 70.8249 12.2235 70.8249 12.4782V20.0968C70.8249 21.2177 71.3344 21.7276 72.4808 21.7276H76.0226C76.5321 21.7276 76.7868 21.9823 76.7868 22.4918V23.7658C76.7868 24.2752 76.5321 24.5299 76.0226 24.5299H72.3281C69.1431 24.5299 67.7423 23.2563 67.7423 20.377Z" fill="black"/>
<path d="M78.9031 23.7658V4.93616C78.9031 4.42672 79.1578 4.172 79.6672 4.172H81.2215C81.7309 4.172 81.9856 4.42672 81.9856 4.93616V10.8729C81.9856 11.026 82.0873 11.1277 82.2148 11.1277C82.2914 11.1277 82.3675 11.1021 82.5971 10.8984C83.7181 9.87915 84.941 9.11499 87.0052 9.11499C90.9799 9.11499 92.7638 11.9177 92.7638 16.0455V23.7662C92.7638 24.2756 92.509 24.5304 91.9996 24.5304H90.4453C89.9359 24.5304 89.6812 24.2756 89.6812 23.7662V16.1986C89.6812 13.8288 88.7639 11.9688 86.2669 11.9688C83.5913 11.9688 81.9865 14.1345 81.9865 17.1924V23.7662C81.9865 24.2756 81.7317 24.5304 81.2223 24.5304H79.6681C79.1586 24.5304 78.9031 24.2752 78.9031 23.7658Z" fill="black"/>
<path d="M94.6995 14.3628C94.6995 7.45772 97.3747 3.99244 102.165 3.99244C106.955 3.99244 109.63 7.45772 109.63 14.3628C109.63 21.2678 106.955 24.7076 102.165 24.7076C97.3751 24.7076 94.6995 21.2423 94.6995 14.3628ZM98.445 16.6816L105.197 9.19057C105.299 9.063 105.35 8.98687 105.35 8.80828C105.35 8.68071 105.325 8.52804 105.146 8.29842C104.458 7.45772 103.491 6.84622 102.165 6.84622C99.3627 6.84622 97.783 9.39426 97.783 14.3883C97.783 15.1014 97.8085 15.7388 97.9105 16.605C97.936 16.7581 98.0121 16.8598 98.1397 16.8598C98.2163 16.8598 98.3179 16.8343 98.445 16.6816ZM106.548 14.3117C106.548 13.5982 106.522 12.9612 106.42 12.095C106.394 11.9419 106.318 11.8402 106.191 11.8402C106.114 11.8402 106.012 11.8658 105.885 12.0188L99.1327 19.5099C99.031 19.6374 98.98 19.7136 98.98 19.8921C98.98 20.0197 99.0055 20.1724 99.1837 20.4016C99.8717 21.2423 100.84 21.8538 102.165 21.8538C104.968 21.8538 106.548 19.3057 106.548 14.3117Z" fill="black"/>
<path d="M1.68935 13.6673C6.93599 12.8036 11.0479 8.69124 11.912 3.4446L12.3324 0.893214C12.4131 0.399668 12.0078 -0.0357391 11.5088 0.0023225C7.51403 0.311416 3.74928 1.63395 1.67011 2.48636C0.660431 2.90086 0 3.8821 0 4.97417V13.039C0 13.5134 0.424115 13.8743 0.892565 13.7974L1.68935 13.6673Z" fill="black"/>
<path d="M14.4422 3.44423C15.3059 8.69088 19.4183 12.8028 24.6649 13.6669L25.4617 13.7974C25.9301 13.8744 26.3543 13.5134 26.3543 13.0391V4.97423C26.3543 3.88173 25.6938 2.90092 24.6842 2.48642C22.605 1.63234 18.8386 0.311472 14.8454 0.00237818C14.3465 -0.0361017 13.9395 0.398052 14.0219 0.893271L14.4422 3.44423Z" fill="black"/>
<path d="M24.665 16.1959C19.4184 17.0596 15.3065 21.1719 14.4423 26.4186L13.9183 31.3983C13.8702 31.8476 14.3696 32.1642 14.7456 31.9128C14.7494 31.9107 14.7514 31.909 14.7552 31.907C18.0457 29.6877 25.5517 23.8785 26.2946 16.6221C26.331 16.2649 26.0143 15.9734 25.6609 16.0307L24.6663 16.1938L24.665 16.1959Z" fill="black"/>
<path d="M11.9135 26.4136C11.0498 21.167 6.93746 17.055 1.69082 16.1909L0.621329 16.0144C0.30638 15.9625 0.024473 16.2235 0.0550059 16.5423C0.759355 23.8392 8.36917 29.6848 11.6885 31.9079C12.0323 32.1362 12.4869 31.8618 12.443 31.4511L11.9135 26.4136Z" fill="black"/>
</svg>
