<?xml version="1.0" encoding="UTF-8"?><svg id="Layer_2" xmlns="http://www.w3.org/2000/svg" viewBox="0 0 3471.62 669"><defs><style>.cls-1{fill-rule:evenodd;}</style></defs><g id="Layer_1-2"><g id="Page-1"><g id="logo_full_black"><path id="Combined-Shape" d="M396.93,496.59c66.83-3.7,122.6-13.52,128.18-28.93,14.22-39.27-115.86-368.82-186.35-368.82S134.32,425.39,152.41,467.66c6.99,16.32,62.03,25.89,127.79,29.23l58.29,115.37,58.44-115.67Zm-58.91,172.41C151.34,669,0,519.24,0,334.5S151.34,0,338.02,0s338.02,149.76,338.02,334.5-151.34,334.5-338.02,334.5Z"/><ellipse id="Oval-2" cx="338.49" cy="224.22" rx="37.92" ry="37.52"/><path id="BitLaunch" class="cls-1" d="M933.44,161.29h115.06c52.43,0,90.49,7.38,114.18,22.15,23.69,14.76,35.53,38.25,35.53,70.44,0,21.85-5.18,39.79-15.55,53.8-10.37,14.01-24.15,22.44-41.35,25.27v2.5c23.43,5.17,40.33,14.85,50.7,29.03,10.37,14.18,15.55,33.03,15.55,56.56,0,33.37-12.18,59.39-36.54,78.08-24.36,18.69-57.45,28.03-99.26,28.03h-138.33V161.29Zm78.39,144.89h45.52c21.24,0,36.63-3.25,46.15-9.76,9.53-6.51,14.29-17.27,14.29-32.28,0-14.01-5.18-24.07-15.55-30.15-10.37-6.09-26.76-9.13-49.19-9.13h-41.22v81.33Zm0,61.56v95.34h51.08c21.58,0,37.51-4.09,47.79-12.26,10.28-8.17,15.43-20.69,15.43-37.54,0-30.36-21.92-45.54-65.75-45.54h-48.55Zm260.22-192.69c0-24.86,13.99-37.29,41.98-37.29s41.98,12.43,41.98,37.29c0,11.85-3.5,21.06-10.49,27.65-7,6.59-17.49,9.88-31.48,9.88-27.99,0-41.98-12.51-41.98-37.54Zm80.42,352.1h-77.13V247.37h77.13v279.77Zm200.03-55.8c13.49,0,29.67-2.92,48.55-8.76v56.81c-19.22,8.51-42.82,12.76-70.81,12.76-30.85,0-53.32-7.72-67.39-23.15-14.08-15.43-21.12-38.58-21.12-69.44v-134.88h-36.92v-32.28l42.48-25.53,22.25-59.06h49.31v59.56h79.15v57.31h-79.15v134.88c0,10.84,3.08,18.85,9.23,24.02s14.29,7.76,24.4,7.76Zm111.77,55.8V161.29h78.39V463.08h149.96v64.06h-228.35Zm466.06,0l-14.92-38.04h-2.02c-12.98,16.18-26.34,27.4-40.08,33.66-13.74,6.26-31.65,9.38-53.74,9.38-27.14,0-48.51-7.67-64.11-23.02-15.59-15.35-23.39-37.2-23.39-65.56s10.49-51.59,31.48-65.69,52.64-21.9,94.96-23.4l49.06-1.5v-12.26c0-28.36-14.67-42.54-44-42.54-22.59,0-49.14,6.76-79.66,20.27l-25.54-51.55c32.54-16.85,68.62-25.27,108.23-25.27s67.01,8.17,87.24,24.52c20.23,16.35,30.35,41.21,30.35,74.57v186.43h-53.86Zm-22.76-129.63l-29.84,1c-22.42,.67-39.11,4.67-50.07,12.01-10.96,7.34-16.44,18.52-16.44,33.53,0,21.52,12.48,32.28,37.43,32.28,17.87,0,32.16-5.09,42.86-15.26,10.71-10.18,16.06-23.69,16.06-40.54v-23.02Zm356.31,129.63l-10.37-35.79h-4.05c-8.26,13.01-19.98,23.06-35.15,30.15-15.17,7.09-32.45,10.64-51.84,10.64-33.21,0-58.25-8.8-75.11-26.4-16.86-17.6-25.29-42.92-25.29-75.95V247.37h77.13v163.41c0,20.19,3.62,35.33,10.87,45.42,7.25,10.09,18.8,15.14,34.64,15.14,21.58,0,37.17-7.13,46.78-21.4s14.41-37.91,14.41-70.94V247.37h77.13v279.77h-59.17Zm401.07,0h-77.13v-163.41c0-20.19-3.62-35.33-10.87-45.42-7.25-10.09-18.8-15.14-34.64-15.14-21.58,0-37.17,7.13-46.78,21.4-9.61,14.26-14.41,37.91-14.41,70.94v131.63h-77.13V247.37h58.92l10.37,35.79h4.3c8.6-13.51,20.44-23.73,35.53-30.66,15.09-6.92,32.24-10.39,51.46-10.39,32.87,0,57.83,8.8,74.85,26.4,17.03,17.6,25.54,43,25.54,76.2v182.43Zm194.21,5c-88,0-132-47.8-132-143.39,0-47.55,11.97-83.87,35.91-108.98,23.94-25.11,58.25-37.66,102.92-37.66,32.71,0,62.04,6.34,88,19.02l-22.76,59.06c-12.14-4.84-23.43-8.8-33.89-11.89s-20.9-4.63-31.36-4.63c-40.12,0-60.19,28.19-60.19,84.58s20.06,82.08,60.19,82.08c14.84,0,28.58-1.96,41.22-5.88,12.64-3.92,25.29-10.05,37.93-18.39v65.31c-12.48,7.84-25.08,13.26-37.81,16.27s-28.79,4.5-48.17,4.5Zm412.45-5h-77.13v-163.41c0-40.37-15.17-60.56-45.52-60.56-21.58,0-37.17,7.26-46.78,21.77-9.61,14.51-14.41,38.04-14.41,70.57v131.63h-77.13V137.76h77.13v79.33c0,6.17-.59,20.69-1.77,43.54l-1.77,22.52h4.05c17.2-27.36,44.51-41.04,81.93-41.04,33.21,0,58.42,8.84,75.61,26.53,17.2,17.68,25.79,43.04,25.79,76.07v182.43Z"/></g></g></g></svg>