<?xml version="1.0" encoding="UTF-8"?>
<svg width="192px" height="29px" viewBox="0 0 192 29" version="1.1" xmlns="http://www.w3.org/2000/svg" xmlns:xlink="http://www.w3.org/1999/xlink">
    <title>tracker-brand</title>
    <g id="tracker-brand" stroke="none" stroke-width="1" fill="none" fill-rule="evenodd">
        <g id="CryptoTracker.com" transform="translate(1.960938, 6.171875)" fill="#F9691D" fill-rule="nonzero">
            <path d="M8.015625,17.0625 C11.3085938,17.0625 13.9453125,15.3867188 15.2578125,12.2929688 L12.5039062,11.1679688 C11.6132812,13.3945312 10.1484375,14.2382812 8.015625,14.2382812 C4.46484375,14.2382812 2.953125,11.71875 2.953125,8.42578125 C2.953125,5.35546875 4.46484375,2.8359375 7.96875,2.8359375 C10.125,2.8359375 11.8359375,3.6796875 12.4570312,5.859375 L15.234375,4.7578125 C13.8984375,1.6640625 11.2734375,0 7.9921875,0 C2.54296875,0 0,4.0078125 0,8.54296875 C0,13.0898438 2.56640625,17.0625 8.015625,17.0625 Z" id="Path"></path>
            <path d="M17.3085938,16.828125 L20.0742188,16.828125 L20.0742188,11.8828125 C20.0742188,8.90625 21.46875,7.6640625 22.8046875,7.6640625 C23.2617188,7.6640625 23.6953125,7.8046875 24.0820312,8.0625 L25.3828125,5.71875 C24.8203125,5.14453125 24.0117188,4.875 23.2382812,4.875 C21.9257812,4.875 20.6015625,5.671875 20.0976562,7.08984375 L20.0976562,5.12109375 L17.3085938,5.12109375 L17.3085938,16.828125 Z" id="Path"></path>
            <polygon id="Path" points="28.0898438 21.8671875 31.2070312 21.8671875 37.8984375 5.12109375 34.7578125 5.12109375 31.7578125 13.2539062 28.8046875 5.12109375 25.6640625 5.12109375 30.2460938 16.5117188"></polygon>
            <path d="M39.5507812,21.6796875 L42.5039062,21.6796875 L42.5039062,15.65625 C43.3242188,16.6640625 44.5429688,17.0625 45.796875,17.0625 C49.0898438,17.0625 50.859375,14.2382812 50.859375,10.96875 C50.859375,7.734375 49.0898438,4.875 45.84375,4.875 C44.625,4.875 43.3242188,5.28515625 42.5039062,6.29296875 L42.5039062,5.12109375 L39.5507812,5.12109375 L39.5507812,21.6796875 Z M45.1289062,14.4726562 C43.1601562,14.4726562 42.2460938,12.9375 42.2460938,10.96875 C42.2460938,9 43.1601562,7.51171875 45.1289062,7.51171875 C47.0976562,7.51171875 47.9765625,9.0234375 47.9765625,10.96875 C47.9765625,12.9140625 47.0976562,14.4726562 45.1289062,14.4726562 Z" id="Shape"></path>
            <path d="M57.3984375,17.0625 C58.2539062,17.0625 59.0976562,16.875 59.53125,16.7109375 L59.53125,14.1210938 C59.1445312,14.3085938 58.5,14.5429688 57.9023438,14.5429688 C57.1523438,14.5429688 56.6015625,14.2148438 56.6015625,13.0898438 L56.6015625,7.51171875 L59.53125,7.51171875 L59.53125,5.12109375 L56.6015625,5.12109375 L56.6015625,0.17578125 L53.7890625,2.21484375 L53.7890625,5.12109375 L51.8554688,5.12109375 L51.8554688,7.51171875 L53.7421875,7.51171875 L53.7421875,13.59375 C53.7421875,15.7265625 55.1132812,17.0625 57.3984375,17.0625 Z" id="Path"></path>
            <path d="M66.9492188,17.0625 C70.5703125,17.0625 72.9492188,14.2617188 72.9492188,10.9453125 C72.9492188,7.640625 70.5703125,4.875 66.9492188,4.875 C63.328125,4.875 60.9492188,7.640625 60.9492188,10.9453125 C60.9492188,14.2617188 63.328125,17.0625 66.9492188,17.0625 Z M66.9492188,14.6015625 C64.7929688,14.6015625 63.9257812,12.8671875 63.9257812,10.9453125 C63.9257812,9.0234375 64.7929688,7.34765625 66.9492188,7.34765625 C69.1171875,7.34765625 69.9726562,9.0234375 69.9726562,10.9453125 C69.9726562,12.8671875 69.1171875,14.6015625 66.9492188,14.6015625 Z" id="Shape"></path>
            <polygon id="Path" points="78.9960938 16.828125 81.9726562 16.828125 81.9726562 2.9296875 87.1523438 2.9296875 87.1523438 0.26953125 73.8046875 0.26953125 73.8046875 2.9296875 78.9960938 2.9296875"></polygon>
            <path d="M87.375,16.828125 L90.140625,16.828125 L90.140625,11.8828125 C90.140625,8.90625 91.5351562,7.6640625 92.8710938,7.6640625 C93.328125,7.6640625 93.7617188,7.8046875 94.1484375,8.0625 L95.4492188,5.71875 C94.8867188,5.14453125 94.078125,4.875 93.3046875,4.875 C91.9921875,4.875 90.6679688,5.671875 90.1640625,7.08984375 L90.1640625,5.12109375 L87.375,5.12109375 L87.375,16.828125 Z" id="Path"></path>
            <path d="M101.320312,4.875 C99.0117188,4.875 97.5234375,5.90625 96.3984375,7.44140625 L98.578125,9.0234375 C99.0820312,8.16796875 99.9960938,7.37109375 101.34375,7.37109375 C103.207031,7.37109375 103.722656,8.109375 103.78125,9.84375 L100.59375,9.84375 C97.9804688,9.84375 95.9414062,10.6875 95.9414062,13.2304688 C95.9414062,15.6796875 97.7929688,17.0625 100.195312,17.0625 C101.53125,17.0625 103.101562,16.4648438 103.851562,15.2578125 L104.027344,16.828125 L106.382812,16.828125 L106.382812,9.7265625 C106.382812,6.8671875 104.507812,4.875 101.320312,4.875 Z M100.769531,14.6484375 C99.4921875,14.6484375 98.8710938,14.0976562 98.8710938,13.3242188 C98.8710938,12.5859375 99.46875,11.90625 100.769531,11.90625 L103.792969,11.90625 L103.792969,12 C103.617188,13.3828125 102.527344,14.6484375 100.769531,14.6484375 Z" id="Shape"></path>
            <path d="M114.023438,17.0625 C116.34375,17.0625 118.171875,15.7734375 118.945312,13.59375 L116.34375,12.609375 C116.039062,13.7109375 115.148438,14.4726562 114,14.4726562 C112.007812,14.4726562 111.257812,12.7734375 111.257812,10.9921875 C111.257812,9.24609375 112.03125,7.46484375 114,7.46484375 C115.171875,7.46484375 116.039062,8.26171875 116.34375,9.38671875 L119.0625,8.33203125 C118.171875,6 116.320312,4.875 114,4.875 C110.179688,4.875 108.351562,7.921875 108.351562,10.9921875 C108.351562,14.0976562 110.203125,17.0625 114.023438,17.0625 Z" id="Path"></path>
            <polygon id="Path" points="121.171875 16.828125 124.03125 16.828125 124.03125 13.3945312 125.835938 11.4023438 129.269531 16.828125 132.644531 16.828125 127.78125 9.65625 132.164062 5.12109375 128.449219 5.12109375 124.03125 9.984375 124.03125 0.26953125 121.171875 0.26953125"></polygon>
            <path d="M138.621094,17.0625 C140.589844,17.0625 142.148438,16.3710938 143.425781,14.953125 L141.457031,13.2304688 C140.636719,14.1445312 139.699219,14.4726562 138.644531,14.4726562 C136.804688,14.4726562 135.960938,13.4414062 135.714844,11.90625 L143.753906,11.90625 C143.8125,11.7421875 143.859375,11.2617188 143.859375,10.78125 C143.859375,8.16796875 142.535156,4.875 138.433594,4.875 C134.472656,4.875 132.691406,7.96875 132.691406,11.015625 C132.691406,14.1679688 134.589844,17.0625 138.621094,17.0625 Z M135.714844,9.84375 C135.984375,8.37890625 136.722656,7.27734375 138.410156,7.27734375 C139.652344,7.27734375 140.660156,7.8984375 140.953125,9.10546875 C141.023438,9.33984375 141.046875,9.5859375 141.046875,9.84375 L135.714844,9.84375 Z" id="Shape"></path>
            <path d="M146.25,16.828125 L149.015625,16.828125 L149.015625,11.8828125 C149.015625,8.90625 150.410156,7.6640625 151.746094,7.6640625 C152.203125,7.6640625 152.636719,7.8046875 153.023438,8.0625 L154.324219,5.71875 C153.761719,5.14453125 152.953125,4.875 152.179688,4.875 C150.867188,4.875 149.542969,5.671875 149.039062,7.08984375 L149.039062,5.12109375 L146.25,5.12109375 L146.25,16.828125 Z" id="Path"></path>
            <polygon id="Path" fill-opacity="0.5" points="155.671875 16.828125 157.585938 16.828125 157.585938 14.765625 155.671875 14.765625"></polygon>
            <path d="M163.09375,16.984375 C164.640625,16.984375 165.859375,16.125 166.375,14.671875 L164.640625,14.015625 C164.4375,14.75 163.84375,15.2578125 163.078125,15.2578125 C161.75,15.2578125 161.25,14.125 161.25,12.9375 C161.25,11.7734375 161.765625,10.5859375 163.078125,10.5859375 C163.859375,10.5859375 164.4375,11.1171875 164.640625,11.8671875 L166.453125,11.1640625 C165.859375,9.609375 164.625,8.859375 163.078125,8.859375 C160.53125,8.859375 159.3125,10.890625 159.3125,12.9375 C159.3125,15.0078125 160.546875,16.984375 163.09375,16.984375 Z" id="Path" fill-opacity="0.5"></path>
            <path d="M171.03125,16.984375 C173.445312,16.984375 175.03125,15.1171875 175.03125,12.90625 C175.03125,10.703125 173.445312,8.859375 171.03125,8.859375 C168.617188,8.859375 167.03125,10.703125 167.03125,12.90625 C167.03125,15.1171875 168.617188,16.984375 171.03125,16.984375 Z M171.03125,15.34375 C169.59375,15.34375 169.015625,14.1875 169.015625,12.90625 C169.015625,11.625 169.59375,10.5078125 171.03125,10.5078125 C172.476562,10.5078125 173.046875,11.625 173.046875,12.90625 C173.046875,14.1875 172.476562,15.34375 171.03125,15.34375 Z" id="Shape" fill-opacity="0.5"></path>
            <path d="M176.59375,16.828125 L178.5,16.828125 L178.5,12.5390625 C178.5,11.5 179.109375,10.6328125 180.148438,10.6328125 C181.125,10.6328125 181.414062,11.40625 181.414062,12.3515625 L181.414062,16.828125 L183.320312,16.828125 L183.320312,12.5390625 C183.320312,11.5 183.921875,10.6328125 184.953125,10.6328125 C185.9375,10.6328125 186.226562,11.421875 186.226562,12.3828125 L186.226562,16.828125 L188.132812,16.828125 L188.132812,12.140625 C188.132812,10.4921875 187.320312,8.859375 185.335938,8.859375 C184.390625,8.859375 183.460938,9.2265625 182.835938,10.234375 C182.375,9.1953125 181.414062,8.859375 180.53125,8.859375 C179.734375,8.859375 178.929688,9.1328125 178.421875,10 L178.421875,9.0234375 L176.578125,9.0234375 L176.59375,16.828125 Z" id="Path" fill-opacity="0.5"></path>
        </g>
    </g>
</svg>