<svg width="227" height="62" viewBox="0 0 227 62" fill="none" xmlns="http://www.w3.org/2000/svg">
<path d="M129.613 28.3377H126.799L121.678 33.6037V23.0718H119.513V41.0337H121.678V35.1185L127.521 40.9616L127.593 41.0337H130.045H130.19V40.8173L123.625 34.325L129.613 28.3377Z" fill="#333333"/>
<path d="M115.693 37.9569C114.9 38.7504 113.746 39.1832 112.447 39.1832C110.211 39.1832 107.975 37.8126 107.975 34.6386C107.975 31.9696 109.85 30.094 112.447 30.094C113.601 30.094 114.683 30.5268 115.549 31.3203L115.621 31.3925L116.992 29.9498L116.92 29.8776C115.621 28.6513 114.106 28.0742 112.375 28.0742C108.408 28.0742 105.739 30.7433 105.739 34.6386C105.739 39.1832 109.057 41.203 112.375 41.203H112.447C114.178 41.203 115.838 40.5538 116.992 39.3275L117.064 39.2553L115.621 37.8126L115.693 37.9569Z" fill="#333333"/>
<path d="M100.977 35.1449C100.977 37.4533 99.39 39.1846 97.1538 39.2567C94.7733 39.2567 93.3306 37.814 93.3306 35.3614V28.3641H91.1665V35.3614C91.1665 38.9682 93.3306 41.2765 96.721 41.2765H96.7931C98.4523 41.2765 99.9671 40.483 100.977 39.2567L101.049 39.1124L101.121 41.0601H103.141V28.3641H100.977V35.1449Z" fill="#333333"/>
<path d="M79.6064 22.9993H73.042V41.0333H79.6064C85.8822 41.0333 88.6234 36.4166 88.6234 31.872C88.6234 27.616 85.8101 22.9993 79.6064 22.9993ZM86.3872 31.7999C86.3872 35.2624 84.2952 38.725 79.6785 38.725H75.3503V25.2355H79.6064C84.2231 25.2355 86.3872 28.6259 86.3872 31.7999Z" fill="#333333"/>
<path d="M198.71 33.1691H204.264V37.353C202.894 38.5072 201.235 39.1564 199.431 39.1564C194.526 39.1564 192.29 35.6217 192.29 32.1592C192.29 28.6245 194.526 24.8013 199.359 24.8013C201.307 24.8013 203.11 25.5227 204.553 26.8211L204.625 26.8932L205.924 25.3784L205.851 25.3063C204.12 23.575 201.812 22.7094 199.287 22.7094C196.546 22.7094 194.237 23.575 192.578 25.3063C190.847 27.0375 189.909 29.4901 189.981 32.2313C189.981 36.4874 192.434 41.3926 199.359 41.3926C199.431 41.3926 199.431 41.3926 199.503 41.3926C202.1 41.3926 204.553 40.3106 206.284 38.3629V31.2214H198.638V33.1691H198.71Z" fill="#333333"/>
<path d="M138.837 22.9993H132.273V41.0333H138.837C145.113 41.0333 147.854 36.4166 147.854 31.872C147.854 27.616 145.041 22.9993 138.837 22.9993ZM145.618 31.7999C145.618 35.2624 143.526 38.725 138.909 38.725H134.653V25.2355H138.909C143.454 25.2355 145.618 28.6259 145.618 31.7999Z" fill="#333333"/>
<path d="M215.178 28.0742C211.355 28.0742 208.614 30.8875 208.614 34.7108C208.614 38.534 211.355 41.2751 215.178 41.2751C219.001 41.2751 221.814 38.534 221.814 34.7108C221.814 30.8154 219.073 28.0742 215.178 28.0742ZM219.65 34.7108C219.65 37.3798 217.775 39.2553 215.178 39.2553C212.653 39.2553 210.778 37.3798 210.778 34.7108C210.778 31.9696 212.581 30.0219 215.25 30.0219C217.775 30.094 219.65 32.0417 219.65 34.7108Z" fill="#333333"/>
<path d="M160.208 35.1449C160.208 37.4533 158.621 39.1846 156.385 39.2567C154.004 39.2567 152.562 37.814 152.562 35.3614V28.3641H150.397V35.3614C150.397 38.9682 152.562 41.2765 155.88 41.2765H155.952C157.611 41.2765 159.126 40.483 160.136 39.2567L160.208 39.1124L160.28 41.0601H162.3V28.3641H160.136V35.1449H160.208Z" fill="#333333"/>
<path d="M174.925 37.9569C174.131 38.7504 172.977 39.1832 171.678 39.1832C169.442 39.1832 167.206 37.8126 167.206 34.6386C167.206 31.9696 169.081 30.094 171.678 30.094C172.833 30.094 173.915 30.5268 174.78 31.3203L174.852 31.3925L176.223 29.9498L176.151 29.8776C174.852 28.6513 173.338 28.0742 171.606 28.0742C167.639 28.0742 164.97 30.7433 164.97 34.6386C164.97 39.1832 168.288 41.203 171.606 41.203H171.678C173.41 41.203 175.069 40.5538 176.223 39.3275L176.295 39.2553L174.852 37.8126L174.925 37.9569Z" fill="#333333"/>
<path d="M188.843 28.3377H186.03L180.908 33.6037V23.0718H178.744V41.0337H180.908V35.1185L186.752 40.9616L186.824 41.0337H189.276H189.421V40.8173L182.856 34.325L188.843 28.3377Z" fill="#333333"/>
<path fill-rule="evenodd" clip-rule="evenodd" d="M31.8806 62C49.0014 62 62.8806 48.1208 62.8806 31C62.8806 13.8792 49.0014 0 31.8806 0C14.7598 0 0.880615 13.8792 0.880615 31C0.880615 48.1208 14.7598 62 31.8806 62Z" fill="#DE5833"/>
<path fill-rule="evenodd" clip-rule="evenodd" d="M36.2401 54.129C36.2401 53.8868 36.2995 53.8315 35.5296 52.297C33.4836 48.1998 31.4273 42.4235 32.3625 38.6984C32.533 38.0215 30.4353 13.6348 28.9525 12.8495C27.3043 11.9712 25.2764 10.5779 23.4216 10.2679C22.4805 10.1173 21.2466 10.1886 20.282 10.3185C20.1105 10.3416 20.1035 10.6498 20.2673 10.7053C20.9006 10.9198 21.6695 11.2923 22.1227 11.8556C22.2085 11.9622 22.0934 12.1299 21.9566 12.1349C21.5295 12.1508 20.7545 12.3298 19.732 13.1983C19.6138 13.2987 19.712 13.4852 19.8642 13.4551C22.0616 13.0204 24.3057 13.2346 25.6282 14.4367C25.714 14.5147 25.6692 14.6546 25.5573 14.685C14.0804 17.8039 16.3523 27.7875 19.4076 40.039C21.9966 50.4208 23.0494 54.1094 23.4238 55.3665C23.4877 55.581 23.6427 55.7546 23.8523 55.8332C27.8747 57.3417 36.2401 57.3721 36.2401 54.7344V54.129Z" fill="#DDDDDD"/>
<path fill-rule="evenodd" clip-rule="evenodd" d="M60.3376 31C60.3376 46.7164 47.597 59.457 31.8806 59.457C16.1642 59.457 3.42358 46.7164 3.42358 31C3.42358 15.2836 16.1642 2.54297 31.8806 2.54297C47.597 2.54297 60.3376 15.2836 60.3376 31ZM25.2394 56.1805C24.4531 53.7513 22.2554 46.7105 20.0848 37.8128C20.0125 37.5163 19.9402 37.2212 19.8683 36.9276L19.8665 36.9203C17.2391 26.1884 15.0931 17.423 26.8547 14.6693C26.9622 14.6441 27.0148 14.5156 26.9436 14.4311C25.5941 12.8302 23.0661 12.3055 19.8695 13.4083C19.7384 13.4535 19.6246 13.3213 19.706 13.209C20.3328 12.345 21.5578 11.6807 22.1625 11.3895C22.2875 11.3293 22.2799 11.1463 22.1475 11.1049C21.7519 10.981 21.0785 10.7915 20.3209 10.6693C20.1416 10.6403 20.1255 10.3332 20.3054 10.309C24.8371 9.69926 29.5693 11.0598 31.944 14.0511C31.9664 14.0793 31.9987 14.099 32.0338 14.1065C40.7297 15.974 41.3524 29.7203 40.3506 30.3464C40.1531 30.4698 39.5202 30.399 38.6853 30.3056C35.3018 29.927 28.6016 29.1774 34.1314 39.4832C34.1861 39.585 34.1138 39.7197 33.9996 39.7375C30.8919 40.2207 34.8498 49.926 37.7838 56.363C49.3189 53.689 57.9158 43.3484 57.9158 31C57.9158 16.6212 46.2594 4.96484 31.8806 4.96484C17.5018 4.96484 5.84546 16.6212 5.84546 31C5.84546 43.0836 14.0775 53.2445 25.2394 56.1805Z" fill="white"/>
<path d="M41.7038 43.9318C41.0418 43.6251 38.4964 45.4505 36.807 46.8518C36.4539 46.3522 35.7882 45.9891 34.2865 46.2502C32.9721 46.4787 32.2466 46.7956 31.9228 47.342C29.8483 46.5555 26.3583 45.3417 25.5151 46.5139C24.5935 47.7954 25.7455 53.8573 26.9695 54.6444C27.6087 55.0553 30.6656 53.0904 32.262 51.7354C32.5195 52.0983 32.9342 52.306 33.7866 52.2862C35.0758 52.2563 37.1668 51.9563 37.4914 51.3559C37.5111 51.3194 37.5281 51.2763 37.5425 51.2272C39.1833 51.8404 42.0711 52.4895 42.7163 52.3925C44.3975 52.14 42.4821 44.2925 41.7038 43.9318Z" fill="#3CA82B"/>
<path d="M36.9619 47.0312C37.0315 47.1553 37.0874 47.2862 37.135 47.4193C37.3689 48.0735 37.75 50.1547 37.4618 50.6687C37.1737 51.1828 35.3018 51.431 34.1471 51.4509C32.9924 51.4709 32.7325 51.0485 32.4986 50.3944C32.3114 49.871 32.2193 48.6406 32.2215 47.9361C32.1742 46.8911 32.556 46.5237 34.3208 46.2381C35.6268 46.0267 36.3173 46.2725 36.7159 46.6932C38.57 45.3093 41.6636 43.3564 41.9653 43.7133C43.4699 45.493 43.66 49.7296 43.3343 51.434C43.2277 51.9913 38.246 50.882 38.246 50.281C38.246 47.7857 37.5985 47.1012 36.9619 47.0312Z" fill="#4CBA3C"/>
<path d="M26.049 46.2519C26.457 45.6062 29.7658 46.4092 31.5821 47.2175C31.5821 47.2175 31.2089 48.9085 31.8031 50.9007C31.9769 51.4834 27.6245 54.0771 27.0563 53.6309C26.3998 53.1151 25.1914 47.6093 26.049 46.2519Z" fill="#4CBA3C"/>
<path fill-rule="evenodd" clip-rule="evenodd" d="M27.6515 33.1344C27.9192 31.9703 29.1663 29.7767 33.6195 29.83C35.8709 29.8206 38.6675 29.829 40.5216 29.6184C43.2773 29.3054 45.3228 28.6388 46.6858 28.1192C48.6135 27.3838 49.2976 27.5478 49.5375 27.9879C49.801 28.4714 49.4904 29.3063 48.8169 30.0749C47.5303 31.543 45.2173 32.6805 41.1323 33.0182C37.0474 33.3558 34.3411 32.26 33.1761 34.0441C32.6737 34.8135 33.0621 36.6269 37.0126 37.198C42.3508 37.9684 46.735 36.2697 47.2768 37.2956C47.8185 38.3216 44.698 40.409 39.3511 40.4527C34.0042 40.4964 30.6645 38.5806 29.4801 37.6283C27.9775 36.4202 27.305 34.6581 27.6515 33.1344Z" fill="#FFCC33"/>
<g opacity="0.8">
<path d="M34.4609 20.4053C34.7591 19.917 35.4205 19.54 36.5028 19.54C37.5851 19.54 38.0943 19.9707 38.4468 20.451C38.5185 20.5487 38.4099 20.6636 38.2986 20.6156C38.2719 20.604 38.2448 20.5922 38.2173 20.5801C37.8215 20.4073 37.3354 20.195 36.5028 20.1832C35.6123 20.1705 35.0508 20.3935 34.6972 20.5857C34.578 20.6505 34.3902 20.5211 34.4609 20.4053Z" fill="#14307E"/>
<path d="M22.2759 21.0301C23.3268 20.5909 24.1528 20.6477 24.7367 20.7858C24.8596 20.8149 24.9451 20.6826 24.8468 20.6033C24.3935 20.2378 23.3792 19.7839 22.0563 20.2772C20.8762 20.7173 20.3199 21.6316 20.3167 22.2327C20.3159 22.3743 20.6073 22.3863 20.6827 22.2664C20.8864 21.9424 21.2249 21.4693 22.2759 21.0301Z" fill="#14307E"/>
<path fill-rule="evenodd" clip-rule="evenodd" d="M37.4221 27.0862C36.493 27.0862 35.7394 26.3346 35.7394 25.4097C35.7394 24.4847 36.493 23.7331 37.4221 23.7331C38.3513 23.7331 39.1049 24.4847 39.1049 25.4097C39.1049 26.3346 38.3513 27.0862 37.4221 27.0862ZM38.6073 24.8543C38.6073 24.6147 38.4111 24.4207 38.1716 24.4207C37.9321 24.4207 37.738 24.6147 37.736 24.8543C37.736 25.0938 37.9321 25.2878 38.1716 25.2878C38.4132 25.2878 38.6073 25.0938 38.6073 24.8543Z" fill="#14307E"/>
<path fill-rule="evenodd" clip-rule="evenodd" d="M26.2732 26.5699C26.2732 27.6498 25.3957 28.5252 24.3118 28.5252C23.2299 28.5252 22.3503 27.6498 22.3503 26.5699C22.3503 25.4901 23.2299 24.6147 24.3118 24.6147C25.3937 24.6147 26.2732 25.4901 26.2732 26.5699ZM25.6951 25.9216C25.6951 25.6429 25.468 25.4158 25.1872 25.4158C24.9085 25.4158 24.6813 25.6408 24.6793 25.9216C24.6793 26.2004 24.9064 26.4275 25.1872 26.4275C25.468 26.4275 25.6951 26.2004 25.6951 25.9216Z" fill="#14307E"/>
</g>
<path fill-rule="evenodd" clip-rule="evenodd" d="M31.8774 56.6633C46.0527 56.6633 57.544 45.1719 57.544 30.9966C57.544 16.8213 46.0527 5.32996 31.8774 5.32996C17.7021 5.32996 6.21069 16.8213 6.21069 30.9966C6.21069 45.1719 17.7021 56.6633 31.8774 56.6633ZM60.294 30.9966C60.294 46.6907 47.5714 59.4133 31.8774 59.4133C16.1833 59.4133 3.46069 46.6907 3.46069 30.9966C3.46069 15.3025 16.1833 2.57996 31.8774 2.57996C47.5714 2.57996 60.294 15.3025 60.294 30.9966Z" fill="white"/>
<path d="M224.5 41.2769C224.128 41.2769 223.811 41.4116 223.549 41.6812C223.291 41.9448 223.162 42.2576 223.162 42.6194C223.162 42.9944 223.293 43.313 223.555 43.5752C223.816 43.8374 224.131 43.9685 224.5 43.9685C224.868 43.9685 225.182 43.8367 225.443 43.573C225.703 43.3079 225.834 42.99 225.834 42.6194C225.834 42.259 225.704 41.9463 225.445 41.6812C225.183 41.4116 224.868 41.2769 224.5 41.2769ZM226.119 42.6194C226.119 43.0793 225.958 43.4668 225.634 43.7817C225.319 44.0864 224.941 44.2388 224.5 44.2388C224.044 44.2388 223.661 44.0828 223.349 43.7708C223.037 43.4587 222.881 43.075 222.881 42.6194C222.881 42.1462 223.049 41.7529 223.386 41.4395C223.702 41.1465 224.074 41 224.5 41C224.947 41 225.328 41.1582 225.645 41.4746C225.961 41.791 226.119 42.1726 226.119 42.6194ZM224.792 42.2832C224.792 42.1851 224.744 42.1169 224.647 42.0789C224.583 42.054 224.492 42.0415 224.375 42.0415H224.26V42.5623H224.443C224.553 42.5623 224.638 42.5403 224.7 42.4963C224.761 42.4524 224.792 42.3813 224.792 42.2832ZM223.79 43.5203V41.7251C223.902 41.7251 224.068 41.7258 224.289 41.7273C224.512 41.7273 224.635 41.728 224.66 41.7295C224.802 41.7397 224.92 41.7705 225.014 41.8218C225.174 41.9097 225.254 42.0525 225.254 42.2502C225.254 42.4011 225.211 42.5103 225.126 42.5776C225.043 42.645 224.939 42.6853 224.816 42.6985C224.929 42.7219 225.014 42.7563 225.071 42.8018C225.177 42.8867 225.229 43.0208 225.229 43.2039V43.3643C225.229 43.3818 225.23 43.3994 225.232 43.417C225.235 43.4346 225.239 43.4521 225.245 43.4697L225.26 43.5203H224.812C224.797 43.4631 224.788 43.3804 224.783 43.272C224.779 43.1636 224.77 43.0903 224.755 43.0522C224.731 42.9893 224.688 42.9453 224.623 42.9204C224.588 42.9058 224.534 42.8962 224.463 42.8918L224.359 42.8853H224.26V43.5203H223.79Z" fill="#333333"/>
</svg>
