<svg width="167" height="62" viewBox="0 0 167 62" fill="none" xmlns="http://www.w3.org/2000/svg">
<path d="M38.1335 0.869873C33.9597 0.869873 30.4973 4.04014 29.8807 8.13711L28.7424 19.3062L38.8924 18.0869C43.161 17.6967 46.5285 13.9899 46.5285 9.45399C46.4811 4.72297 42.7342 0.869873 38.1335 0.869873Z" fill="#1D1D1D"/>
<path d="M0 35.1088C0 42.7662 6.02357 49.0093 13.5175 49.0093C20.6319 49.0093 26.4658 43.3028 26.9875 36.1331L28.7424 19.3062L12.1894 21.2572C5.31213 21.9888 0 27.8903 0 35.1088Z" fill="#1D1D1D"/>
<path d="M70.3383 44.9611C70.6703 31.9873 63.8404 23.1593 52.7893 23.1593C42.2124 23.1593 34.8608 31.3045 34.8608 42.2297C34.8608 52.8136 41.5484 61.6416 53.0738 61.6416C62.8444 61.6416 68.0142 55.5449 69.9588 50.0823H60.4729C58.6231 53.3013 55.8248 54.3256 52.979 54.3256C48.6155 54.3256 44.4891 51.2528 43.9674 44.9611H70.3383ZM52.7418 30.0364C56.5836 30.0364 60.8523 32.2312 61.042 38.4254H44.1096C44.8211 32.2312 49.2795 30.0364 52.7418 30.0364Z" fill="#1D1D1D"/>
<path d="M83.666 23.9885H74.5121V60.7149H83.666V41.5957C83.666 35.7917 84.994 30.7192 91.0176 30.7192C96.1875 30.7192 97.1835 34.865 97.1835 39.596V60.7149H106.337V37.5475C106.337 28.4756 102.543 23.1593 94.0057 23.1593C89.5473 23.1593 85.7055 25.0615 83.666 28.817V23.9885Z" fill="#1D1D1D"/>
<path d="M113.642 23.9885H108.614V30.4753H113.642V50.8139C113.642 58.1299 115.159 60.7149 123.412 60.7149H130.1V53.9354H127.301C124.029 53.9354 122.796 53.2038 122.796 49.4482V30.4753H130.242V23.9885H122.796V13.9899H113.642V23.9885Z" fill="#1D1D1D"/>
<path d="M154.858 24.1836C154.241 24.1348 153.483 24.0373 152.866 24.0373C148.692 24.0373 145.514 25.7931 143.427 30.3778V23.9397H134.416V60.6661H143.57V41.4006C143.57 34.5236 146.558 32.8165 151.064 32.8165C152.392 32.8165 153.53 32.8165 154.858 33.0116V24.1836Z" fill="#1D1D1D"/>
<path d="M157.846 23.9885V60.7149H167V23.9885H157.846ZM162.304 12.1853C159.838 12.1853 157.799 14.2338 157.799 16.8188C157.799 19.355 159.791 21.4523 162.304 21.4523H162.494C164.961 21.4523 167 19.4038 167 16.8188C167 14.2826 165.008 12.1853 162.494 12.1853H162.304Z" fill="#1D1D1D"/>
</svg>
