<?xml version="1.0" encoding="utf-8"?>
<!-- Generator: Adobe Illustrator 25.4.1, SVG Export Plug-In . SVG Version: 6.00 Build 0)  -->
<svg version="1.1" id="Layer_1" xmlns="http://www.w3.org/2000/svg" xmlns:xlink="http://www.w3.org/1999/xlink" x="0px" y="0px"
	 viewBox="0 0 285.89 105.25" style="enable-background:new 0 0 285.89 105.25;" xml:space="preserve">
<style type="text/css">
	.st0{display:none;fill:#CC0000;stroke:#231F20;stroke-miterlimit:10;}
	.st1{fill:#CC0000;}
</style>
<g>
	<rect x="0" class="st0" width="462.92" height="105.25"/>
	<path class="st1" d="M0,0h28.75v19.57H0V0z M0,28.54h28.75v75.02H0V28.54z"/>
	<path class="st1" d="M89.87,74.17l27.34,3.11c-1.51,5.69-3.98,10.63-7.42,14.8c-3.44,4.17-7.83,7.41-13.17,9.72
		c-5.34,2.3-12.14,3.46-20.38,3.46c-7.96,0-14.59-0.74-19.89-2.22c-5.3-1.48-9.85-3.88-13.67-7.21c-3.81-3.31-6.8-7.21-8.97-11.68
		c-2.17-4.47-3.25-10.4-3.25-17.78c0-7.72,1.32-14.14,3.96-19.27c1.93-3.77,4.57-7.14,7.91-10.13c3.34-2.99,6.78-5.21,10.31-6.67
		c5.6-2.3,12.78-3.46,21.55-3.46c12.24,0,21.58,2.19,28.01,6.57c6.43,4.38,10.94,10.79,13.53,19.21l-27.05,3.61
		c-0.85-3.21-2.39-5.62-4.63-7.24c-2.24-1.62-5.24-2.44-9.01-2.44c-4.76,0-8.61,1.71-11.55,5.12c-2.94,3.41-4.42,8.57-4.42,15.48
		c0,6.16,1.46,10.84,4.38,14.03c2.92,3.2,6.64,4.79,11.16,4.79c3.77,0,6.94-0.96,9.5-2.9C86.68,81.14,88.6,78.18,89.87,74.17z"/>
	<path class="st1" d="M194.46,103.56h-26.84V91.41c-4,4.98-8.04,8.54-12.11,10.67c-4.07,2.11-9.08,3.17-15.01,3.17
		c-7.91,0-14.12-2.37-18.61-7.09c-4.5-4.74-6.74-12.02-6.74-21.87V28.54h28.89v41.25c0,4.71,0.87,8.05,2.61,10.03
		c1.74,1.97,4.19,2.96,7.35,2.96c3.44,0,6.25-1.32,8.44-3.95c2.19-2.64,3.28-7.37,3.28-14.2V28.54h28.75V103.56z"/>
	<path class="st1" d="M195.88,0h29.38v53.45l21.48-24.91h35.39l-26.92,26.28l28.47,48.74h-32.4L236.1,73.48l-10.83,10.58v19.5
		h-29.38V0z"/>
</g>
</svg>
