<svg xmlns="http://www.w3.org/2000/svg" width="338" height="87" viewBox="0 0 338 87">
  <g id="Group_8" data-name="Group 8" transform="translate(-1536 -871)">
    <rect id="Rectangle_1" data-name="Rectangle 1" width="338" height="87" transform="translate(1536 871)" fill="rgba(255,255,255,0)"/>
    <g id="Group_7" data-name="Group 7" transform="translate(326 182)">
      <path id="Path_1" data-name="Path 1" d="M19.87,50.72a10.05,10.05,0,0,0,9,5.11c3.49,0,7.12-2.15,7.12-5.71,0-8.54-18.41-2.56-18.41-14.39,0-6,5.51-8.94,10.62-8.94s8.93,1.89,10.95,5.85l-3.63,2.15a7.6,7.6,0,0,0-7.32-4.37c-2.9,0-6.59,1.75-6.59,5C21.62,43.8,40,37.28,40,49.85c0,6.38-5.32,9.61-11.23,9.61-5.31,0-10.08-2-12.5-6.32Z" transform="translate(1216.73 689.89)" fill="#646463"/>
      <path id="Path_2" data-name="Path 2" d="M72.5,52.81c-3.16,4.7-7.93,6.65-13.44,6.65-9.48,0-15.73-6.79-15.73-16.4,0-9.28,6.45-16.27,15.52-16.27,9.55,0,14.59,7.33,14.59,14.52v2.83H47.36c0,3.36,2.35,11.69,11.76,11.69,4.1,0,8.41-2.15,10.42-5.51Zm-3.09-12.3c0-5.52-4.78-10.09-10.76-10.09-8.8,0-11.29,8.47-11.29,10.09Z" transform="translate(1216.73 689.89)" fill="#646463"/>
      <path id="Path_3" data-name="Path 3" d="M105.1,54.08a14.42,14.42,0,0,1-11.43,5.38c-9.54,0-16.33-6.86-16.33-16.33s6.79-16.34,16.33-16.34a15.21,15.21,0,0,1,11.56,5.38L102,34.59c-2.36-2.55-5.11-4.17-8.34-4.17-7.59,0-12.3,5.72-12.3,12.71s4.71,12.7,12.3,12.7a10.84,10.84,0,0,0,8.34-4.3Z" transform="translate(1216.73 689.89)" fill="#646463"/>
      <path id="Path_4" data-name="Path 4" d="M134.34,49.92c0,2.28.33,7.12.33,8.73h-4c-.07-2.28-.14-4.84-.27-5.44h-.2a11.62,11.62,0,0,1-10.62,6.25c-9.68,0-11.83-6.59-11.83-13.38V27.6h4V45.88c0,5,1.41,9.95,7.8,9.95,6,0,10.75-4.17,10.75-12.7V27.6h4Z" transform="translate(1216.73 689.89)" fill="#646463"/>
      <path id="Path_5" data-name="Path 5" d="M140.72,36.34c0-2.29-.34-7.13-.34-8.74h4c.06,2.29.13,4.84.27,5.44,2-3.62,5.24-6.25,9.88-6.25a9.6,9.6,0,0,1,2.35.34l-.47,4a5,5,0,0,0-1.55-.26c-7,0-10.15,4.84-10.15,10.89V58.65h-4Z" transform="translate(1216.73 689.89)" fill="#646463"/>
      <path id="Path_6" data-name="Path 6" d="M184.48,52.81c-3.16,4.7-7.94,6.65-13.45,6.65-9.47,0-15.73-6.79-15.73-16.4,0-9.28,6.46-16.27,15.53-16.27,9.55,0,14.59,7.33,14.59,14.52v2.83H159.34c0,3.36,2.35,11.69,11.76,11.69,4.1,0,8.4-2.15,10.42-5.51Zm-3.1-12.3c0-5.52-4.77-10.09-10.75-10.09-8.81,0-11.29,8.47-11.29,10.09Z" transform="translate(1216.73 689.89)" fill="#646463"/>
      <path id="Path_7" data-name="Path 7" d="M278,13.11a29.84,29.84,0,0,0-25,13.68,33.6,33.6,0,0,1,0,32.35,29.86,29.86,0,1,0,25.09-46Z" transform="translate(1216.73 689.89)" fill="#c2171c"/>
      <path id="Path_8" data-name="Path 8" d="M289,54.29V59H268.48V53.5L280.38,42c1.43-1.38,3.16-3.07,3.16-5.19,0-2.51-2.08-4-4.46-4a4.56,4.56,0,0,0-4.71,4.16l-5.45-.44c.51-5.66,4.63-8.65,10.16-8.65s9.91,2.81,9.91,8.7c0,3.85-2,6.49-4.71,9l-9.48,8.78Z" transform="translate(1216.73 689.89)" fill="#fff"/>
      <path id="Path_9" data-name="Path 9" d="M223.43,13.11A29.86,29.86,0,1,0,253.28,43a29.86,29.86,0,0,0-29.85-29.89Z" transform="translate(1216.73 689.89)" fill="#c2171c"/>
      <path id="Path_10" data-name="Path 10" d="M228.34,14.96,219.43,45.6h-5.2l-7.09-23.33h-.09l-7.1,23.33h-5.02l-9.04-30.64h5.97l5.76,22.07h.08l6.88-22.07h5.37l6.75,22.07h.09l6.01-22.07Z" transform="translate(1233.04 703)" fill="#fff"/>
    </g>
  </g>
</svg>
