<?xml version="1.0" encoding="UTF-8" standalone="no"?>
<svg
   id="svg5"
   viewBox="0 0 153.367 49.019"
   version="1.1"
   sodipodi:docname="Slide-SideBySide-Logo-black.svg"
   inkscape:version="1.2.2 (b0a8486541, 2022-12-01)"
   inkscape:export-filename="Slide-SideBySide-Logo-black.pdf"
   inkscape:export-xdpi="96"
   inkscape:export-ydpi="96"
   xmlns:inkscape="http://www.inkscape.org/namespaces/inkscape"
   xmlns:sodipodi="http://sodipodi.sourceforge.net/DTD/sodipodi-0.dtd"
   xmlns="http://www.w3.org/2000/svg"
   xmlns:svg="http://www.w3.org/2000/svg">
  <sodipodi:namedview
     id="namedview1847"
     pagecolor="#ffffff"
     bordercolor="#000000"
     borderopacity="0.25"
     inkscape:showpageshadow="2"
     inkscape:pageopacity="0.0"
     inkscape:pagecheckerboard="0"
     inkscape:deskcolor="#d1d1d1"
     showgrid="false"
     inkscape:zoom="4.8144596"
     inkscape:cx="62.312289"
     inkscape:cy="24.613354"
     inkscape:window-width="1864"
     inkscape:window-height="1209"
     inkscape:window-x="56"
     inkscape:window-y="32"
     inkscape:window-maximized="1"
     inkscape:current-layer="svg5" />
  <defs
     id="defs1821">
    <style
       id="style1819">.cls-1{opacity:.28;}.cls-1,.cls-2,.cls-3{fill:#0086ff;}.cls-2{isolation:isolate;opacity:.687;}</style>
  </defs>
  <g
     id="Slide_Logo"
     style="fill:#000000">
    <rect
       id="rect3466-2"
       class="cls-2"
       x="94.638"
       y=".546"
       width="2.022"
       height="47.927"
       rx="1.011"
       ry="1.011"
       style="fill:#000000" />
    <g
       id="g2374"
       style="fill:#000000">
      <path
         id="path1226"
         class="cls-3"
         d="M8.826,13.844c-2.563,0-4.674.751-6.237,2.266-1.563,1.514-2.323,3.542-2.323,5.919,0,3.593,1.992,6.311,5.657,7.819l3.428,1.433c1.254.555,2.118,1.152,2.61,1.683.432.571.706,1.304.706,2.348,0,1.366-.36,2.253-1.043,2.855-.713.627-1.577.905-2.854.905-1.374,0-2.345-.332-3.047-.995-.693-.653-1.059-1.615-1.059-2.981v-.318c0-.368-.296-.666-.662-.667H.662c-.366,0-.662.299-.662.667v.318C0,37.676.749,39.813,2.323,41.339c1.57,1.521,3.728,2.266,6.341,2.266,2.664,0,4.87-.744,6.492-2.26,1.627-1.52,2.439-3.66,2.439-6.299,0-2.081-.51-3.809-1.589-5.076-.004-.003-.008-.007-.012-.01-1.034-1.156-2.499-2.165-4.421-2.994-.002-.002-.004-.004-.006-.006l-3.444-1.437c-1.209-.507-1.926-1.033-2.295-1.611-.009-.015-.018-.03-.028-.044-.422-.552-.608-1.244-.608-2.105,0-1.15.298-1.888.917-2.511.597-.601,1.459-.927,2.66-.927,1.295,0,2.189.364,2.848,1.066.613.71.993,1.753.993,3.171v.322c0,.368.297.667.663.667h3.339c.366.003.665-.293.668-.662,0-.002,0-.003,0-.005v-.694c0-2.488-.813-4.557-2.317-6.07-1.516-1.526-3.625-2.276-6.138-2.276h0Z"
         style="fill:#000000" />
      <path
         id="path1232"
         class="cls-3"
         d="M21.901,5.231c-.366,0-.662.299-.662.667v29.493c0,2.506.622,4.532,2.054,5.915,1.422,1.427,3.432,2.055,5.922,2.055h.899c.366,0,.662-.299.662-.667v-3.255c0-.368-.296-.666-.662-.667h-.795c-1.152,0-1.865-.289-2.339-.822-.474-.533-.756-1.405-.756-2.722V5.897c0-.368-.297-.667-.663-.667-.002,0-.003,0-.005,0h-3.655Z"
         style="fill:#000000" />
      <path
         id="path1238"
         class="cls-3"
         d="M34.623,5.281c-.366,0-.662.299-.662.667v4.803c0,.368.296.666.662.667h3.655c.366,0,.662-.299.662-.667v-4.803c0-.368-.296-.666-.662-.667h-3.655ZM34.623,14.455c-.366,0-.662.299-.662.667v27.573c0,.368.296.666.662.667h3.605c.366,0,.662-.299.662-.667V15.121c0-.368-.296-.666-.662-.667h-3.605Z"
         style="fill:#000000" />
      <path
         id="path1244"
         class="cls-3"
         d="M56.835,5.231c-.366,0-.662.299-.662.667v10.295c-1.239-1.273-2.719-2.165-4.588-2.165-2.335,0-4.311.902-5.751,2.583-1.473,1.719-2.12,4.238-2.12,7.475v9.652c0,3.289.647,5.806,2.12,7.525,1.445,1.686,3.427,2.527,5.751,2.527,1.855,0,3.344-.827,4.588-2.049v.955c0,.368.296.666.662.667h3.604c.366,0,.662-.299.662-.667V5.897c0-.368-.296-.666-.662-.667h-3.604ZM52.275,18.614c1.348,0,2.22.445,2.865,1.383.645.937,1.033,2.458,1.033,4.566v8.802c0,2.042-.424,3.565-1.049,4.465,0,0,0,.004,0,.006-.682.957-1.526,1.365-2.849,1.365-1.284,0-2.076-.372-2.698-1.222-.585-.799-.933-2.384-.933-4.67v-8.802c0-2.113.361-3.626.965-4.548.604-.923,1.403-1.345,2.666-1.345h0Z"
         style="fill:#000000" />
      <path
         id="path1250"
         class="cls-3"
         d="M74.325,14.027c-2.692,0-4.925.933-6.485,2.676-.002.002-.004.004-.006.006-1.571,1.814-2.285,4.396-2.285,7.692v8.908c0,3.374.706,5.997,2.225,7.797s3.826,2.682,6.712,2.682c2.658,0,4.836-.748,6.357-2.389l.006-.004c1.525-1.597,2.301-3.973,2.301-6.965v-.16c0-.368-.296-.666-.662-.667h-3.554c-.366,0-.663.298-.664.666h0v.211c0,1.75-.359,2.964-.954,3.709s-1.435,1.116-2.728,1.116c-1.4,0-2.312-.383-3.035-1.293-.004-.004-.008-.008-.012-.012-.673-.804-1.065-2.362-1.065-4.748v-2.583h12.06c.366,0,.662-.299.662-.667v-5.603c0-3.304-.771-5.888-2.395-7.698-.002-.003-.004-.007-.006-.01-1.603-1.728-3.783-2.666-6.475-2.666h0ZM74.375,18.614c1.323,0,2.204.435,2.881,1.25.646.828,1.071,2.333,1.071,4.538v2.159h-7.849v-2.054c0-2.276.387-3.782,1.027-4.598.004-.006.007-.012.01-.018.611-.835,1.533-1.277,2.859-1.277h0Z"
         style="fill:#000000" />
    </g>
    <g
       id="g28972"
       style="fill:#000000">
      <path
         id="rect6364-2"
         class="cls-3"
         d="M136.108,10.683l-.04.026c-2.696,1.726-6.281.939-8.007-1.757h0c-1.726-2.696-.939-6.281,1.757-8.007l.04-.026c2.696-1.726,6.281-.939,8.007,1.757h0c1.726,2.696.939,6.281-1.757,8.007Z"
         style="fill:#000000" />
      <path
         id="rect6364-2-8"
         class="cls-3"
         d="M124.717,17.975l-.041.026c-2.696,1.726-6.281.939-8.007-1.757h0c-1.726-2.696-.939-6.281,1.757-8.007l.041-.026c2.696-1.726,6.281-.939,8.007,1.757h0c1.726,2.696.939,6.281-1.757,8.007Z"
         style="fill:#000000" />
      <path
         id="rect6364-2-8-2"
         class="cls-3"
         d="M131.968,29.391l-.04.026c-2.696,1.726-6.281.939-8.007-1.757h0c-1.726-2.696-.939-6.281,1.757-8.007l.04-.026c2.696-1.726,6.281-.939,8.007,1.757h0c1.726,2.696.939,6.281-1.757,8.007Z"
         style="fill:#000000" />
      <path
         id="rect6364-2-8-0"
         class="cls-3"
         d="M139.259,40.782l-.04.026c-2.696,1.726-6.281.939-8.007-1.757h0c-1.726-2.696-.939-6.281,1.757-8.007l.04-.026c2.696-1.726,6.281-.939,8.007,1.757h0c1.726,2.696.939,6.281-1.757,8.007Z"
         style="fill:#000000" />
      <path
         id="rect6364-2-8-23"
         class="cls-3"
         d="M127.868,48.074l-.04.026c-2.696,1.726-6.281.939-8.007-1.757h0c-1.726-2.696-.939-6.281,1.757-8.007l.04-.026c2.696-1.726,6.281-.939,8.007,1.757h0c1.726,2.696.939,6.281-1.757,8.007Z"
         style="fill:#000000" />
      <path
         id="path1835"
         class="cls-1"
         d="M113.286,25.292l-.041.026c-2.696,1.726-6.281.939-8.007-1.757h0c-1.726-2.696-.939-6.281,1.757-8.007l.041-.026c2.696-1.726,6.281-.939,8.007,1.757h0c1.726,2.696.939,6.281-1.757,8.007Z"
         style="fill:#000000" />
      <path
         id="rect6364-2-8-3"
         class="cls-1"
         d="M120.56,36.657l-.041.026c-2.696,1.726-6.281.939-8.007-1.757h0c-1.726-2.696-.939-6.281,1.757-8.007l.041-.026c2.696-1.726,6.281-.939,8.007,1.757h0c1.726,2.696.939,6.281-1.757,8.007Z"
         style="fill:#000000" />
      <path
         id="rect6364-2-8-4"
         class="cls-1"
         d="M143.399,22.074l-.041.026c-2.696,1.726-6.281.939-8.007-1.757h0c-1.726-2.696-.939-6.281,1.757-8.007l.041-.026c2.696-1.726,6.281-.939,8.007,1.757h0c1.726,2.696.939,6.281-1.757,8.007Z"
         style="fill:#000000" />
      <path
         id="rect6364-2-8-5"
         class="cls-1"
         d="M150.691,33.465l-.041.026c-2.696,1.726-6.281.939-8.007-1.757h0c-1.726-2.696-.939-6.281,1.757-8.007l.041-.026c2.696-1.726,6.281-.939,8.007,1.757h0c1.726,2.696.939,6.281-1.757,8.007Z"
         style="fill:#000000" />
    </g>
  </g>
  <path
     class="cls-3"
     d="M148.947,14.027v.277h-.535v1.396h-.332v-1.396h-.535v-.277h1.402ZM150.756,15.7l-.061-.984c-.007-.129-.007-.289-.013-.468h-.019c-.043.147-.092.344-.141.498l-.301.929h-.345l-.301-.953c-.031-.129-.08-.326-.117-.474h-.019c0,.154-.006.314-.013.468l-.061.984h-.32l.123-1.673h.498l.289.818c.037.129.068.252.111.425h.006c.043-.154.08-.296.117-.418l.289-.825h.48l.129,1.673h-.332Z"
     id="path1842"
     style="fill:#000000" />
  <path
     class="cls-3"
     d="M84.602,14.027v.277h-.535v1.396h-.332v-1.396h-.535v-.277h1.402ZM86.411,15.7l-.061-.984c-.007-.129-.007-.289-.013-.468h-.019c-.043.147-.092.344-.141.498l-.301.929h-.345l-.301-.953c-.031-.129-.08-.326-.117-.474h-.019c0,.154-.006.314-.013.468l-.061.984h-.32l.123-1.673h.498l.289.818c.037.129.068.252.111.425h.006c.043-.154.08-.296.117-.418l.289-.825h.48l.129,1.673h-.332Z"
     id="path1844"
     style="fill:#000000" />
</svg>
