<svg xmlns="http://www.w3.org/2000/svg" id="artwork" viewBox="38.63 41.98 241.09 57.4"><defs><style>.cls-1{fill:#fff;}</style></defs><rect class="cls-1" x="47.97" y="50.22" height="11.87"/><path class="cls-1" d="M77.64,62.08h0A22.56,22.56,0,0,0,73.72,51,22.56,22.56,0,0,1,77.64,62.08Z"/><path class="cls-1" d="M64.1,53.5a8.89,8.89,0,0,1,.85.89A8.89,8.89,0,0,0,64.1,53.5Z"/><path class="cls-1" d="M63.12,52.67c-.25-.18-.5-.35-.77-.52C62.62,52.32,62.87,52.49,63.12,52.67Z"/><rect class="cls-1" x="82.95" y="42.01" width="8.21" height="7.33"/><rect class="cls-1" x="82.95" y="53.98" width="8.21" height="8.11"/><polygon class="cls-1" points="103.3 53.98 94.78 53.98 97.79 62.08 106.09 62.08 103.3 53.98"/><polygon class="cls-1" points="117.06 62.08 125.36 62.08 128.37 53.98 119.85 53.98 117.06 62.08"/><polygon class="cls-1" points="152.41 62.08 160.7 62.08 163.71 53.98 155.19 53.98 152.41 62.08"/><polygon class="cls-1" points="138.65 53.98 130.13 53.98 133.14 62.08 141.43 62.08 138.65 53.98"/><rect class="cls-1" x="167.83" y="42.01" width="8.21" height="7.33"/><rect class="cls-1" x="167.83" y="53.98" width="8.21" height="8.11"/><rect class="cls-1" x="203.17" y="42.01" width="9.34" height="20.07"/><rect class="cls-1" x="227.61" y="42.01" width="9.34" height="20.07"/><path class="cls-1" d="M262.66,51.88c-.44,0-.86,0-1.27,0l0,0H242.79v7.55h0v2.65h8V59.53h10.3A10.17,10.17,0,0,1,268,62.08h10.05A16,16,0,0,0,262.66,51.88Z"/><path class="cls-1" d="M73,50a18.48,18.48,0,0,0-4.59-4.4c-5-3.3-10.77-3.62-15.09-3.62H38.63V62.08H48V50.22h6.64a14.31,14.31,0,0,1,7.74,1.93c.27.17.52.34.77.52a10,10,0,0,1,1,.83,8.89,8.89,0,0,1,.85.89c.13.15.26.31.38.47A12.24,12.24,0,0,1,66.09,56a16.67,16.67,0,0,1,2.12,6.1h9.43A22.56,22.56,0,0,0,73.72,51C73.49,50.66,73.28,50.34,73,50Z"/><path class="cls-1" d="M58,79.87A13.28,13.28,0,0,0,61,79,13.28,13.28,0,0,1,58,79.87Z"/><path class="cls-1" d="M77.58,69h0a22.89,22.89,0,0,1-4.15,11.23A22.89,22.89,0,0,0,77.58,69Z"/><rect class="cls-1" x="47.97" y="68.99" height="11.18"/><path class="cls-1" d="M65.26,75.84a10.88,10.88,0,0,1-1.9,1.81A10.88,10.88,0,0,0,65.26,75.84Z"/><rect class="cls-1" x="82.95" y="68.99" width="8.21" height="19.39"/><polygon class="cls-1" points="107.56 88.38 115.59 88.38 122.79 68.99 114.69 68.99 111.58 78.04 108.46 68.99 100.36 68.99 107.56 88.38"/><polygon class="cls-1" points="142.91 88.38 150.93 88.38 158.13 68.99 150.03 68.99 146.92 78.04 143.81 68.99 135.7 68.99 142.91 88.38"/><rect class="cls-1" x="167.83" y="68.99" width="8.21" height="19.39"/><path class="cls-1" d="M203.17,69v1.53c0,6.21.63,10.22,4.89,14.29,3.45,3.57,8.77,4.45,12.1,4.45a16.71,16.71,0,0,0,11.9-4.45c3.57-3.26,4.89-7.4,4.89-14.29V69h-9.34v1.53c0,2.51,0,5-1.31,7.21a6.65,6.65,0,0,1-6.21,3.32,6.82,6.82,0,0,1-6.26-3.51,14,14,0,0,1-1.32-7V69Z"/><path class="cls-1" d="M271.56,70.12v.06a10.35,10.35,0,0,1-10.47,10.59h-10.3V69h-8V99.38H251V88.31h9.88a18,18,0,0,0,1.84.11c10.09,0,17-8.21,17-18q0-.72-.06-1.44h-8.22A10.88,10.88,0,0,1,271.56,70.12Z"/><path class="cls-1" d="M73.43,80.22A22.89,22.89,0,0,0,77.58,69H68.16A15.14,15.14,0,0,1,66,74.79a13,13,0,0,1-.78,1,10.88,10.88,0,0,1-1.9,1.81A11.49,11.49,0,0,1,61,79a13.28,13.28,0,0,1-2.92.86,19,19,0,0,1-3.48.3H48V69H38.63V88.38H54.05C63.41,88.38,69.69,85.25,73.43,80.22Z"/></svg>