<?xml version="1.0" encoding="UTF-8" standalone="no"?>
<!-- Generator: Adobe Illustrator 22.1.0, SVG Export Plug-In . SVG Version: 6.00 Build 0)  -->

<svg
   xmlns:dc="http://purl.org/dc/elements/1.1/"
   xmlns:cc="http://creativecommons.org/ns#"
   xmlns:rdf="http://www.w3.org/1999/02/22-rdf-syntax-ns#"
   xmlns:svg="http://www.w3.org/2000/svg"
   xmlns="http://www.w3.org/2000/svg"
   xmlns:sodipodi="http://sodipodi.sourceforge.net/DTD/sodipodi-0.dtd"
   xmlns:inkscape="http://www.inkscape.org/namespaces/inkscape"
   version="1.1"
   id="Layer_1"
   x="0px"
   y="0px"
   viewBox="0 0 789.32996 256.09515"
   xml:space="preserve"
   sodipodi:docname="ISRG-Logo-Blue.svg"
   width="789.32996"
   height="256.09515"
   inkscape:version="0.92.3 (2405546, 2018-03-11)"><metadata
   id="metadata124"><rdf:RDF><cc:Work
       rdf:about=""><dc:format>image/svg+xml</dc:format><dc:type
         rdf:resource="http://purl.org/dc/dcmitype/StillImage" /></cc:Work></rdf:RDF></metadata><defs
   id="defs122" /><sodipodi:namedview
   pagecolor="#ffffff"
   bordercolor="#666666"
   borderopacity="1"
   objecttolerance="10"
   gridtolerance="10"
   guidetolerance="10"
   inkscape:pageopacity="0"
   inkscape:pageshadow="2"
   inkscape:window-width="3840"
   inkscape:window-height="2096"
   id="namedview120"
   showgrid="false"
   inkscape:zoom="3.42723"
   inkscape:cx="391.6"
   inkscape:cy="126.74923"
   inkscape:window-x="0"
   inkscape:window-y="27"
   inkscape:window-maximized="1"
   inkscape:current-layer="Layer_1" />
<style
   type="text/css"
   id="style95">
	.st0{fill:#3771C8;}
</style>
<g
   id="g117"
   transform="translate(-140.9,-128.15408)">
	<path
   class="st0"
   d="M 923.5,221.1 H 799.3 c -2.8,0 -5.1,2.3 -5.1,5.1 0,5.7 0,15 0,20.8 0,2.8 2.3,5.1 5.1,5.1 h 92.9 c 1,0 2,0.2 2.9,0.6 3.3,1.6 2,4.7 1.5,11.9 -3.7,53.1 -42.6,89.7 -97.9,89.7 -42.1,-0.1 -83.3,-15.6 -107.9,-50.8 l -0.1,-0.1 c -1.4,-2.1 -4.7,-0.4 -3.8,2 18.7,48 66.7,78.6 117.7,78.1 45,-0.5 86.7,-23.2 109.4,-62.6 20.4,-35.4 16.5,-80.9 14.7,-95.2 -0.5,-2.7 -2.6,-4.6 -5.2,-4.6 z M 774.2,169.8 c -24.3,5.7 -43.8,22.1 -52.2,44 -7.5,19.6 -4.9,40.8 7.3,58.4 0,0 9.6,14.6 20.5,19.3 2.5,1.1 4.8,-2 3.1,-4.1 -5.2,-6.3 -9.3,-13.5 -11.7,-21.4 -10,-32.9 5.8,-64.3 39.5,-71.9 19.6,-4.4 42.5,-0.7 56,13.8 1.9,2 4.6,3.1 7.3,3.1 h 30.1 c 2.1,0 3.3,-2.3 2.1,-4 -21.3,-31.1 -61.8,-46.6 -102,-37.2 z"
   id="path97"
   inkscape:connector-curvature="0"
   style="fill:#3771c8" />
	<path
   class="st0"
   d="m 713.6,210.6 c -6.3,16.3 -6.4,34.4 -0.1,50.7 5.8,15 16.4,27.8 29.9,36.5 12.5,8.1 27.4,12.1 42.2,13.3 19.9,1.6 44.3,-0.5 57.3,-18 0.3,-0.4 0,-1 -0.5,-1 -9,0.1 -33.5,0 -43.1,0 -2.8,0 -5.1,-2.3 -5.1,-5.1 v -20.8 c 0,-2.8 2.3,-5.1 5.1,-5.1 h 82.5 c 2.9,0 5.2,2.4 5.1,5.2 0,1.2 0,2.2 -0.1,2.8 -2.3,34.3 -29.1,64 -61.9,72.8 -13.1,3.5 -26.9,4.2 -40.4,2.8 -44,-4.5 -84,-26.4 -100.1,-69.2 -3.6,-9.5 -5.9,-19.5 -6.7,-29.7 -1.5,-19.3 2.3,-38.9 11.4,-56 7.9,-14.8 19.4,-27.6 32.9,-37.5 30.2,-22 67.1,-28.4 103.4,-21.5 41.5,7.9 78.8,33.5 95.6,73 1.4,3.4 -1.1,7.1 -4.7,7.1 h -22.6 c -2.7,0 -5.3,-1.5 -6.7,-3.8 -0.3,-0.6 -0.6,-1.1 -0.8,-1.3 -5,-8.1 -11.1,-15.4 -18.2,-21.6 -14.4,-12.8 -32.4,-21.1 -51.3,-24.4 -19.5,-3.4 -40.6,-1.8 -59,6 -17.6,7.5 -32.6,21 -41.2,38.2 -1,2.2 -2,4.3 -2.9,6.6 z"
   id="path99"
   inkscape:connector-curvature="0"
   style="fill:#3771c8" />
	<g
   id="g105">
		<path
   class="st0"
   d="m 146,134.2 h 24.5 c 2.8,0 5.1,2.3 5.1,5.1 v 232.9 c 0,2.8 -2.3,5.1 -5.1,5.1 H 146 c -2.8,0 -5.1,-2.3 -5.1,-5.1 V 139.4 c 0,-2.9 2.3,-5.2 5.1,-5.2 z"
   id="path101"
   inkscape:connector-curvature="0"
   style="fill:#3771c8" />
		<path
   class="st0"
   d="m 219.8,139.4 v 232.9 c 0,2.8 -2.3,5.1 -5.1,5.1 h -25.1 c -2.7,0 -4.9,-2.2 -4.9,-4.9 V 139.4 c 0,-2.8 2.3,-5.1 5.1,-5.1 h 24.9 c 2.8,-0.1 5.1,2.2 5.1,5.1 z"
   id="path103"
   inkscape:connector-curvature="0"
   style="fill:#3771c8" />
	</g>
	<path
   class="st0"
   d="m 435.4,295.1 c -4.1,-20.1 -20,-34 -38.1,-41.9 -0.6,-0.2 -2.7,-0.9 -5.4,-1.8 -2.7,-0.8 -4.6,2.6 -2.4,4.4 9.9,8.2 16.5,17.4 19.6,30.2 6.4,26.3 -9.6,50.6 -39.9,60.2 -7.7,2.4 -15.8,3.6 -23.9,3.6 -16.3,0 -33.5,-4.3 -46.6,-13.5 -14,-10 -21.9,-24.6 -24.5,-40.6 -0.4,-2.5 -2.5,-4.4 -5.1,-4.4 h -24.8 c -2.5,0 -4.4,2.1 -4.1,4.6 1,9.3 2.9,18.1 6,26.9 3.5,10.1 9.2,19.7 16,27.9 9.2,11.1 21,19.6 34.2,25.2 12,5.1 25.1,7.4 38.1,8.1 29.8,1.8 62.1,-6 83.2,-28.3 14.8,-15.7 22.1,-39.2 17.7,-60.6 z m -35.6,-8.3 c -5.9,-24.5 -30.1,-36.1 -49.7,-48.2 -8.4,-5.1 -18.2,-9.6 -24.5,-17.4 -8.4,-10.4 1,-22.3 13.3,-22.3 12.4,0 17,7.4 19.7,13.4 0.8,1.8 2.7,3 4.7,3 h 25.6 c 2.4,0 4.2,-2.2 3.8,-4.5 -4.1,-23.2 -20.5,-39.9 -45.2,-42.8 -20.3,-2.4 -45,4.3 -55.6,23.5 -12.3,22.2 -0.1,45.9 17.9,60.2 9.3,7.3 19.7,13.1 29.9,19.1 7.8,4.6 22.6,10.3 23.7,20.9 1.4,12.8 -10.3,20.3 -21.9,19.1 -8.3,-0.9 -16.7,-5.2 -20.9,-12.7 -0.2,-0.4 -1.2,-2.3 -2.1,-3.9 -0.9,-1.7 -2.6,-2.7 -4.5,-2.7 h -25.2 c -3.3,0 -5.7,3 -5,6.2 2.8,12.3 9.1,23.6 20.2,31.5 17.3,12.2 41.8,15.2 62.6,8.7 20.1,-6.6 39.5,-25.2 33.2,-51.1 z M 435,208.3 c -1.1,-13.7 -4.9,-27.3 -12,-39.1 -19.2,-32.3 -58.3,-43.7 -93.9,-40.5 -26,2.3 -52.8,12.9 -68.1,35 -11.5,16.7 -14.8,39.3 -6.1,58 7.6,16.2 21.3,25 37.6,31.2 2.6,1 4.7,-2.3 2.7,-4.2 -23.9,-22.7 -24.3,-57.1 2,-77.4 19.6,-15.1 50.2,-17.4 72.4,-6.9 18.2,8.6 28.1,24.4 31.7,43.8 0.2,0.9 0.3,1.8 0.5,2.8 0.4,2.5 2.6,4.3 5.1,4.3 h 23 c 3,0 5.3,-2.5 5.1,-5.5 0.1,-0.5 0.1,-1 0,-1.5 z"
   id="path107"
   inkscape:connector-curvature="0"
   style="fill:#3771c8" />
	<g
   id="g115">
		<path
   class="st0"
   d="m 506.8,277.3 v 95.1 c 0,2.8 2.3,5.1 5.1,5.1 H 535 c 2.8,0 5.1,-2.3 5.1,-5.1 0,-12.2 0,-43.4 0,-61.7 0,-2.8 2.3,-5.1 5.1,-5.1 h 7 c 1.9,0 3.7,1 4.5,2.7 l 35.5,66.6 c 0.9,1.7 2.6,2.7 4.5,2.7 h 23.7 c 3.9,0 6.3,-4.1 4.6,-7.5 l -49.3,-94.5 c -1.1,-2.1 -3.3,-3.5 -5.7,-3.4 h -58.2 c -2.7,0 -5,2.3 -5,5.1 z"
   id="path109"
   inkscape:connector-curvature="0"
   style="fill:#3771c8" />
		<path
   class="st0"
   d="m 628,289.5 c -0.5,-0.9 -0.4,-2.1 0.4,-2.9 v 0 c 4.4,-4.6 8.3,-9.4 11.6,-14.1 3.6,-5.3 6.5,-10.6 8.6,-15.8 2,-4.8 3.4,-10.3 4.3,-16.7 l 0.1,-0.5 c 0.3,-2 -2.3,-2.9 -3.4,-1.3 v 0 c -12.1,18.4 -32.1,29.4 -59.7,32.9 l -2,0.2 c -1.8,0.2 -2.8,2.1 -2,3.7 l 37.4,71.8 15.7,28.2 c 0.9,1.6 2.6,2.6 4.5,2.6 h 24.9 c 3.9,0 6.4,-4.2 4.5,-7.6 z"
   id="path111"
   inkscape:connector-curvature="0"
   style="fill:#3771c8" />
		<path
   class="st0"
   d="m 614.9,193.9 c 1.2,14 -4,22.9 -8.6,27.9 -5.4,5.9 -14.7,9.5 -24.8,9.7 -6.6,0.1 -24.8,0.1 -36.4,0.1 -2.8,0 -5.1,-2.3 -5.1,-5.1 v -15 c 0,-2.9 2.3,-5.2 5.2,-5.1 11.1,0.1 31.4,0.4 32.2,0.4 8.6,0 13.3,3.8 13.5,11 0,0.2 0,0.3 0,0.4 0.1,1.2 1.4,2 2.6,1.5 1.7,-0.7 3.2,-1.6 4.5,-2.6 0.6,-0.5 1.1,-1 1.6,-1.5 2.7,-3 7.1,-9.6 6.2,-20.9 -1.6,-18.8 -21.2,-20.3 -41.2,-20.3 h -52.1 c -3.2,0 -5.7,2.6 -5.7,5.7 v 76 c 0,3.9 3.1,7 7,7 h 52.8 c 15.9,0 53,0 73.4,-27.3 0,0 0.1,-0.1 0.1,-0.1 3.7,-5.5 6.5,-10.3 8.6,-15.8 2.9,-7.6 4.4,-15.7 4.3,-24.1 -0.1,-9 -2.1,-18 -5.9,-26 -2,-4.2 -4.4,-8.2 -7.2,-11.7 -2.9,-3.6 -6.2,-6.8 -9.8,-9.6 -13.2,-10.4 -30.7,-14.8 -47.3,-14.8 0,0 -112.4,0 -112.4,0 -2.8,0 -5.1,2.3 -5.1,5.1 v 233.7 c 0,2.8 2.3,5.1 5.1,5.1 h 22.1 c 2.8,0 5.1,-2.3 5.1,-5.1 V 170.4 c 0,-2.8 2.3,-5.1 5.1,-5.1 h 61.8 c 15.6,-0.1 48,-0.2 50.4,28.6 z"
   id="path113"
   inkscape:connector-curvature="0"
   style="fill:#3771c8" />
	</g>
</g>
</svg>