<svg width="1206" height="300" viewBox="0 0 1206 300" fill="none" xmlns="http://www.w3.org/2000/svg">
<path d="M141.667 63.5718L120.724 75.8011L112.622 80.5399V117.534C112.622 123.954 109.183 129.839 103.679 133.126L70.7368 152.387V186.018L132.724 149.865C138.227 146.655 141.667 140.693 141.667 134.272V63.5718Z" fill="#14DFB4"/>
<path d="M35.6548 77.6357L142.202 15.572L119.808 2.50197C115.833 0.208979 111.018 0.208979 107.043 2.50197L6.61023 60.9733C2.86501 63.1898 0.572021 67.1644 0.572021 71.521V251.597C0.572021 255.725 2.78859 259.546 6.38094 261.687L29.6166 275.292V88.1834C29.6166 83.8268 31.9096 79.8522 35.6548 77.6357Z" fill="#082659"/>
<path d="M153.743 56.5396V143.291C153.743 148.489 150.992 153.38 146.482 155.979L70.7368 199.317L89.3865 210.323C96.2655 214.374 104.826 214.374 111.705 211.011L173.539 173.788C179.348 170.425 182.864 164.234 182.864 157.584L182.788 39.7244L153.743 56.5396Z" fill="#14DFB4"/>
<path d="M70.7364 186.018V152.387V112.413C70.7364 107.827 73.1823 103.546 77.1568 101.177L120.724 75.7247L141.666 63.4954L153.743 56.4635L182.711 39.6482L163.603 28.1833C157.947 24.7438 150.838 24.7438 145.106 28.0304L48.1887 84.438C44.2142 86.731 41.7683 91.0113 41.7683 95.6737V273.457C41.7683 278.96 44.6728 284.005 49.4116 286.756L70.8129 299.215V233.712V200.081V186.018H70.7364Z" fill="#082659"/>
<path d="M141.665 63.5718L120.723 75.7246L141.665 63.5718Z" fill="black"/>
<path d="M153.742 56.5407L181.64 40.2605L153.742 56.5407Z" fill="black"/>
<g clip-path="url(#clip0)">
<path d="M255.069 198.633C253.557 198.633 252.331 197.407 252.331 195.895V101.894H329.663C351.144 101.894 361.884 111.567 361.884 130.915C361.884 149.683 351.144 158.97 329.663 158.97H273.812V198.633H255.069ZM273.812 141.557H329.663C336.751 141.557 340.403 138.268 340.403 131.883V128.981C340.403 122.596 336.751 119.307 329.663 119.307H273.812V141.557Z" fill="#082659"/>
<path d="M391.473 198.633C389.96 198.633 388.734 197.407 388.734 195.895V101.894H466.066C487.547 101.894 498.288 111.568 498.288 130.916C498.288 147.748 488.836 157.035 470.148 158.777C471.866 160.518 473.155 162.066 474.014 163.42L498.288 198.633H474.014L446.733 158.97H410.215V198.633H391.473ZM410.215 141.557H466.066C473.155 141.557 476.807 138.268 476.807 131.883V128.981C476.807 122.596 473.155 119.307 466.066 119.307H410.215V141.557Z" fill="#082659"/>
<path d="M517.623 150.265C517.623 135.754 522.994 123.565 533.305 114.278C543.83 104.798 557.363 99.9607 573.474 99.9607C589.585 99.9607 603.118 104.798 613.429 114.278C623.955 123.759 629.325 135.754 629.325 150.265C629.325 164.776 623.955 176.965 613.429 186.252C602.903 195.733 589.585 200.57 573.474 200.57C557.363 200.57 543.83 195.733 533.305 186.252C522.779 176.965 517.623 164.776 517.623 150.265ZM540.179 150.265C540.179 159.552 543.401 167.291 549.415 173.289C555.645 179.287 563.593 182.189 573.474 182.189C583.141 182.189 591.089 179.287 597.318 173.289C603.548 167.291 606.77 159.552 606.77 150.265C606.77 140.978 603.548 133.239 597.318 127.241C591.089 121.243 583.141 118.341 573.474 118.341C563.808 118.341 555.86 121.243 549.415 127.241C543.186 133.239 540.179 140.978 540.179 150.265Z" fill="#082659"/>
<path d="M650.944 172.347C650.786 170.843 652.029 169.613 653.541 169.613H672.284C672.284 178.706 682.38 183.156 702.357 183.156C722.335 183.156 732.431 178.513 732.431 169.033C732.431 161.68 722.12 158.004 701.498 158.004C669.062 158.004 652.951 148.717 652.951 130.337C652.951 110.022 669.491 99.9607 702.357 99.9607C717.179 99.9607 729.209 102.863 738.231 108.474C747.253 114.085 751.764 121.63 751.764 130.917H730.283C730.283 121.824 721.046 117.374 702.357 117.374C683.669 117.374 674.432 121.63 674.432 130.337C674.432 137.109 684.098 140.591 703.431 140.591C737.157 140.591 753.912 150.072 753.912 169.033C753.912 190.122 736.727 200.57 702.357 200.57C686.676 200.57 674.217 197.667 664.765 192.056C656.452 187.007 651.793 180.39 650.944 172.347Z" fill="#082659"/>
<path d="M775.534 172.347C775.375 170.843 776.618 169.613 778.13 169.613H796.873C796.873 178.706 806.969 183.156 826.947 183.156C846.924 183.156 857.02 178.513 857.02 169.033C857.02 161.68 846.709 158.004 826.088 158.004C793.651 158.004 777.54 148.717 777.54 130.337C777.54 110.022 794.081 99.9607 826.947 99.9607C841.769 99.9607 853.798 102.863 862.82 108.474C871.842 114.085 876.353 121.63 876.353 130.917H854.872C854.872 121.824 845.635 117.374 826.947 117.374C808.258 117.374 799.021 121.63 799.021 130.337C799.021 137.109 808.688 140.591 828.021 140.591C861.746 140.591 878.501 150.072 878.501 169.033C878.501 190.122 861.316 200.57 826.947 200.57C811.266 200.57 798.807 197.667 789.355 192.056C781.042 187.007 776.383 180.39 775.534 172.347Z" fill="#082659"/>
<path d="M926.834 101.894V198.633H908.091C906.579 198.633 905.353 197.407 905.353 195.895V101.894H926.834Z" fill="#082659"/>
<path d="M959.053 101.894H978.386L1011.9 142.525H1013.62L1047.13 101.894H1066.46V198.633H1047.72C1046.2 198.633 1044.98 197.407 1044.98 195.895V130.916H1044.55C1044.12 132.077 1043.69 133.238 1043.04 134.592C1041.54 137.494 1040.04 140.009 1038.53 141.751L1025.84 157.099C1024.36 158.897 1022.15 159.938 1019.81 159.938H1005.7C1003.37 159.938 1001.15 158.897 999.668 157.099L986.979 141.751C985.475 140.009 983.971 137.494 982.467 134.592C981.823 133.238 981.393 132.077 980.964 130.916H980.534V198.633H961.791C960.279 198.633 959.053 197.407 959.053 195.895V101.894Z" fill="#082659"/>
<path d="M1093.31 150.265C1093.31 135.754 1098.68 123.565 1108.99 114.278C1119.52 104.798 1133.05 99.9607 1149.16 99.9607C1165.27 99.9607 1178.81 104.798 1189.33 114.278C1199.86 123.759 1205.01 135.754 1205.01 150.265C1205.01 164.776 1199.64 176.965 1189.33 186.252C1178.81 195.733 1165.49 200.57 1149.16 200.57C1133.05 200.57 1119.52 195.733 1108.99 186.252C1098.47 176.965 1093.31 164.776 1093.31 150.265ZM1115.87 150.265C1115.87 159.552 1119.09 167.291 1125.1 173.289C1131.33 179.287 1139.28 182.189 1149.16 182.189C1158.83 182.189 1166.78 179.287 1173.22 173.289C1179.45 167.291 1182.46 159.552 1182.46 150.265C1182.46 140.978 1179.24 133.239 1173.22 127.241C1166.99 121.243 1159.04 118.341 1149.16 118.341C1139.5 118.341 1131.55 121.243 1125.1 127.241C1118.87 133.239 1115.87 140.978 1115.87 150.265Z" fill="#082659"/>
</g>
<defs>
<clipPath id="clip0">
<rect width="952.684" height="100.609" fill="white" transform="translate(252.331 99.9607)"/>
</clipPath>
</defs>
</svg>
